<svg width="408" height="35" viewBox="0 0 408 35" xmlns="http://www.w3.org/2000/svg" xmlns:xlink="http://www.w3.org/1999/xlink"><defs><path id="a" d="M0 .138h23.91v34.85H0z"/><path id="c" d="M0 .138h64.148v34.678H0z"/></defs><g fill="none" fill-rule="evenodd"><g transform="translate(0 -.167)"><mask id="b" fill="#fff"><use xlink:href="#a"/></mask><path d="M11.94 29.338c-3.504 0-6.344-2.864-6.344-6.396 0-3.533 2.84-6.397 6.344-6.397 2.714 0 5.029 1.72 5.935 4.137a3.643 3.643 0 00-2.891-1.43c-2.023 0-3.664 1.653-3.664 3.694 0 2.04 1.64 3.694 3.664 3.694a3.643 3.643 0 002.884-1.422c-.91 2.409-3.22 4.12-5.928 4.12zm1.374-18.367l3.023-4.753a3.037 3.037 0 003.199-1.345 3.09 3.09 0 00-.92-4.248 3.034 3.034 0 00-4.213.929 3.094 3.094 0 00.122 3.492L10.77 10.95C4.724 11.55 0 16.691 0 22.946 0 29.603 5.352 35 11.955 35c6.602 0 11.955-5.397 11.955-12.054 0-6.194-4.634-11.294-10.596-11.975z" fill="#213B4B" mask="url(#b)"/></g><path d="M27 29.708l3.724-2.563.334.05c1.146 1.922 2.817 3.055 4.775 3.055 1.91 0 3.103-.887 3.103-2.218 0-1.084-.764-2.02-4.297-3.301-5.204-1.971-6.732-4.09-6.732-7.245 0-3.794 3.2-6.653 8.356-6.653 4.01 0 7.21 1.922 8.498 4.88l-3.533 2.365-.43-.05c-.764-1.626-2.244-2.612-4.106-2.612-1.718 0-2.673.888-2.673 1.972s.477 1.774 4.344 3.302C43.33 22.71 45 24.68 45 28.032c0 3.943-3.438 6.801-8.833 6.801-4.201 0-7.4-1.774-9.167-5.125" fill="#213B4B"/><g transform="translate(0 -.167)"><mask id="d" fill="#fff"><use xlink:href="#c"/></mask><path d="M64.148 33.915c-1.223.492-3.033.836-4.794.836-5.04 0-7.779-2.557-7.779-7.474V16.804h-3.962V11.74h4.011V5.89l5.088-3h1.37v8.85h6.017v5.064h-6.017v8.802c0 2.704.831 3.54 3.082 3.54.782 0 1.516-.197 2.397-.59l.44.246.147 5.113" fill="#213B4B" mask="url(#d)"/><path d="M11.92 29.194c-3.498 0-6.334-2.85-6.334-6.365 0-3.516 2.836-6.365 6.333-6.365 2.71 0 5.02 1.71 5.925 4.116a3.641 3.641 0 00-2.886-1.423 3.667 3.667 0 00-3.657 3.676 3.667 3.667 0 003.657 3.675 3.64 3.64 0 002.88-1.414c-.909 2.397-3.215 4.1-5.919 4.1zm1.371-18.277l3.018-4.73a3.036 3.036 0 003.194-1.338 3.068 3.068 0 00-.92-4.227 3.035 3.035 0 00-4.205.924 3.07 3.07 0 00.122 3.476l-3.748 5.874C4.716 11.494 0 16.61 0 22.833c0 6.624 5.343 11.995 11.934 11.995 6.592 0 11.935-5.37 11.935-11.995 0-6.164-4.626-11.239-10.578-11.916z" fill="#35445B" mask="url(#d)"/></g><path d="M27 29.708l3.724-2.563.334.05c1.146 1.922 2.817 3.055 4.775 3.055 1.91 0 3.103-.887 3.103-2.218 0-1.084-.764-2.02-4.297-3.301-5.204-1.971-6.732-4.09-6.732-7.245 0-3.794 3.2-6.653 8.356-6.653 4.01 0 7.21 1.922 8.498 4.88l-3.533 2.365-.43-.05c-.764-1.626-2.244-2.612-4.106-2.612-1.718 0-2.673.888-2.673 1.972s.477 1.774 4.344 3.302C43.33 22.71 45 24.68 45 28.032c0 3.943-3.438 6.801-8.833 6.801-4.201 0-7.4-1.774-9.167-5.125m37 4.286c-1.257.494-3.118.84-4.929.84-5.18 0-7.997-2.568-7.997-7.507V16.808H47v-5.086h4.124V5.846l5.231-3.013h1.408v8.89h6.187v5.085h-6.187v8.84c0 2.716.855 3.556 3.169 3.556.805 0 1.56-.198 2.465-.593l.452.247.151 5.136" fill="#35445B"/><path d="M76 34V11h6.998C91.378 11 96 15.19 96 22.403 96 29.679 91.12 34 82.966 34H76zm5-4h2.18c5.956 0 8.82-2.368 8.82-7.632C92 17.303 89.201 15 83.246 15H81v15zm20-19h13.558l.442 3.93h-9.576v5.458h8.691v3.801h-8.69v5.88H115L114.558 34H101V11zm26.512 23L118 11h5.336l4.739 12.607c.43 1.219.961 2.662 1.359 4.298h.165c.398-1.636.895-3.015 1.36-4.234L135.63 11H141l-9.512 23h-3.976zM144 11h13.558l.442 3.93h-9.576v5.458h8.691v3.801h-8.69v5.88H158L157.558 34H144V11zm19 0h4.605v18.874H178L177.474 34H163V11zm29.5 24c-7.213 0-12.5-5.18-12.5-12 0-6.885 5.222-12 12.5-12S205 16.115 205 23c0 6.82-5.287 12-12.5 12zm0-4c4.34 0 7.5-3.464 7.5-7.984 0-4.618-3.128-8.016-7.5-8.016-4.34 0-7.5 3.398-7.5 8.016 0 4.52 3.16 7.984 7.5 7.984zm16.5 3V11h7.508c5.64 0 8.492 2.501 8.492 7.212 0 4.45-2.918 7.082-8.066 7.082h-3.278V34H209zm5-12h2.49c3.097 0 4.51-1.1 4.51-3.467 0-2.5-1.447-3.533-4.51-3.533H214v7zm16-11h13.558l.442 3.93h-9.576v5.458h8.691v3.801h-8.69v5.88H244L243.558 34H230V11zm30.5 13.175l6.5 9.272-.223.553h-4.651l-6.085-9.141h-2.517V34H249V11h7.55c5.32 0 8.156 2.31 8.156 7.06 0 2.992-1.497 5.14-4.205 6.115zM253 15v6h2.63c2.99 0 4.37-.866 4.37-2.955 0-2.18-1.413-3.045-4.37-3.045H253zm23.683 20c-3.793 0-6.687-1.48-8.683-4.73l3.227-2.187.599.161c1.264 2.027 2.761 2.895 4.824 2.895 2.096 0 3.526-1.222 3.526-2.766 0-1.545-.898-2.51-4.99-4.183-4.624-1.866-6.288-3.86-6.288-7.013 0-3.475 3.127-6.177 7.852-6.177 3.493 0 6.12 1.416 7.751 3.86l-3.194 2.253-.599-.13c-.931-1.35-2.162-2.155-3.958-2.155-1.93 0-3.028.966-3.028 2.317 0 1.254.665 1.962 4.857 3.732C283.503 23 285 24.995 285 28.05c0 3.893-3.46 6.949-8.317 6.949z" fill="#35445B" fill-rule="nonzero"/><path d="M301.768 33.556V12.63h5.822c4.552 0 6.946 2.099 6.946 6.03 0 3.783-2.542 5.97-6.976 5.97h-3.34v8.926h-2.452zm2.453-11.113h2.778c3.517 0 5.054-1.153 5.054-3.783 0-2.72-1.567-3.843-5.054-3.843h-2.778v7.626zm13.743 11.113V11.89h2.246v21.665h-2.246zm17.881-1.685l.237.118v1.744c-.71.207-1.094.295-1.862.295-1.212 0-1.98-.68-2.07-1.92-1.418 1.418-2.689 2.01-4.314 2.01-2.335 0-3.843-1.45-3.843-3.607 0-2.423 2.306-4.137 8.069-4.906v-.827c0-1.98-.828-2.867-2.364-2.867-1.537 0-2.838.857-3.813 2.305l-.237.03-1.566-1.035c1.212-2.04 3.399-3.34 5.763-3.34 2.779 0 4.463 1.567 4.463 4.404v7.034c0 .591.178.769.68.769.266 0 .473-.06.857-.207zm-7.477.325c1.448 0 2.719-.62 3.694-1.626v-3.25c-4.167.68-5.704 1.595-5.704 3.132 0 1.094.68 1.744 2.01 1.744zm17.556-.473l.088 1.98a7.066 7.066 0 01-2.423.414c-2.365 0-3.783-1.389-3.783-3.901v-7.862h-2.513v-1.921h2.513v-4.138l1.95-1.182h.296v5.32h3.93v1.921h-3.93v7.182c0 1.862.502 2.483 1.98 2.483.532 0 1.064-.148 1.655-.414l.237.118zm9.664-17.733a3.577 3.577 0 00-1.418-.325c-1.3 0-1.833.709-1.833 3.25v3.518h3.28v1.921h-3.28v11.202h-2.246V22.354h-2.512v-1.921h2.512v-3.34c0-4.167 1.182-5.556 3.96-5.556.532 0 1.3.118 1.951.325l-.148 2.01-.266.118zm8.453 20.127c-4.079 0-7.182-3.133-7.182-7.123 0-4.02 3.074-7.123 7.182-7.123 4.108 0 7.182 3.104 7.182 7.123 0 3.99-3.103 7.123-7.182 7.123zm0-2.098c2.72 0 4.818-2.217 4.818-5.025 0-2.808-2.07-5.024-4.818-5.024-2.749 0-4.817 2.216-4.817 5.024s2.098 5.025 4.817 5.025zm10.877 1.537V20.433h2.01v2.66c1.122-2.276 2.482-3.222 4.285-3.222 1.212 0 2.217.71 2.719 2.099l-1.921 1.123-.237-.06c-.354-.797-.798-1.063-1.507-1.063-1.537 0-3.103 2.01-3.103 5.438v6.148h-2.246zm27.545-13.685c2.867 0 4.67 1.862 4.67 5.202v8.483h-2.246v-7.478c0-2.837-1.064-4.108-3.103-4.108-2.217 0-3.813 2.216-3.813 5.231v6.355h-2.246v-7.478c0-2.837-1.064-4.108-3.104-4.108-2.216 0-3.812 2.216-3.812 5.231v6.355h-2.247V20.433h2.247v2.335c1.064-1.862 2.571-2.897 4.492-2.897 2.276 0 3.724 1.183 4.286 3.34 1.093-2.276 2.985-3.34 4.876-3.34z" fill="#597A84" fill-rule="nonzero"/></g></svg>