<svg version="1.1" id="Layer_1" xmlns="http://www.w3.org/2000/svg" x="0" y="0" viewBox="0 0 50 50" xml:space="preserve"><style>.st0{opacity:.1;fill:#231f20}</style><ellipse class="st0" cx="25" cy="29.4" rx="13" ry="2.1"/><path fill="#99999a" d="M14.2 12.7h21.2v14.7H14.2z"/><path d="M14.2 25.4c1.7.7 6.6 1 10.6 1s8.9-.3 10.7-1c.4.2.6.5.6.9v2.1c0 1.7-6.4 2.4-11.3 2.4s-11.2-.8-11.2-2.4v-2.1c0-.5.2-.8.6-.9zm10.6-.2c4.9 0 11.3-.5 11.3-1.5v-2.6c0-.3-.5-.6-1.2-.6H14.8c-.6 0-1.2.3-1.2.6v2.6c0 1 6.3 1.5 11.2 1.5zm.1-15.8c4.9 0 11.2.8 11.2 2.4v2.1c0 .4-.3.7-.6.9-1.7-.7-6.6-1-10.6-1s-8.9.3-10.7 1c-.4-.2-.6-.5-.6-.9v-2.1c0-1.7 6.4-2.4 11.3-2.4zm0 5.6c-4.9 0-11.3.5-11.3 1.5V19c0 .3.5.6 1.2.6H35c.6 0 1.2-.3 1.2-.6v-2.6c-.1-1-6.4-1.4-11.3-1.4z" fill="#d6d5d5"/><path class="st0" d="M18 9.8c-1.9 0-1.9 20.5 0 20.5-2.5-.4-4.4-1-4.4-2v-2.1c0-.4.3-.7.6-.9v-1.1c-.4-.2-.6-.3-.6-.5v-2.6c0-.2.3-.4.6-.5v-1c-.4-.1-.6-.3-.6-.5v-2.6c0-.2.2-.4.6-.5v-1.1c-.4-.2-.6-.5-.6-.9v-2.1c0-1 1.9-1.7 4.4-2.1zm13.7 0c1.9 0 1.9 20.5 0 20.5 2.5-.4 4.4-1 4.4-2v-2.1c0-.4-.3-.7-.6-.9v-1.1c.4-.2.6-.3.6-.5v-2.6c0-.2-.3-.4-.6-.5v-1c.4-.1.6-.3.6-.5v-2.6c0-.2-.2-.4-.6-.5v-1.1c.4-.2.6-.5.6-.9v-2.1c0-1-1.9-1.7-4.4-2.1z"/><path d="M13.9 40.5c-.8 0-1.3-.2-1.9-.7l.8-.8c.3.3.5.5 1.1.5.9 0 1.4-.5 1.4-1.5v-5.2h1.2V38c0 1.6-1.2 2.5-2.6 2.5zm9.4-1c-.5.7-1.2 1-2.2 1h-2.7v-7.7h2.7c1 0 1.6.3 2.2 1 .6.7.6 1.6.6 2.9s-.1 2.1-.6 2.8zm-1-5.2c-.3-.4-.8-.5-1.3-.5h-1.4v5.6H21c.6 0 1-.2 1.3-.5.4-.4.4-1.1.4-2.3s-.1-1.9-.4-2.3zm6.4 6.1h-3.1v-7.7h3c1.4 0 2.3.8 2.3 2.1 0 .8-.5 1.4-1 1.6.6.2 1.2.8 1.2 1.8-.1 1.5-1.1 2.2-2.4 2.2zm-.2-6.6h-1.7V36h1.7c.7 0 1.3-.4 1.3-1.1s-.6-1.1-1.3-1.1zm.1 3.2h-1.8v2.3h1.8c.8 0 1.3-.5 1.3-1.2s-.5-1.1-1.3-1.1zm6.6 3.5c-.8 0-1.5-.3-2-.8-.7-.8-.8-1.5-.8-3.1s0-2.4.8-3.1c.5-.5 1.1-.8 2-.8 1.4 0 2.5.8 2.7 2.4h-1.2c-.2-.8-.7-1.3-1.6-1.3-.5 0-.9.2-1.1.5-.4.4-.5.9-.5 2.4s.1 2 .5 2.4c.3.3.7.5 1.1.5.9 0 1.4-.5 1.6-1.3H38c-.3 1.4-1.4 2.2-2.8 2.2z"/></svg>