<svg width="58" height="58" viewBox="-3 -3 64 64" fill="none" xmlns="http://www.w3.org/2000/svg"><path d="M29 58c16.016 0 29-12.984 29-29S45.016 0 29 0 0 12.984 0 29s12.984 29 29 29z" fill="#5F67FA"/><path fill-rule="evenodd" clip-rule="evenodd" d="M35.928 23c-.487-3.388-3.408-6-6.928-6a6.954 6.954 0 00-3.153.753l-1.157-1.652A8.944 8.944 0 0129 15c4.625 0 8.444 3.506 8.943 8h-2.015zM22 28.98h-2V24a8.978 8.978 0 013.054-6.748l1.156 1.65A6.98 6.98 0 0022 24v4.98zM29 41c-3.86 0-7-3.14-7-7v-1h-2v1c0 4.963 4.037 9 9 9 .834 0 1.641-.117 2.409-.33l-1.24-1.77A7 7 0 0129 41zm0-4c-1.654 0-3-1.346-3-3v-7h-2v7c0 2.757 2.243 5 5 5a5.009 5.009 0 004.9-4h-2.075A3.003 3.003 0 0129 37zm1-13.04V34a1 1 0 11-2 0V23.96a1 1 0 112 0zM36 25v9a6.953 6.953 0 01-.917 3.457l1.238 1.768A8.948 8.948 0 0038 34v-9h-2zm-12-1c0-2.757 2.243-5 5-5s5 2.243 5 5v7h-2v-7c0-1.654-1.346-3-3-3s-3 1.346-3 3v1h-2v-1z" fill="#fff"/></svg>