<svg version="1.1" id="Layer_1" xmlns="http://www.w3.org/2000/svg" x="0" y="0" viewBox="0 0 50 50" xml:space="preserve"><style>.st5{fill:#1969bc}.st13{fill:#0d82ca}</style><linearGradient id="SVGID_1_" gradientUnits="userSpaceOnUse" x1="-267.5" y1="441.021" x2="-267.5" y2="440.791" gradientTransform="matrix(45.6076 0 0 -81.335 12222.58 35887.84)"><stop offset="0" stop-color="#0994dc"/><stop offset=".35" stop-color="#66cef5"/><stop offset=".35" stop-color="#66cef5"/><stop offset=".846" stop-color="#127bca"/><stop offset=".846" stop-color="#127bca"/><stop offset="1" stop-color="#127bca"/></linearGradient><path d="M19 20.4c1.4 4.3 2 12 6.1 12 .3 0 .6 0 1-.1-3.8-.9-4.2-8.5-6.5-12.5l-.6.6" fill="url(#SVGID_1_)"/><linearGradient id="SVGID_2_" gradientUnits="userSpaceOnUse" x1="-267.771" y1="441.115" x2="-267.771" y2="440.885" gradientTransform="matrix(47.8692 0 0 -83.4083 12841.215 36809.625)"><stop offset="0" stop-color="#0e76bc"/><stop offset=".36" stop-color="#36aee8"/><stop offset=".36" stop-color="#36aee8"/><stop offset=".846" stop-color="#00adef"/><stop offset=".846" stop-color="#00adef"/><stop offset="1" stop-color="#00adef"/></linearGradient><path d="M19.5 19.9c2.3 4 2.7 11.6 6.5 12.5.3-.1.6-.1.9-.2-3.4-1.7-4.3-9.1-6.9-12.6-.1 0-.3.1-.5.3" fill="url(#SVGID_2_)"/><path d="M22.9 17.5c-.3 0-.6 0-1 .1-.8.2-1.7.5-2.5 1.1.2.2.5.5.7.8.9-.7 1.7-1.3 2.6-1.6.3-.1.6-.2 1-.3-.3-.1-.6-.1-.8-.1" fill="#14559a"/><linearGradient id="SVGID_3_" gradientUnits="userSpaceOnUse" x1="-268.038" y1="440.851" x2="-268.038" y2="441.032" gradientTransform="matrix(45.4522 0 0 -84.5 12210.02 37283.898)"><stop offset="0" stop-color="#1c63b7"/><stop offset=".5" stop-color="#33bdf2"/><stop offset="1" stop-color="#33bdf2" stop-opacity=".42"/></linearGradient><path d="M29.6 30.6c.3-.3.7-.6 1-.9-1.4-4.3-2-12.1-6.1-12.1-.3 0-.6 0-.9.1 3.8.8 4.3 9.1 6 12.9" fill="url(#SVGID_3_)"/><path d="M23.6 17.6c-.2-.1-.5-.1-.7-.1h1.6c-.3 0-.6 0-.9.1" fill="#3092c4"/><path class="st5" d="M29.5 31.5L29 31c-.7.5-1.4.9-2.1 1.1.2.1.5.2.8.3.2 0 .4.1.7.1.8 0 1.4-.1 1.9-.3-.3-.3-.6-.5-.8-.7"/><linearGradient id="SVGID_4_" gradientUnits="userSpaceOnUse" x1="-267.882" y1="441.175" x2="-267.882" y2="440.945" gradientTransform="matrix(45.0105 0 0 -86.5982 12083.595 38220.016)"><stop offset="0" stop-color="#166ab8"/><stop offset=".4" stop-color="#36aee8"/><stop offset=".4" stop-color="#36aee8"/><stop offset=".846" stop-color="#0798dd"/><stop offset=".846" stop-color="#0798dd"/><stop offset="1" stop-color="#0798dd"/></linearGradient><path d="M22.6 17.9C26 19.7 26.3 27.7 29 31c.2-.1.4-.3.5-.4-1.7-3.8-2.2-12-6-13-.2.1-.6.2-.9.3" fill="url(#SVGID_4_)"/><linearGradient id="SVGID_5_" gradientUnits="userSpaceOnUse" x1="-268.561" y1="441.474" x2="-268.561" y2="441.244" gradientTransform="matrix(58.3509 0 0 -92.0822 15695.324 40667.027)"><stop offset="0" stop-color="#124379"/><stop offset=".39" stop-color="#1487cb"/><stop offset=".39" stop-color="#1487cb"/><stop offset=".78" stop-color="#165197"/><stop offset=".78" stop-color="#165197"/><stop offset="1" stop-color="#165197"/></linearGradient><path d="M20 19.5c2.6 3.6 3.5 11 6.9 12.6.7-.2 1.4-.6 2.1-1.1-2.7-3.3-3-11.3-6.4-13.1-.8.3-1.7.8-2.6 1.6" fill="url(#SVGID_5_)"/><linearGradient id="SVGID_6_" gradientUnits="userSpaceOnUse" x1="-260.767" y1="432.812" x2="-260.613" y2="432.812" gradientTransform="matrix(19.4176 0 0 -30.9219 5079.48 13404.963)"><stop offset="0" stop-color="#33bdf2" stop-opacity=".698"/><stop offset="1" stop-color="#1dacd8"/></linearGradient><path d="M17.3 20.3c-.4.9-.8 2.1-1.3 3.7 1-1.4 2-2.6 3-3.6-.1-.4-.3-.8-.4-1.2-.4.3-.9.7-1.3 1.1" fill="url(#SVGID_6_)"/><path d="M18.9 19c-.1.1-.2.2-.4.3.2.3.3.7.4 1.2.2-.2.4-.3.5-.5 0-.5-.3-.8-.5-1" fill="#2b74b1"/><path d="M19.4 18.7c-.1.1-.3.2-.4.3l.6.9c.2-.1.3-.3.5-.4-.3-.3-.5-.6-.7-.8" fill="#125a9e"/><linearGradient id="SVGID_7_" gradientUnits="userSpaceOnUse" x1="-270.302" y1="441.557" x2="-270.302" y2="441.707" gradientTransform="matrix(79.1425 0 0 -98.6787 21430.9 43603.836)"><stop offset="0" stop-color="#136ab4"/><stop offset=".6" stop-color="#59caf5" stop-opacity=".549"/><stop offset="1" stop-color="#59caf5" stop-opacity=".235"/></linearGradient><path d="M42.5 17.2c-1.9 7.4-5.9 13.4-9.3 14.9-.1 0-.1.1-.2.1h-.5c.2.1.3.1.5.1 3.2 0 6.4-5.7 11.7-15.2l-2.2.1z" fill="url(#SVGID_7_)"/><linearGradient id="SVGID_8_" gradientUnits="userSpaceOnUse" x1="-268.163" y1="441.664" x2="-268.008" y2="441.664" gradientTransform="matrix(72.0226 0 0 -99.1613 19319.129 43821.148)"><stop offset="0" stop-color="#05a1e6" stop-opacity=".247"/><stop offset="1" stop-color="#05a1e6"/></linearGradient><path d="M15.3 17.8c.1 0 .1 0 0 0 .1 0 .1 0 0 0 .1 0 .1 0 0 0 .1 0 .1-.1.1-.1h.9-.3c-3.6 0-8.5 6.7-10.8 15.3h.4c.7-1.3 1.4-2.5 1.9-3.6 1.8-6.3 5-10.5 7.8-11.6" fill="url(#SVGID_8_)"/><path class="st13" d="M17.3 20.3c.4-.4.8-.7 1.2-1.1l-.3-.6c-.3.5-.6 1-.9 1.7"/><path class="st13" d="M17.6 17.9c.2.2.4.5.6.8l.2-.2c-.2-.3-.5-.5-.8-.6 0-.1 0 0 0 0"/><linearGradient id="SVGID_9_" gradientUnits="userSpaceOnUse" x1="-266.553" y1="440.148" x2="-266.553" y2="440.354" gradientTransform="matrix(49.0511 0 0 -73.8222 13086.253 32524.678)"><stop offset="0" stop-color="#318ed5"/><stop offset="1" stop-color="#38a7e4"/></linearGradient><path d="M7.7 29.2c3.3-6.3 4.8-10.3 7.6-11.4-2.8 1.1-6 5.3-7.6 11.4" fill="url(#SVGID_9_)"/><path d="M18.5 18.4l-.2.2.3.6c.1-.1.2-.2.4-.3-.2-.1-.4-.3-.5-.5" fill="#127bca"/><linearGradient id="SVGID_10_" gradientUnits="userSpaceOnUse" x1="-266.294" y1="439.17" x2="-266.294" y2="439.429" gradientTransform="matrix(45.6036 0 0 -57.1283 12156.463 25121.066)"><stop offset="0" stop-color="#05a1e6"/><stop offset="1" stop-color="#05a1e6" stop-opacity=".549"/></linearGradient><path d="M9.2 32.8H9c3.3-.1 4.8-1.8 5.6-4.2.6-1.8 1-3.4 1.5-4.7-1.4 2-2.8 4.3-4.2 6.9-.8 1.3-1.8 1.9-2.7 2" fill="url(#SVGID_10_)"/><linearGradient id="SVGID_11_" gradientUnits="userSpaceOnUse" x1="-267.063" y1="440.849" x2="-267.063" y2="441.003" gradientTransform="matrix(52.5191 0 0 -81.0936 14039.19 35782.824)"><stop offset="0" stop-color="#1959a6"/><stop offset=".5" stop-color="#05a1e6"/><stop offset=".5" stop-color="#05a1e6"/><stop offset=".918" stop-color="#7ec5ea"/><stop offset="1" stop-color="#7ec5ea"/></linearGradient><path d="M9.2 32.8c.9-.1 1.9-.6 2.6-1.9 1.4-2.6 2.8-4.9 4.2-6.9.5-1.6.9-2.8 1.3-3.7-2.7 2.6-5.5 7-8.1 12.5" fill="url(#SVGID_11_)"/><path d="M7.7 29.2c-.6 1.1-1.2 2.3-1.9 3.6h1.3c.1-1.2.4-2.5.6-3.6" fill="#05a1e6"/><linearGradient id="SVGID_12_" gradientUnits="userSpaceOnUse" x1="-268.232" y1="441.59" x2="-268.264" y2="441.727" gradientTransform="matrix(72.6768 0 0 -99.0047 19507.986 43751.496)"><stop offset="0" stop-color="#165096"/><stop offset="1" stop-color="#0d82ca"/></linearGradient><path d="M16.4 17.5c-.1.1-.1.1 0 0h-1.1c-2.7 1.1-4.3 5.1-7.6 11.4-.3 1.1-.5 2.3-.7 3.6h2.3c2.6-5.5 5.3-9.9 8.1-12.5.3-.7.6-1.2.9-1.6-.2-.3-.4-.6-.6-.8h-1c-.2-.1-.3-.1-.3-.1" fill="url(#SVGID_12_)"/><linearGradient id="SVGID_13_" gradientUnits="userSpaceOnUse" x1="-268.181" y1="438.583" x2="-268.181" y2="438.707" gradientTransform="matrix(32.7663 0 0 -57.2261 8823.264 25122.695)"><stop offset="0" stop-color="#05a1e6"/><stop offset=".874" stop-color="#0495d6"/><stop offset="1" stop-color="#0495d6"/></linearGradient><path d="M35 21.3c-.6 2-1.1 3.7-1.6 5.1 1.7-2.4 3.4-5.4 5.1-8.8-1.9.5-2.9 1.9-3.5 3.7" fill="url(#SVGID_13_)"/><linearGradient id="SVGID_14_" gradientUnits="userSpaceOnUse" x1="-269.846" y1="441.607" x2="-269.894" y2="441.437" gradientTransform="matrix(60.2691 0 0 -96.3231 16302.683 42553.512)"><stop offset="0" stop-color="#38a7e4" stop-opacity=".329"/><stop offset=".962" stop-color="#0e88d3"/><stop offset=".962" stop-color="#0e88d3"/><stop offset="1" stop-color="#0e88d3"/></linearGradient><path d="M33.5 31.9c-.1 0-.2.1-.3.1 3.4-1.5 7.4-7.5 9.3-14.9h-.4c-4.4 8-5.8 13.3-8.6 14.8" fill="url(#SVGID_14_)"/><path d="M31.3 31.3c.7-.9 1.3-2.4 2.1-4.9-.9 1.3-1.9 2.4-2.8 3.3.2.6.4 1.1.7 1.6" fill="#079ae1"/><path class="st5" d="M31.3 31.3c-.2.3-.5.5-.8.7-.1 0-.1.1-.2.1.3.2.6.3 1 .3h1.2c-.5-.2-.9-.6-1.2-1.1"/><path d="M25.1 32.4c.3 0 .6 0 1-.1.3-.1.6-.1.9-.2.2.1.5.2.8.3.2 0 .4.1.7.1h-3.4v-.1zm3.3 0c.8 0 1.4-.1 1.9-.3.3.2.6.3 1 .3h.4-3.3z" fill="#1e5cb3"/><path d="M31.7 32.4h.8c.2.1.3.1.5.1l-1.3-.1z" fill="#1d60b5"/><path d="M30.6 29.7c-.3.3-.7.6-1 .9-.2.1-.4.3-.5.4.2.2.3.4.5.5.2.2.5.4.8.6.1 0 .1-.1.2-.1.3-.2.6-.4.8-.7-.4-.5-.6-1-.8-1.6" fill="#175fab"/><linearGradient id="SVGID_15_" gradientUnits="userSpaceOnUse" x1="-270.011" y1="441.679" x2="-270.011" y2="441.522" gradientTransform="matrix(70.2816 0 0 -98.1105 19013.516 43350.484)"><stop offset="0" stop-color="#168cd4"/><stop offset=".5" stop-color="#1c87cc"/><stop offset="1" stop-color="#154b8d"/></linearGradient><path d="M40.9 17.2h-2.2c0 .1-.1.2-.1.3-1.6 3.5-3.3 6.5-5.1 8.8-.8 2.5-1.4 4-2.1 4.9.3.5.7.9 1.1 1.1h.4c.1 0 .1 0 .2-.1.1 0 .2-.1.3-.1 2.8-1.6 4.2-6.9 8.7-14.7l-1.2-.2z" fill="url(#SVGID_15_)"/><path d="M16.5 17.5h1l.9.6.3-.3c-.6-.4-1.2-.7-2-.7 0 .4-.1.4-.2.4" fill="#7dcbec"/><path d="M18.5 18.4l.5.5c.1-.1.3-.2.4-.3-.2-.2-.4-.4-.6-.5-.1.2-.2.2-.3.3" fill="#5ec5ed"/><linearGradient id="SVGID_16_" gradientUnits="userSpaceOnUse" x1="-265.278" y1="541.539" x2="-265.169" y2="541.887" gradientTransform="matrix(32.4594 0 0 4.2491 8627.778 -2284.251)"><stop offset="0" stop-color="#97d6ee"/><stop offset=".703" stop-color="#55c1ea"/><stop offset="1" stop-color="#55c1ea"/></linearGradient><path d="M16.5 17.5h.3c.8 0 1.4.2 2 .6.6-.5 1.4-.7 2.4-.7h-5c.1.1.2.1.3.1" fill="url(#SVGID_16_)"/><linearGradient id="SVGID_17_" gradientUnits="userSpaceOnUse" x1="-264.32" y1="500" x2="-264.214" y2="499.83" gradientTransform="matrix(26.4722 0 0 7.484 7016.191 -3723.427)"><stop offset="0" stop-color="#7accec"/><stop offset="1" stop-color="#3fb7ed"/></linearGradient><path d="M21.2 17.5c-1 0-1.8.2-2.4.7.2.1.4.3.6.5.9-.5 1.7-.9 2.5-1.1.3-.1.6-.1 1-.1h-1.7z" fill="url(#SVGID_17_)"/><linearGradient id="SVGID_18_" gradientUnits="userSpaceOnUse" x1="-269.269" y1="440.757" x2="-269.269" y2="440.57" gradientTransform="matrix(52.0449 0 0 -80.6355 14048.704 35558.715)"><stop offset="0" stop-color="#1da7e7"/><stop offset="1" stop-color="#37abe7" stop-opacity="0"/></linearGradient><path d="M33.4 26.3c.4-1.4 1-3 1.6-5.1.6-1.8 1.6-3.2 3.5-3.8.1-.1.1-.2.1-.3-3.1.2-4.5 1.8-5.3 4.1-1.3 4.1-2 6.7-2.8 8.4 1.1-.9 2-2 2.9-3.3" fill="url(#SVGID_18_)"/></svg>