<svg data-name="Layer 1" xmlns="http://www.w3.org/2000/svg" viewBox="0 0 50 50"><defs><clipPath id="b"><path fill="none" d="M1 7.856h48v34.759H1z"/></clipPath><clipPath id="g"><path d="M39.778 25.353a.08.08 0 00-.106-.05 1.883 1.883 0 01-.382.11 2.852 2.852 0 01-.45.032 1.253 1.253 0 01-.94-.352 1.572 1.572 0 01-.352-1.124 1.736 1.736 0 01.314-1.082 1.075 1.075 0 01.912-.402 2.787 2.787 0 01.87.124s.064.028.094-.056c.074-.2.126-.342.202-.562a.073.073 0 00-.05-.096 3.312 3.312 0 00-.548-.14 4.331 4.331 0 00-.618-.04 2.251 2.251 0 00-.914.176 1.886 1.886 0 00-.664.48 1.993 1.993 0 00-.398.714 2.795 2.795 0 00-.134.884 2.357 2.357 0 00.546 1.636 2.075 2.075 0 001.622.61 3.35 3.35 0 001.164-.206.076.076 0 00.034-.098z" fill="none" clip-rule="evenodd"/></clipPath><clipPath id="c"><path d="M20.974 11.865a8.413 8.413 0 016.086-2.614 8.5 8.5 0 017.406 4.39 10.232 10.232 0 014.186-.89 10.44 10.44 0 11-2.04 20.676A7.565 7.565 0 0126.7 36.54a8.629 8.629 0 01-16.042-.39A8.008 8.008 0 011 28.225a8.105 8.105 0 014.006-7.012 9.322 9.322 0 0115.968-9.348" fill="none" clip-rule="evenodd"/></clipPath><clipPath id="d"><path d="M7.952 25.624c-.03.08.01.096.02.108a2.634 2.634 0 00.274.166 2.924 2.924 0 001.436.336c.984 0 1.596-.524 1.596-1.366v-.018c0-.778-.69-1.062-1.338-1.266l-.084-.028c-.488-.158-.91-.296-.91-.616v-.018c0-.274.246-.476.628-.476a2.83 2.83 0 011.252.32s.096.06.13-.032l.2-.538a.094.094 0 00-.048-.112 2.803 2.803 0 00-1.41-.378H9.6a1.378 1.378 0 00-1.532 1.326v.016c0 .822.694 1.088 1.344 1.274l.106.032c.474.146.882.272.882.604v.018c0 .304-.266.532-.694.532a2.328 2.328 0 01-1.268-.366c-.07-.04-.108-.068-.162-.102a.079.079 0 00-.13.046z" fill="none" clip-rule="evenodd"/></clipPath><clipPath id="e"><path d="M22.366 25.624c-.03.08.01.096.02.108a2.633 2.633 0 00.274.166 2.924 2.924 0 001.436.336c.984 0 1.596-.524 1.596-1.366v-.018c0-.778-.69-1.062-1.338-1.266l-.084-.028c-.488-.158-.91-.296-.91-.616v-.018c0-.274.246-.476.628-.476a2.83 2.83 0 011.252.32s.096.06.13-.032l.2-.538a.094.094 0 00-.048-.112 2.797 2.797 0 00-1.41-.378h-.098a1.378 1.378 0 00-1.532 1.326v.016c0 .822.696 1.088 1.344 1.274l.106.032c.474.146.882.272.882.604v.018c0 .304-.266.532-.694.532a2.328 2.328 0 01-1.268-.366c-.07-.04-.11-.068-.162-.102a.085.085 0 00-.13.046z" fill="none" clip-rule="evenodd"/></clipPath><clipPath id="f"><path d="M33.028 23.088a1.98 1.98 0 00-.374-.714 1.8 1.8 0 00-.632-.478 2.27 2.27 0 00-1.762 0 1.775 1.775 0 00-.63.48 1.956 1.956 0 00-.374.712 3.264 3.264 0 000 1.768 1.98 1.98 0 00.374.714 1.755 1.755 0 00.632.476 2.337 2.337 0 001.76 0 1.772 1.772 0 00.632-.476 1.98 1.98 0 00.374-.714 3.264 3.264 0 000-1.768m-.822.884a2.023 2.023 0 01-.264 1.118.886.886 0 01-.8.39.873.873 0 01-.796-.39 2.534 2.534 0 01-.002-2.232 1.02 1.02 0 011.598 0 2.004 2.004 0 01.264 1.114" fill="none" clip-rule="evenodd"/></clipPath><clipPath id="a"><path fill="none" d="M1 8.201h48v33.597H1z"/></clipPath><clipPath id="h"><path d="M43.982 22.934a1.727 1.727 0 00-.354-.65 1.646 1.646 0 00-.53-.404 2.045 2.045 0 00-.796-.16 2.173 2.173 0 00-.918.178 1.845 1.845 0 00-.642.488 2.053 2.053 0 00-.376.722 3.104 3.104 0 00-.122.888 2.968 2.968 0 00.126.888 1.837 1.837 0 00.402.708 1.858 1.858 0 00.7.464 2.779 2.779 0 001.01.162 2.881 2.881 0 001.402-.278c.032-.016.06-.046.024-.132l-.182-.51a.081.081 0 00-.106-.048 2.689 2.689 0 01-1.142.206 1.318 1.318 0 01-.95-.328 1.304 1.304 0 01-.324-.924l2.78.002a.085.085 0 00.082-.074 2.978 2.978 0 00-.084-1.198zm-2.766.582a1.617 1.617 0 01.226-.656.884.884 0 01.794-.404.864.864 0 01.78.404 1.383 1.383 0 01.184.656z" fill="none" clip-rule="evenodd"/></clipPath><clipPath id="i"><path d="M21.7 22.934a1.727 1.727 0 00-.354-.65 1.625 1.625 0 00-.53-.404 2.045 2.045 0 00-.796-.16 2.173 2.173 0 00-.918.178 1.845 1.845 0 00-.642.488 2.054 2.054 0 00-.376.722 3.104 3.104 0 00-.122.888 2.968 2.968 0 00.126.888 1.837 1.837 0 00.402.708 1.858 1.858 0 00.7.464 2.779 2.779 0 001.01.162 2.881 2.881 0 001.402-.278c.032-.016.06-.046.024-.132l-.182-.51a.081.081 0 00-.106-.048 2.689 2.689 0 01-1.142.206 1.318 1.318 0 01-.95-.328 1.304 1.304 0 01-.324-.924l2.78.002a.085.085 0 00.082-.074 2.977 2.977 0 00-.084-1.198zm-2.766.582a1.647 1.647 0 01.224-.656.89.89 0 01.796-.404.864.864 0 01.78.404 1.383 1.383 0 01.184.656z" fill="none" clip-rule="evenodd"/></clipPath><clipPath id="j"><path d="M14.026 23.384a5.131 5.131 0 00-.432-.014 2.643 2.643 0 00-.686.088 1.831 1.831 0 00-.582.27 1.305 1.305 0 00-.552 1.1 1.428 1.428 0 00.128.634 1.13 1.13 0 00.362.436 1.517 1.517 0 00.568.246 3.316 3.316 0 00.736.076 4.946 4.946 0 00.846-.072c.272-.046.606-.114.7-.136.092-.02.194-.048.194-.048a.088.088 0 00.064-.092l-.002-2.544a1.56 1.56 0 00-.44-1.228 1.897 1.897 0 00-1.28-.386 4.595 4.595 0 00-.744.07 2.682 2.682 0 00-.858.314.088.088 0 00-.026.11l.198.53a.07.07 0 00.092.044.335.335 0 00.046-.024 2.838 2.838 0 011.212-.282 1.127 1.127 0 01.686.18c.152.118.23.292.23.664v.118a7.782 7.782 0 00-.46-.054m-1.106 1.954a.502.502 0 01-.16-.166.652.652 0 01-.084-.36.613.613 0 01.248-.54 1.246 1.246 0 01.808-.2 5.445 5.445 0 01.754.064V25.4a5.601 5.601 0 01-.75.1 1.252 1.252 0 01-.816-.162" fill="none" clip-rule="evenodd"/></clipPath><clipPath id="k"><path d="M36.467 21.949a.075.075 0 00-.042-.1 2.467 2.467 0 00-.466-.08 1.379 1.379 0 00-.718.116 1.269 1.269 0 00-.47.346v-.338a.081.081 0 00-.08-.084h-.712a.08.08 0 00-.08.084v4.15a.083.083 0 00.084.084h.73a.083.083 0 00.084-.084v-2.074a2.407 2.407 0 01.094-.73 1.048 1.048 0 01.242-.408.856.856 0 01.344-.208 1.34 1.34 0 01.374-.052 1.515 1.515 0 01.304.038c.056.006.084-.028.104-.076.046-.126.182-.508.208-.584" fill="none" clip-rule="evenodd"/></clipPath><clipPath id="l"><path d="M29.606 20.026a1.937 1.937 0 00-.276-.064 2.081 2.081 0 00-.378-.03 1.599 1.599 0 00-1.178.422 2.307 2.307 0 00-.558 1.262l-.034.188h-.632a.095.095 0 00-.094.082l-.102.578c-.008.056.016.09.09.09h.614l-.624 3.482a4.322 4.322 0 01-.166.686 1.375 1.375 0 01-.194.396.517.517 0 01-.254.196 1.049 1.049 0 01-.328.046 1.218 1.218 0 01-.224-.024.662.662 0 01-.15-.048.076.076 0 00-.1.044l-.206.566a.081.081 0 00.042.11 2.345 2.345 0 00.254.076 1.71 1.71 0 00.408.038 2.039 2.039 0 00.684-.106 1.297 1.297 0 00.514-.358 1.834 1.834 0 00.36-.624 5.164 5.164 0 00.246-.934l.626-3.546h.916a.095.095 0 00.094-.082l.104-.578c.006-.054-.016-.09-.092-.09h-.888a3.686 3.686 0 01.146-.626.814.814 0 01.196-.298.608.608 0 01.232-.146.984.984 0 01.298-.042 1.113 1.113 0 01.23.024c.086.018.12.028.142.034.09.028.102.002.12-.042l.212-.584a.074.074 0 00-.05-.098" fill="none" clip-rule="evenodd"/></clipPath><clipPath id="m"><path d="M17.177 26.043a.081.081 0 01-.08.084h-.738a.081.081 0 01-.08-.084v-5.938a.081.081 0 01.08-.084h.738a.081.081 0 01.08.084z" fill="none" clip-rule="evenodd"/></clipPath></defs><g clip-path="url(#a)"><g clip-path="url(#b)"><g clip-path="url(#c)"><g clip-path="url(#b)"><path fill="#009cdb" d="M-7.276-.075h64.552v50.15H-7.276z"/></g></g></g></g><g clip-path="url(#d)"><path fill="#fff" d="M-.335 13.43h19.889v21.08H-.335z"/></g><g clip-path="url(#e)"><path fill="#fff" d="M14.079 13.43h19.889v21.08H14.079z"/></g><g clip-path="url(#f)"><path fill="#fff" d="M20.859 13.442h20.568v21.052H20.859z"/></g><g clip-path="url(#g)"><path fill="#fff" d="M28.338 13.439h19.924v21.052H28.338z"/></g><g clip-path="url(#h)"><path fill="#fff" d="M31.968 13.444h20.4v21.05h-20.4z"/></g><g clip-path="url(#i)"><path fill="#fff" d="M9.686 13.444h20.4v21.05h-20.4z"/></g><g clip-path="url(#j)"><path fill="#fff" d="M3.498 13.438h20.15v21.058H3.498z"/></g><g clip-path="url(#k)"><path fill="#fff" d="M25.623 13.488h19.126v20.914H25.623z"/></g><g clip-path="url(#l)"><path fill="#fff" d="M16.529 11.656h21.408v24.742H16.529z"/></g><g clip-path="url(#m)"><path fill="#fff" d="M8.003 11.745h17.45v22.658H8.003z"/></g></svg>