<svg version="1.1" id="Layer_1" xmlns="http://www.w3.org/2000/svg" x="0" y="0" viewBox="0 0 50 50" xml:space="preserve"><style>.st0{fill:#414042}</style><g id="EpWcXD.tif"><path class="st0" d="M45.6 28.1c0 .1-.1.2-.1.3-.3 1.1-1 1.8-2.1 2-1.2.3-2.3.2-3.3-.5-.7-.5-1.1-1.3-1.3-2.2-.2-1.2-.1-2.3.5-3.3s1.5-1.5 2.7-1.6c.6 0 1.2 0 1.8.3.9.4 1.5 1.1 1.7 2.1v.3h-1.8c-.1 0-.2 0-.2-.2-.1-.3-.3-.6-.7-.7-.7-.2-1.3 0-1.7.6-.2.4-.3.8-.4 1.3 0 .6 0 1.2.4 1.7.3.5.8.7 1.4.6.5-.1.9-.4 1-.9h2c.1.1.1.1.1.2z"/><path d="M12.9 25.1c.5.3.9.6 1.4.8.3.2.5.3.7.5.7.6.7 1.7-.1 2.2-.5.3-1 .6-1.4.9-2.1 1.3-4.3 2.5-6.4 3.8-.4.2-.8.3-1.2.2-.6-.1-1.1-.7-1.1-1.3 0-.9-.1-1.9 0-2.8.1-1 .6-1.8 1.4-2.3l3-1.8c.1-.1.2-.1.3-.2.1 0 .1-.1 0-.1-1-.6-2.1-1.2-3.1-1.8-1-.6-1.5-1.5-1.5-2.7v-2.4c0-.7.4-1.3 1-1.4.4-.1.9 0 1.2.2 1.2.7 2.3 1.4 3.5 2.1 1.4.8 2.7 1.6 4.1 2.4.4.2.7.6.8 1.1.1.7-.2 1.2-.8 1.6-.5.3-1.1.7-1.6 1 0-.1-.1 0-.2 0zm.8 2.5c0-.1 0-.1 0 0-.8-.5-1.6-1-2.3-1.4h-.2c-1.4.8-2.7 1.6-4.1 2.4-.4.2-.6.6-.6 1v2.2c2.5-1.4 4.8-2.8 7.2-4.2zm-7.2-9.2v2.2c0 .5.2.9.7 1.2 1.3.8 2.6 1.6 4 2.4.1.1.2.1.3 0 .7-.4 1.4-.8 2.1-1.3.1 0 .1-.1.2-.1-2.5-1.5-4.8-2.9-7.3-4.4z" fill="#ff4f00"/><path class="st0" d="M33.7 30.4h-2.1V26c0-.2 0-.4-.1-.6-.2-.9-1.1-1-1.6-.6-.4.2-.6.6-.6 1v4.6h-2V23h2v.6c1-1.1 2.9-1 3.9.2l.2-.2c.8-.7 1.8-.9 2.8-.6.9.2 1.5 1 1.6 2.1v5.5h-2.1v-4.9c-.1-.4-.3-.7-.8-.8-.5-.1-.9 0-1.2.4-.2.2-.2.4-.2.7v4.3c.2-.1.2 0 .2.1zm-12.5-.5v.6h-2.1V19.7h2v3.9h.1c1.2-1.2 3.6-.9 4.6.8.5.8.6 1.7.6 2.7 0 .7-.2 1.5-.7 2.1-.9 1.4-2.7 1.8-4.1 1 0-.1-.2-.2-.4-.3zm0-3.2v1.1c0 .1 0 .2.1.3.5.8 1.7.9 2.5.3.8-.8.9-2.4.1-3.3-.7-.7-2-.6-2.5.2-.1.1-.1.2-.1.4-.1.3-.1.7-.1 1z"/></g></svg>