<svg xmlns="http://www.w3.org/2000/svg" xmlns:xlink="http://www.w3.org/1999/xlink" viewBox="0 0 50 50"><style>.st4{fill:#f4f5f5}.st5{fill:#2a2829}</style><g id="Layer_1"><path d="M35.2 3.3s-.1-.1 0 0c-.1-.1 0 0 0 0z" fill="#d7d8d9"/><path d="M10.6 25.7c-.6-7.9 27.2-8.7 27.2-2s-21.1 11.4-27.2 2z" fill="#bde6fa"/><path d="M15.3 20.6c.2-.6 14.9-4.3 17 .7 2.8 10.4-19.1 14.7-17-.7z" fill="#d1edfa"/><path d="M17 20.6c.2-.5 12-3.6 13.8.6 2.2 8.7-15.5 12.4-13.8-.6z" fill="#3889b1"/><path class="st4" d="M24.6 22l.6-2.1V22l1.2-1.8-.6 2.1 1.6-1.4-1.1 1.8 1.9-.9-1.6 1.4 2.1-.2-1.9.8 2.1.4-2.2.3 1.9 1-2.1-.5 1.5 1.6-1.8-1.1.9 1.9-1.5-1.5.4 2.1-.9-1.9-.3 2.1-.4-2.1-.8 2 .2-2.1-1.4 1.6.9-2-1.8 1.2 1.4-1.6-2.1.5 1.9-1.1-2.2-.1 2.1-.5-2-.8 2.1.1-1.7-1.2 2 .7-1.3-1.7 1.7 1.3-.7-2.1 1.3 1.8-.1-2.2z"/><path class="st4" d="M21.1 28.8s-2.3-2.9-1.6-5.8c.4-1.7 1.6-3.1 3.7-4.1l.1.2c-2.1 1-3.3 2.3-3.7 4-.6 2.8 1.6 5.6 1.6 5.7h-.1z"/><image width="41" height="36" xlink:href="D18129167B7F7EEB.png" transform="translate(44.856 45.656)" overflow="visible" opacity=".75"/><path class="st4" d="M29.7 25.9s-1.8-1-3.1-1.1c-1.3-.1-4.2 0-4.2 0-2.6-1-3.4-3-3.8-4.9h.2c.4 1.8 1.2 3.7 3.7 4.7.2 0 2.9-.1 4.2 0 1.4.1 3.1 1.1 3.2 1.2l-.2.1zm-2.6-2.4l-.1-.2c1.6-.8 2.5-2.1 2.4-3.8h.2c.2 1.8-.7 3.2-2.5 4z"/><circle class="st4" cx="19.6" cy="26" r="1"/><circle class="st4" cx="21" cy="20.5" r=".8"/><circle class="st4" cx="29.1" cy="21.6" r=".8"/><path class="st5" d="M4.6 27.5c15-10.8 24.3-9.9 34.8-4.5 0 0 4.3-.3 6.4-3.5-1.9 1.8-3.4 2.1-3.8 2-.3 0 2.5-3 2.4-3.3-1.1 1.3-4 2.8-4.5 2.7-1.1-.1 2.5-3.8 2.2-4.1-.8 1.1-3.3 3.6-3.8 3.6 1.4-1.8 2-3.5 2-3.5-1 1.3-2 2.4-3.2 3-.1-.1 1.1-1.6 1.8-2.9 0 0-2.6 2.6-3.1 2.8-.7.3-.8-.1-.8-.1.7-.9 1.3-1.8 1.8-2.9-.8 1-1.7 1.7-2.5 2.5-.3-.1-.4-.1-.5-.5l.5-1s-1.1.8-1.4.7 1.4-2.2 1.4-2.2-2 2-2.3 2c-.8.2.3-1.9.3-1.9s-1.2 1.4-1.6 1.6c-.3.2-.5.1-1-.2l.8-1.5c-.7.9-1.6 1.3-2.7 1.3v-.8c-.4.4-.9.6-1.4.5-.4.1-.4-.3-.4-.7-.3.6-.9 1.3-1.2 1.3-.3-.1-.1-1.2-.1-1.2-.4.7-.7 1.3-1.1 1.2-.5 0-.4-.9-.4-.9s-.4.8-.4.9c0 .4-.8-.5-.8-.8 0 0-.3.8-.7 1.1-5.3 1-12.5 4.5-16.7 9.3z"/><path class="st5" d="M4.2 28.9c1.7.8 5.3.6 8.4.6.7-.3 5.2 1 6.4 1.4 16 1.1 19.6-7.6 19.6-7.6.8-.3 1.5-.2 2.3.7l-1 .1 1.6 1.3-1.5-.1 1.9 2-2-1.2c-.2.6-.1 1.1.5 1.4l-3.2-.9c-.4.6.2 1.3 1.1 1.9l-1.4-.3c.1 1 .9 2.2 2 3.5l-3.3-2.8.6 1.6-1.6-1.1c-.3.7.5 2.5 1.6 4.6l-3.5-3.9c-.5.7.3 3.3 1 5.7-.6-2.2-1.3-3.9-2.5-4.7l-1.3.3c-.1.8.1 1.7.6 2.5-.7-.8-1.3-1.9-2-2.4-.8.4.9 3.2 1 5.8-.7-2.3-1.6-3.9-2.8-5 .1 2.1-.1 3.1-.6 4.8.3-1.9.4-3.8-.2-4.9-.8-.4-1.2-.3-1.5 0l-.2 2.6s-.7-2.8-1.3-2.8c-.5.1-1.9 2.7-2.9 4.7l1.4-4.7c-.7.1-1.1.9-1.5 1.8.1-.7.2-1.4-.3-1.9-.9.8-1.6 1.3-2.3 1.7.6-.7 1-1.4.6-2-1.2-.6-2.2.2-3.2 1 .2-.7.5-1.4 0-1.8-1.2.3-2.2 1-3.2 1.9.7-.8 1.2-1.5.9-2.4 0 0-4.9.1-7-.2-.7-.4-1.2-1.2-1.2-1.2z"/></g></svg>