<svg xmlns="http://www.w3.org/2000/svg" viewBox="0 0 191.5 191.5"><style>.st2395{fill:#7f8789}</style><g id="Layer_1"><path class="st2395" d="M66.6 91.6v17.7c0 .5-.1.7-.6.9-3.5 1-7.1 1.8-10.7 1.8-2.6 0-5.1 0-7.6-.8-4-1.3-6.6-4-7.7-8.1-1-3.5-1-7-.2-10.5 1-4.6 3.9-7.4 8.4-8.4 3.7-.8 7.3-.8 10.8.6.5.2.5 0 .5-.4V74c0-.8 0-.8.8-.8H66c.5 0 .7.1.7.7-.1 5.9-.1 11.8-.1 17.7zm-7.2 6.6V92c0-.5-.2-.7-.6-.8-2.3-1-4.8-1.3-7.3-1.1-3 .3-4.6 1.9-5.1 4.7-.4 2-.3 4 .2 6 .6 2.5 2.2 4.2 4.8 4.7 2.5.4 5 .3 7.4-.4.4-.1.5-.3.5-.7.1-2.1.1-4.2.1-6.2zm-32.3 2.4h-8.6c-.5 0-.6.1-.5.6.1 2 1.4 3.6 3.6 4.3 1.6.6 3.2.7 4.9.8 2.9.1 5.8-.2 8.7-.7.5-.1.6.1.6.5v4.5c0 .4-.1.6-.6.7-2.2.4-4.5.6-6.7.6-2.6 0-5.1.1-7.7-.5-5.3-1.2-8.6-4.4-9.6-9.8-.6-3.3-.6-6.7.5-10 1.1-3.5 3.5-5.9 7-7 3.8-1.2 7.6-1.3 11.4-.1 3.2 1 5.2 3.3 6.1 6.4.7 2.4.7 5 .5 7.5-.1.6-.1 1.1-.2 1.7 0 .4-.2.5-.6.5h-8.8zm-3.3-5.2h4.1c1.9 0 1.9 0 1.6-2-.2-1.4-.7-2.6-2-3.2-2.3-1.2-4.7-1.2-7 0-1.8 1-2.4 2.8-2.6 4.7-.1.4 0 .5.5.5h5.4zm82.7 5.2c-.5 0-.6.2-.5.6.2 2.3 1.6 3.6 3.7 4.4 1.3.4 2.6.7 4 .7 3.2.1 6.4-.1 9.6-.7.4-.1.5 0 .5.4v4.7c0 .4-.1.5-.5.6-4.1.7-8.2.9-12.4.5-2.4-.2-4.7-.9-6.7-2.2-2.6-1.7-4.1-4.1-4.8-7.1-.7-3.2-.8-6.4 0-9.7 1-4.5 3.8-7.3 8.3-8.4 3.2-.8 6.5-.9 9.7 0 4.1 1.1 6.3 3.9 7.1 7.9.5 2.7.3 5.3 0 8-.1.4-.3.4-.6.4-2.9-.1-14.5-.1-17.4-.1zm9.9-5.2c1.3 0 1.3 0 1.3-1.3-.1-2.2-1.3-3.9-3.3-4.4-1-.3-2.1-.3-3.2-.3-1 .1-2 .4-2.9 1-1.5 1.1-2.1 2.8-2.3 4.6 0 .4.2.4.5.4h9.9zM166 83.5c3.2 0 6.3.4 9.3 1.3.4.1.5.3.5.7v4.8c0 .5-.2.5-.5.4-3.4-1.1-7-1.5-10.6-1.4-1.4.1-2.8.2-4 1.1-1.2 1-1.2 2.6.2 3.5.9.5 1.8.6 2.8.7 2.7.4 5.4.5 8 1.4 1.7.6 3.3 1.4 4.3 3 .7 1.1 1 2.2 1.1 3.5.1 1.5.1 3-.5 4.5-.8 2.2-2.5 3.5-4.5 4.3-2 .8-4.2 1.1-6.3 1.1-2.8.1-5.6 0-8.4-.6-.9-.2-1.7-.4-2.6-.6-.4-.1-.5-.3-.5-.6v-4.9c0-.4.1-.5.5-.4 3.2 1 6.5 1.5 9.9 1.4 1.2 0 2.4-.1 3.5-.5.6-.2 1.2-.5 1.6-1.1.8-1.2.5-2.5-.8-3.1-.9-.5-1.9-.5-2.9-.6-2.7-.4-5.4-.6-7.9-1.4-1.9-.7-3.6-1.7-4.5-3.6-.8-1.6-.9-3.4-.7-5.2.3-3.3 2.2-5.4 5.3-6.5 2.6-1 5.1-1.2 7.7-1.2zm-15.7 3.9v2.3c0 .4-.1.5-.5.4-2.4-.5-4.9-.8-7.4-.7-1.2 0-2.5.2-3.6.6-2.4.8-3.9 2.5-4.4 5-.4 2.2-.3 4.3.4 6.4.9 2.5 2.7 4 5.3 4.6 1.8.4 3.5.3 5.3.3 1.6-.1 3.1-.3 4.6-.6.3-.1.4 0 .4.3v4.9c0 .3-.1.4-.4.4-4.5.8-9 1.1-13.5 0-5-1.3-8.1-4.5-9.1-9.6-.6-2.9-.6-5.8.1-8.8 1.1-4.5 4.1-7.2 8.5-8.4 3-.8 6.1-.9 9.2-.7 1.6.1 3.1.3 4.7.6.4.1.6.2.5.6-.1.8-.1 1.6-.1 2.4zm-67.4 13.5V91c0-.4.1-.6.6-.6h6c.4 0 .5.1.5.5v20c0 .4-.1.5-.5.5h-6c-.4 0-.6-.1-.6-.6v-9.9zM86.4 84h-3.1c-.3 0-.4 0-.4-.4 0-1.9 0-3.8.5-5.6.8-3.1 2.9-4.9 6-5.5 2.7-.6 5.5-.5 8.2 0 .3 0 .4.2.4.4v4.8c0 .4-.2.4-.4.3-1.3-.2-2.6-.3-3.9-.2-2.1.1-3.3 1.2-3.6 3.3-.1.8-.2 1.6-.2 2.5 0 .4-.1.5-.5.4h-3zm7.4 6.5h-3.4c-.3 0-.4-.1-.4-.4v-5.6c0-.3.1-.5.5-.5h6.8c.4 0 .5.1.5.5V90c0 .4-.1.5-.5.5h-3.5z"/><path d="M77.7 77.3c.4 0 .6.1.6.6v5.5c0 .7 0 .7-.7.7h-5.7c-.7 0-.8 0-.8-.7v-5.5c0-.4.1-.5.5-.5 1.1-.1 5.1-.1 6.1-.1z" fill="#f09320"/><path class="st2395" d="M176.9 87.8c0-1.4 1.1-2.4 2.5-2.4s2.5 1.1 2.5 2.4c0 1.4-1.1 2.5-2.5 2.5-1.4-.1-2.5-1.2-2.5-2.5zm.2 0c0 1.2 1.1 2.2 2.3 2.2 1.2 0 2.3-1.1 2.2-2.3 0-1.1-1.1-2.2-2.3-2.2-1.1 0-2.2 1.1-2.2 2.3z"/><text transform="matrix(1.0597 0 0 1 178.043 89.093)" class="st2395" font-size="3.878" font-family="OpenSans-Light">R</text></g></svg>