<svg data-name="Layer 1" xmlns="http://www.w3.org/2000/svg" viewBox="0 0 50 50"><defs><clipPath id="a"><path d="M24.376 6.477a17.617 17.617 0 0116.76 10.469 1.11 1.11 0 01.13.718.989.989 0 01-1.89.182 15.622 15.622 0 00-10.8-9.057 16.93 16.93 0 00-7.15-.002 15.177 15.177 0 00-8.566 5.354 14.242 14.242 0 00-2.242 3.708.986.986 0 01-1.84-.707A17.616 17.616 0 0124.376 6.477" fill="none" clip-rule="evenodd"/></clipPath><clipPath id="b"><path d="M40.287 19.439a1.948 1.948 0 01-1.814-1.251 14.693 14.693 0 00-5.327-6.384 14.486 14.486 0 00-4.788-2.075 16.012 16.012 0 00-6.743.004 14.296 14.296 0 00-8.023 5.038 13.298 13.298 0 00-2.087 3.457 1.935 1.935 0 01-1.468 1.179 1.74 1.74 0 01-.335.03 1.952 1.952 0 01-1.822-2.648A18.643 18.643 0 0131.218 6.563a18.76 18.76 0 018.426 6.045 18.539 18.539 0 012.373 3.945 2.06 2.06 0 01.19 1.324 1.943 1.943 0 01-1.696 1.547 1.677 1.677 0 01-.224.014m-25.134-8.802a16.73 16.73 0 00-5.48 6.871l.057-.039a15.279 15.279 0 012.398-3.955 19.701 19.701 0 013.025-2.877m19.986.224a16.666 16.666 0 015.125 6.608l.014.025.032-.032c-.01-.018-.023-.053-.046-.104a16.594 16.594 0 00-5.125-6.497M24.994 7.431c-.194 0-.39.004-.585.01a16.6 16.6 0 00-2.592.292 19 19 0 014.426-.256q-.619-.045-1.249-.046" fill="none" clip-rule="evenodd"/></clipPath><clipPath id="c"><path fill="none" d="M8.302 22.094h33.396V44.5H8.302z"/></clipPath><clipPath id="d"><path fill="none" d="M7.751 21.377h35.28v24.696H7.751z"/></clipPath><clipPath id="e"><path d="M8.302 22.58a1.018 1.018 0 01.797-.472c1.015-.008 2.03-.031 3.043.014a1.054 1.054 0 01.946.946c.995 4.054 1.974 8.113 2.967 12.168.29 1.253.645 2.493.834 3.766.196 1.143.235 2.306.422 3.452a43.549 43.549 0 01.926-4.882l3.893-14.516a1.196 1.196 0 011.171-.944c1.13-.028 2.26-.009 3.389-.009a1.347 1.347 0 011.399.946c.97 3.528 1.926 7.063 2.891 10.592a63.423 63.423 0 011.685 6.882c.093.647.181 1.295.315 1.937a96.451 96.451 0 012.093-10.884c.643-2.872 1.273-5.747 1.924-8.62a1.164 1.164 0 011.244-.85c.914-.005 1.827-.031 2.74.015a.794.794 0 01.66 1.097q-2.748 10.137-5.489 20.275a1.18 1.18 0 01-1.122.974c-1.414.046-2.833.01-4.246.02a1.023 1.023 0 01-1.132-.775c-1.267-4.648-2.507-9.301-3.763-13.953a31.603 31.603 0 01-.827-4.957 41.223 41.223 0 01-.745 4.442q-1.923 7.184-3.861 14.368c-.145.776-1.032.93-1.692.88-1.316-.025-2.63.03-3.944-.025a.952.952 0 01-.914-.806q-2.77-10.095-5.533-20.193a5.18 5.18 0 01-.071-.889" fill="none" clip-rule="evenodd"/></clipPath></defs><g clip-path="url(#a)"><path fill="#f69f1a" d="M-.105-2.354h50.209v29.646H-.105z"/></g><g clip-path="url(#b)"><path fill="#f69f1a" d="M-1.069-3.32H51.07v31.579H-1.069z"/></g><g clip-path="url(#c)"><g clip-path="url(#d)"><g clip-path="url(#e)"><g clip-path="url(#d)"><path fill="#0067ab" d="M-.518 13.274h51.036V53.32H-.518z"/></g></g></g></g></svg>