<svg width="58" height="58" viewBox="-3 -3 64 64" fill="none" xmlns="http://www.w3.org/2000/svg"><path d="M29 58c16.016 0 29-12.984 29-29S45.016 0 29 0 0 12.984 0 29s12.984 29 29 29z" fill="#5F67FA"/><path d="M36.041 21.5a8.59 8.59 0 00-.78 1.243c-.93 1.795-1.46 4.147-1.46 6.516 0 2.367.521 4.712 1.431 6.5.221.435.476.855.764 1.241H16.274c-.978 0-2.025-.672-2.882-2.116-.844-1.423-1.392-3.44-1.392-5.68 0-2.141.497-4.143 1.289-5.575.807-1.461 1.787-2.125 2.702-2.129h20.05zm5.354 14.579c-.773 0-1.653-.54-2.395-1.8-.728-1.238-1.21-3.014-1.21-5.029s.482-3.79 1.21-5.029c.742-1.26 1.622-1.8 2.395-1.8.772 0 1.652.54 2.394 1.8C44.517 25.46 45 27.235 45 29.25s-.483 3.791-1.21 5.029c-.743 1.26-1.623 1.8-2.395 1.8z" stroke="#fff" stroke-width="2" stroke-linejoin="round"/><circle cx="27.118" cy="29.25" r="2.303" fill="#fff"/><circle cx="20.671" cy="29.25" r="2.303" fill="#fff"/></svg>