<svg xmlns="http://www.w3.org/2000/svg" viewBox="0 0 286 286"><style/><g id="Layer_1"><path d="M141.7 160.1h124.7c.6 0 1.3.2 1.4-.8 0-1.2-.7-1.1-1.5-1.1H17c-.7 0-1.5-.2-1.5 1 0 1 .7.9 1.3.9h124.9z" fill="#fff"/><path d="M141.7 160.1H16.8c-.7 0-1.3.1-1.3-.9 0-1.2.8-1 1.5-1h249.3c.8 0 1.5-.1 1.5 1.1 0 1.1-.7.8-1.4.8H141.7z" fill="#0d0d0d"/><path d="M55.5 176.4c1.3 0 2.4.2 3.4.6.9.4 1.7.9 2.3 1.5.6.6 1 1.4 1.3 2.2.3.8.4 1.7.4 2.5 0 .9-.1 1.7-.4 2.5-.3.8-.7 1.5-1.3 2.2-.6.6-1.3 1.1-2.3 1.5-.9.4-2.1.6-3.4.6h-4.9v7.6H46v-21.2h9.5zm-1.2 10c.5 0 1.1 0 1.5-.1.5-.1.9-.2 1.3-.5.4-.2.7-.5.9-1s.3-1 .3-1.6c0-.7-.1-1.2-.3-1.6s-.5-.7-.9-1c-.4-.2-.8-.4-1.3-.5-.5-.1-1-.1-1.5-.1h-3.6v6.4h3.6zm26.4-10v3.9H69.5v4.5h10.3v3.6H69.5v5.2H81v3.9H64.9v-21.2h15.8zm2.6 6.3c.5-1.4 1.2-2.5 2-3.6.9-1 2-1.8 3.3-2.4 1.3-.6 2.8-.9 4.4-.9 1.6 0 3.1.3 4.4.9 1.3.6 2.4 1.4 3.3 2.4.9 1 1.6 2.2 2.1 3.6s.7 2.8.7 4.4c0 1.5-.2 3-.7 4.3-.5 1.3-1.2 2.5-2.1 3.5-.9 1-2 1.8-3.3 2.3-1.3.6-2.7.8-4.4.8-1.6 0-3.1-.3-4.4-.8-1.3-.6-2.4-1.3-3.3-2.3-.9-1-1.6-2.2-2-3.5-.5-1.3-.7-2.8-.7-4.3 0-1.6.2-3 .7-4.4zm4.2 7c.2.8.5 1.6 1 2.3.5.7 1 1.2 1.8 1.6.7.4 1.6.6 2.7.6 1 0 1.9-.2 2.7-.6.7-.4 1.3-1 1.8-1.6.5-.7.8-1.4 1-2.3.2-.8.3-1.7.3-2.6 0-.9-.1-1.8-.3-2.7-.2-.9-.5-1.6-1-2.3-.5-.7-1-1.2-1.8-1.6-.7-.4-1.6-.6-2.7-.6s-1.9.2-2.7.6c-.7.4-1.3 1-1.8 1.6-.5.7-.8 1.5-1 2.3-.2.9-.3 1.8-.3 2.7 0 .9.1 1.8.3 2.6zm28.6-13.3c1.3 0 2.4.2 3.4.6.9.4 1.7.9 2.3 1.5.6.6 1 1.4 1.3 2.2.3.8.4 1.7.4 2.5 0 .9-.1 1.7-.4 2.5-.3.8-.7 1.5-1.3 2.2-.6.6-1.3 1.1-2.3 1.5-.9.4-2.1.6-3.4.6h-4.9v7.6h-4.7v-21.2h9.6zm-1.2 10c.5 0 1.1 0 1.5-.1.5-.1.9-.2 1.3-.5.4-.2.7-.5.9-1 .2-.4.3-1 .3-1.6 0-.7-.1-1.2-.3-1.6-.2-.4-.5-.7-.9-1-.4-.2-.8-.4-1.3-.5-.5-.1-1-.1-1.5-.1h-3.6v6.4h3.6zm16.2-10v17.3h10.3v3.9h-15v-21.2h4.7zm28.6 0v3.9h-11.2v4.5h10.3v3.6h-10.3v5.2h11.4v3.9h-16.1v-21.2h15.9zm6.4 16c.3.5.6.9 1 1.2.4.3.9.5 1.5.7.6.1 1.2.2 1.8.2.4 0 .9 0 1.3-.1.5-.1.9-.2 1.3-.4s.8-.5 1-.8c.3-.4.4-.8.4-1.3 0-.6-.2-1-.6-1.4-.4-.4-.8-.7-1.4-.9-.6-.2-1.3-.4-2-.6-.7-.2-1.5-.4-2.3-.6-.8-.2-1.6-.4-2.3-.7-.7-.3-1.4-.7-2-1.1-.6-.5-1.1-1-1.4-1.7-.4-.7-.5-1.5-.5-2.5 0-1.1.2-2 .7-2.8.5-.8 1.1-1.5 1.8-2 .8-.5 1.6-.9 2.6-1.2 1-.2 1.9-.4 2.9-.4 1.1 0 2.2.1 3.2.4 1 .2 1.9.7 2.7 1.2.8.6 1.4 1.3 1.9 2.1.5.9.7 1.9.7 3.1h-4.5c0-.6-.2-1.2-.4-1.6-.2-.4-.5-.7-.9-1-.4-.2-.8-.4-1.3-.5-.5-.1-1-.1-1.6-.1-.4 0-.7 0-1.1.1-.4.1-.7.2-1 .4-.3.2-.6.4-.7.7-.2.3-.3.7-.3 1.1 0 .4.1.7.2 1 .2.3.5.5.9.7.5.2 1.1.4 1.9.7.8.2 1.9.5 3.2.8.4.1.9.2 1.6.4.7.2 1.4.5 2.1 1 .7.5 1.3 1.1 1.8 1.8.5.8.7 1.7.7 2.9 0 1-.2 1.9-.6 2.7-.4.8-.9 1.5-1.7 2.2-.7.6-1.7 1.1-2.8 1.4-1.1.3-2.4.5-3.8.5-1.2 0-2.3-.1-3.4-.4-1.1-.3-2.1-.7-2.9-1.4-.8-.6-1.5-1.4-2-2.3s-.7-2.1-.7-3.4h4.5c.1.8.3 1.4.5 1.9zm16.5-9.7c.5-1.4 1.2-2.5 2-3.6.9-1 2-1.8 3.3-2.4 1.3-.6 2.8-.9 4.4-.9 1.6 0 3.1.3 4.4.9 1.3.6 2.4 1.4 3.3 2.4.9 1 1.6 2.2 2.1 3.6s.7 2.8.7 4.4c0 1.5-.2 3-.7 4.3-.5 1.3-1.2 2.5-2.1 3.5-.9 1-2 1.8-3.3 2.3-1.3.6-2.7.8-4.4.8-1.6 0-3.1-.3-4.4-.8-1.3-.6-2.4-1.3-3.3-2.3-.9-1-1.6-2.2-2-3.5-.5-1.3-.7-2.8-.7-4.3 0-1.6.2-3 .7-4.4zm4.2 7c.2.8.5 1.6 1 2.3.5.7 1 1.2 1.8 1.6.7.4 1.6.6 2.7.6 1 0 1.9-.2 2.7-.6.7-.4 1.3-1 1.8-1.6.5-.7.8-1.4 1-2.3.2-.8.3-1.7.3-2.6 0-.9-.1-1.8-.3-2.7-.2-.9-.5-1.6-1-2.3-.5-.7-1-1.2-1.8-1.6-.7-.4-1.6-.6-2.7-.6s-1.9.2-2.7.6c-.7.4-1.3 1-1.8 1.6-.5.7-.8 1.5-1 2.3-.2.9-.3 1.8-.3 2.7 0 .9.1 1.8.3 2.6zm34.6-13.3v3.9h-10.2v4.9h8.9v3.6h-8.9v8.8h-4.7v-21.2h14.9zm2.2 4v-3.9H241v3.9h-6.4v17.3h-4.7v-17.3h-6.3z"/><path d="M273.9 113c1.7 0 3.1-1.4 3.1-3s-1.4-3-3.1-3c-1.7 0-3.1 1.4-3.1 3s1.4 3 3.1 3m-2.3-3.1c0-1.4 1.1-2.4 2.3-2.4 1.4 0 2.5 1 2.5 2.4 0 1.3-1.1 2.4-2.5 2.4-1.2 0-2.3-1.1-2.3-2.4m2.3-.2c.2 0 .5 0 .6-.3v-.3c0-.3-.1-.4-.3-.5h-.8v1h.5zm-.3-1.5h.9c.6.3.6.8.6 1v.3c0 .1-.1.4-.5.6h-.2l.9 1.5h-.8l-.8-1.4h-.5v1.4h-.6v-3.4h1z" fill="#e8372f"/><path d="M124.2 130.6h16.7l-8.8-14.2L116 142h-7.4l19.6-30.7c.8-1.3 2.3-1.9 3.9-1.9 1.5 0 2.9.6 3.9 1.9l19.6 30.7h-7.4l-3.4-5.7h-16.9l-3.7-5.7zm76.3 5.7v-26.7h-6.3V139c0 .8.5 1.5.9 2.1.6.6 1.6.9 2.3.9h28.5l3.7-5.7h-29.1zm-103.1-4.8c6 0 11-4.8 11-10.9 0-6.1-4.9-11-11-11H70.2V142h6.2v-26.7H97c2.9 0 5.3 2.4 5.3 5.3s-2.3 5.2-5.3 5.2H79.5L98 142h9l-12.5-10.5h2.9zM31.8 142c-9 0-16.2-7.2-16.2-16.2s7.3-16.2 16.2-16.2h18.7c9 0 16.2 7.2 16.2 16.2S59.4 142 50.5 142H31.8zm18.4-5.7c5.7 0 10.5-4.7 10.5-10.5s-4.8-10.5-10.5-10.5H32.1c-5.7 0-10.5 4.7-10.5 10.5s4.8 10.5 10.5 10.5h18.1zm118.3 5.7c-9 0-16.2-7.2-16.2-16.2s7.3-16.2 16.2-16.2H191l-3.7 5.7H169c-5.9 0-10.5 4.7-10.5 10.5s4.6 10.5 10.5 10.5h22.4l-3.7 5.7h-19.2zm76.3-5.7c-4.8 0-8.8-3.2-10.1-7.6h26.6l3.7-5.7h-30.3c1.2-4.4 5.3-7.7 10.1-7.7H263l3.7-5.7h-22.4c-9 0-16.1 7.2-16.1 16.2s7.1 16.2 16.1 16.2h19.3l3.6-5.7h-22.4z" fill="#ec2024"/></g></svg>