<svg version="1.1" id="Layer_1" xmlns="http://www.w3.org/2000/svg" x="0" y="0" viewBox="0 0 50 50" xml:space="preserve"><style>.st1{fill:#fff}</style><circle cx="25" cy="25" r="17" fill="#2dc100" id="Layer_1_1_"/><path class="st1" d="M29.9 21.3c-2.3.1-4.3.8-6 2.4-1.7 1.6-2.4 3.6-2.2 6-.9-.1-1.7-.2-2.6-.3-.3 0-.6 0-.9.1-.8.5-1.6 1-2.5 1.5.2-.8.3-1.4.5-2.1.1-.5.1-.7-.4-1-2.8-2-4-4.9-3.1-7.9.8-2.8 2.8-4.5 5.5-5.4 3.7-1.2 7.9 0 10.1 3 .9 1.1 1.4 2.3 1.6 3.7zm-10.7-.9c0-.6-.5-1.1-1-1.1-.6 0-1.1.4-1.1 1s.4 1.1 1 1.1 1.1-.5 1.1-1zm5.6-1.1c-.6 0-1.1.5-1 1.1 0 .6.5 1 1.1 1 .6 0 1-.5 1-1.1-.1-.6-.6-1-1.1-1z"/><path class="st1" d="M35.1 35.8c-.7-.3-1.4-.8-2.1-.9-.7-.1-1.5.3-2.2.4-2.3.2-4.3-.4-6-2-3.2-3-2.7-7.5 1-9.9 3.2-2.1 8-1.4 10.3 1.6 2 2.6 1.8 6.1-.7 8.3-.7.6-1 1.2-.5 2 .1.1.1.3.2.5zm-8.4-8.1c.5 0 .9-.4.9-.8 0-.5-.4-.9-.9-.9s-.9.4-.9.9c.1.4.5.8.9.8zm5.4-1.7c-.5 0-.8.4-.9.8 0 .5.4.9.8.9.5 0 .8-.4.9-.8.1-.5-.3-.9-.8-.9z"/></svg>