<svg width="58" height="58" viewBox="-3 -3 64 64" fill="none" xmlns="http://www.w3.org/2000/svg"><path d="M29 58c16.016 0 29-12.984 29-29S45.016 0 29 0 0 12.984 0 29s12.984 29 29 29z" fill="#5F67FA"/><path d="M40.052 19.605l-4.664-4.648c-.543-.541-1.541-.957-2.312-.957H19.844A2.843 2.843 0 0017 16.834v24.332A2.843 2.843 0 0019.844 44h18.312A2.843 2.843 0 0041 41.166V21.91c.012-.768-.405-1.763-.948-2.304zm-1.82.478h-2.111c-.67 0-1.226-.541-1.226-1.221v-2.104l3.337 3.325zm1.15 21.096c0 .667-.543 1.221-1.226 1.221H19.844c-.67 0-1.226-.541-1.226-1.221V16.834c0-.668.543-1.222 1.226-1.222h12.208c.67 0 1.226.542 1.226 1.222v2.027a2.843 2.843 0 002.843 2.834h2.035c.67 0 1.226.542 1.226 1.222v18.262z" fill="#fff"/><path d="M25.81 26.896l-2.638 4.111 2.638 4.111h-1.192L22 31.008l2.618-4.112h1.192zm7.572 0H32.19l2.638 4.111-2.638 4.111h1.192L36 31.008l-2.618-4.112zM27.031 37h1.095l3.117-12h-1.095l-3.117 12z" fill="#fff"/></svg>