<svg xmlns="http://www.w3.org/2000/svg" xmlns:xlink="http://www.w3.org/1999/xlink" viewBox="0 0 50 50"><path d="M14.1 39.7c-1.2 0-2-.3-2.7-1l.8-.8c.6.6 1.2.7 2 .7 1 0 1.6-.4 1.6-1.2 0-.3-.1-.6-.3-.8-.2-.2-.5-.3-.8-.3l-.9-.1c-.6-.1-1.1-.3-1.4-.6-.4-.3-.6-.8-.6-1.5 0-1.3 1-2.2 2.6-2.2 1 0 1.7.3 2.4.9l-.7.7c-.5-.5-1-.6-1.7-.6-.9 0-1.4.5-1.4 1.2 0 .3.1.5.3.7.2.2.4.3.8.3l.9.1c.7.1 1.1.3 1.4.6.4.4.6.9.6 1.6-.1 1.4-1.3 2.3-2.9 2.3zm9.9-.1v-5.1l-1.8 3.8h-.9l-1.8-3.8v5.1h-1.2v-7.7h1.2l2.2 4.8 2.2-4.8h1.2v7.7H24zm5.8-6.7v6.7h-1.2v-6.7h-2.1v-1h5.4v1h-2.1zm6.4 3.7h-1.8v3h-1.2v-7.7h2.9c1.5 0 2.5 1 2.5 2.3 0 1.4-.9 2.4-2.4 2.4zm-.1-3.7h-1.7v2.6h1.7c.8 0 1.4-.5 1.4-1.3s-.6-1.3-1.4-1.3z"/><defs><path id="a" d="M25 21.1l-10.5-7.3v2.1L25 23.2l10.5-7.3v-2.1z"/></defs><clipPath id="b"><use xlink:href="#a" overflow="visible"/></clipPath><g clip-path="url(#b)"><defs><path id="c" d="M12.8 12.4h24.4v17.5H12.8z"/></defs><clipPath id="d"><use xlink:href="#c" overflow="visible"/></clipPath><path clip-path="url(#d)" d="M5.8 5h38.4v26.9H5.8z"/></g><defs><path id="e" d="M36.5 12.2v13.9c-3.7.9-7.6 1.4-11.5 1.4s-7.7-.5-11.5-1.4V12.2h23zm1.9-1.9H11.6v17.3c4.3 1.2 8.8 1.8 13.4 1.8s9.1-.6 13.4-1.8V10.3z"/></defs><clipPath id="f"><use xlink:href="#e" overflow="visible"/></clipPath><g clip-path="url(#f)"><defs><path id="g" d="M11.6 10.3h26.8v19.1H11.6z"/></defs><clipPath id="h"><use xlink:href="#g" overflow="visible"/></clipPath><path clip-path="url(#h)" d="M2 .8h45.9v38.3H2z"/></g></svg>