<svg xmlns="http://www.w3.org/2000/svg" viewBox="0 0 162.5 162.5"><style/><path d="M36.8 90.9h-4.6l-1.8-4.7H22l-1.7 4.7h-4.5L24 70.3h4.5l8.3 20.6zM29 82.7l-2.9-7.6-2.8 7.6H29zm9 1.5l4.1-.4c.2 1.4.7 2.4 1.5 3 .8.6 1.8 1 3.1 1 1.4 0 2.4-.3 3.1-.8.7-.6 1-1.2 1-2 0-.5-.1-.9-.4-1.2-.3-.3-.8-.6-1.5-.9-.5-.2-1.6-.5-3.4-.9-2.3-.6-3.9-1.2-4.8-2-1.3-1.1-1.9-2.5-1.9-4.1 0-1 .3-2 .9-2.9.6-.9 1.5-1.6 2.6-2.1s2.5-.7 4.1-.7c2.6 0 4.6.6 5.9 1.7 1.3 1.1 2 2.6 2.1 4.5l-4.2.2c-.2-1.1-.6-1.8-1.2-2.3-.6-.5-1.5-.7-2.7-.7-1.2 0-2.2.2-2.9.7-.4.3-.7.7-.7 1.3 0 .5.2.9.6 1.2.5.4 1.8.9 3.9 1.4 2.1.5 3.6 1 4.6 1.5 1 .5 1.8 1.2 2.3 2.1.6.9.8 2 .8 3.3 0 1.2-.3 2.3-1 3.3s-1.6 1.8-2.8 2.3c-1.2.5-2.7.8-4.5.8-2.6 0-4.7-.6-6.1-1.8-1.4-1.5-2.2-3.2-2.5-5.5zm18.4 7l5.2-21.3h3l-5.2 21.3h-3zm17.2-.3v-4.1H65v-3.5l9.1-13.1h3.4v13.1h2.6v3.5h-2.6v4.1h-3.9zm0-7.7v-7l-4.8 7h4.8zm15.2-13c2 0 3.6.7 4.7 2.1 1.4 1.7 2 4.5 2 8.4 0 3.9-.7 6.7-2.1 8.4-1.1 1.4-2.7 2.1-4.7 2.1s-3.7-.8-4.9-2.3c-1.2-1.5-1.9-4.3-1.9-8.2 0-3.9.7-6.7 2.1-8.4 1.2-1.4 2.8-2.1 4.8-2.1zm0 3.3c-.5 0-.9.2-1.3.5s-.7.8-.9 1.6c-.3 1-.4 2.7-.4 5.2 0 2.4.1 4.1.4 5 .2.9.6 1.5.9 1.8.4.3.8.4 1.3.4s.9-.2 1.3-.5.7-.8.9-1.6c.3-1 .4-2.7.4-5.1 0-2.4-.1-4.1-.4-5-.2-.9-.6-1.5-.9-1.8-.4-.4-.8-.5-1.3-.5zm16.2-3.3c2 0 3.6.7 4.7 2.1 1.4 1.7 2 4.5 2 8.4 0 3.9-.7 6.7-2.1 8.4-1.1 1.4-2.7 2.1-4.7 2.1s-3.7-.8-4.9-2.3c-1.2-1.5-1.9-4.3-1.9-8.2 0-3.9.7-6.7 2.1-8.4 1.2-1.4 2.8-2.1 4.8-2.1zm0 3.3c-.5 0-.9.2-1.3.5s-.7.8-.9 1.6c-.3 1-.4 2.7-.4 5.2 0 2.4.1 4.1.4 5 .2.9.6 1.5.9 1.8.4.3.8.4 1.3.4s.9-.2 1.3-.5.7-.8.9-1.6c.3-1 .4-2.7.4-5.1 0-2.4-.1-4.1-.4-5-.2-.9-.6-1.5-.9-1.8-.4-.4-.8-.5-1.3-.5zm19.1 12.6l4 .7c-.5 1.4-1.3 2.5-2.4 3.3-1.1.8-2.5 1.1-4.2 1.1-2.6 0-4.6-.8-5.8-2.5-1-1.4-1.5-3.1-1.5-5.1 0-2.5.7-4.4 2-5.8 1.3-1.4 3-2.1 5-2.1 2.3 0 4 .7 5.3 2.2 1.3 1.5 1.9 3.7 1.9 6.7h-10c0 1.2.4 2.1 1 2.7.6.7 1.4 1 2.3 1 .6 0 1.2-.2 1.6-.5.3-.4.6-.9.8-1.7zm.2-4c0-1.1-.3-2-.9-2.6-.6-.6-1.3-.9-2.1-.9-.9 0-1.6.3-2.2.9-.6.6-.9 1.5-.8 2.6h6zm9.1-1V70.9h-3.6v-2.1h9.8v2.1H136v10.2h-2.6zm7.7 0V68.9h3.7l2.2 8.4 2.2-8.4h3.7v12.3h-2.3v-9.7l-2.4 9.7h-2.4l-2.4-9.7v9.7h-2.3z" id="Layer_1"/></svg>