<svg xmlns="http://www.w3.org/2000/svg" viewBox="0 0 50 50"><path d="M31 12H17.8c-.7 0-1.3.4-1.6.9L9.6 24.4c-.3.6-.3 1.3 0 1.9l6.6 11.4c.3.6 1 .9 1.6.9H31c.7 0 1.3-.4 1.6-.9l6.6-11.4c.3-.6.3-1.3 0-1.9L32.6 13c-.3-.6-.9-1-1.6-1z" fill="#0e62c2"/><path d="M29.6 22.2l-10.1 2.5 3.3 3-3.3.8 10.1 10.1H31c.7 0 1.3-.4 1.6-.9l4.6-8-7.6-7.5z" fill="#0751b0"/><path d="M29.6 22.3h-9.9c-.1 0-.2.1-.2.2v2.1c0 .1.1.2.2.2h9.9c.1 0 .2-.1.2-.2v-2.1c0-.1-.1-.2-.2-.2zM28 24.2c-.4 0-.6-.3-.6-.6s.3-.6.6-.6.6.3.6.6-.3.6-.6.6zm1.6 1.9h-9.9c-.1 0-.2.1-.2.2v2.1c0 .1.1.2.2.2h9.9c.1 0 .2-.1.2-.2v-2.1c0-.1-.1-.2-.2-.2zM28 28c-.4 0-.6-.3-.6-.6 0-.4.3-.6.6-.6s.6.3.6.6-.3.6-.6.6z" fill="#fff"/></svg>