<svg xmlns="http://www.w3.org/2000/svg" viewBox="0 0 50 50"><path d="M25 7.4c10.3 0 18.7 7.7 18.7 17.5s-8.6 17.8-19.2 17.6C14.7 42.3 6.3 34.7 6.3 25S14.7 7.4 25 7.4zm-2.8 2.4c-.1 0-.1 0-.2.1-1 .8-2 1.6-2.8 2.6-.2.2-.6.4-.5.6.1.2.5.2.8.2.2 0 .3.1.4-.1.8-1.2 1.6-2.3 2.3-3.4.1 0 .1 0 0 0 .1 0 .1 0 0 0zm5.4-.7c-.1-.1-.1-.2-.2-.1 0 0 0 .1.1.2 1 1 1.9 1.9 2.8 2.9.5.5.5.5 1.2.2.1 0 .1-.1.2-.1.3-.1.2-.2 0-.4l-1.2-.9c-.9-.6-1.8-1.3-2.9-1.8zm-4.9-.8c-.9.3-1.6.8-2.4 1.2-1.4.7-2.6 1.6-3.9 2.5-.2.2-.3.3 0 .4.3.1.7.2 1 .4.2.1.4 0 .6-.2.5-.6 1.1-1.2 1.7-1.8 1-.8 2.1-1.6 3-2.5zm1.4 16.1h-1.7c-.2 0-.3.1-.3.3v.9c0 1.3.2 2.5.3 3.8 0 .3.1.3.4.3h2.3c.8 0 1.6-.1 2.3-.2.2 0 .3-.1.3-.3-.2-1.5-.3-3-.4-4.5 0-.3-.1-.3-.4-.3-.9-.1-1.9-.1-2.8 0zm3.9 9.2c0-1.1-.1-2.2-.2-3.3 0-.2-.1-.3-.3-.2h-.4c-1.2.1-2.4.2-3.6.2-.9 0-1 0-.8.8.2 1.3.4 2.7.6 4 0 .2.1.3.3.3 1.4 0 2.8-.1 4.2-.3.3 0 .3-.1.3-.4-.1-.2-.1-.6-.1-1.1zm-5.9 1.9c.3 0 .5 0 .4-.3-.3-1.5-.5-3-.7-4.6 0-.2-.1-.3-.3-.3-1.4-.1-2.9-.3-4.3-.6-.3-.1-.3 0-.3.3.2 1.5.4 3 .8 4.5 0 .2.1.3.3.3 1.4.3 2.8.5 4.1.7zm-.9-6c.2 0 .5.1.4-.3-.2-1.5-.3-3.1-.3-4.6 0-.2 0-.3-.2-.3-1.2-.1-2.4-.2-3.6-.4-.4-.1-.5.1-.5.4-.1 1.4-.2 2.8-.1 4.2 0 .2.1.3.3.3 1.3.4 2.7.6 4 .7zm12-1.6c-.2-1.4-.4-2.8-.7-4.2-.1-.3-.2-.4-.5-.3-1.2.3-2.3.5-3.5.6-.4 0-.5.2-.5.6.2 1.4.3 2.9.4 4.3 0 .2.1.3.3.3 1.4-.2 2.8-.6 4.2-1 .3-.1.4-.2.3-.3zm0 1.4c0-.3 0-.3-.3-.2-1.2.4-2.3.6-3.5.8-.8.1-.8.2-.8 1v.2c.1 1.2.1 2.4.2 3.6 0 .3.1.3.4.3 1.3-.3 2.6-.7 3.9-1.2.2-.1.3-.2.3-.4-.1-.7-.2-3.5-.2-4.1zM24 23.7c.9 0 1.8-.1 2.8-.1.3 0 .4-.1.3-.4-.1-1.1-.3-2.2-.4-3.3 0-.2-.1-.3-.4-.3-1.3.1-2.6.2-3.9.1-.2 0-.3 0-.3.2 0 1.2-.1 2.4-.1 3.6 0 .2.1.3.4.3.5-.2 1-.1 1.6-.1zm14.2 6.6c0-1-.2-1.9-.3-2.8-.1-.5-.1-.5-.5-.3-.9.5-1.8.9-2.8 1.2-.6.2-.6.2-.5.8.1 1.2.1 2.5 0 3.7 0 .1-.1.2 0 .3s.2 0 .3-.1c1.2-.6 2.3-1.2 3.3-2 .4-.1.6-.4.5-.8zm-13.8-16c-.4 0-.8.1-1.2 0-.2 0-.3 0-.3.2-.2 1.2-.4 2.3-.5 3.5-.1.8-.1.8.8.8 1 0 2.1 0 3.1-.1.3 0 .5-.1.4-.4s-.1-.5-.1-.8c-.2-1-.3-2-.5-3 0-.2-.1-.3-.3-.2h-1.4zM12.7 28.6c.1 1.4.3 2.8.6 4.1 0 .2.1.3.3.4 1 .5 2 .9 3.1 1.3.3.1.3 0 .3-.2-.4-1.5-.6-2.9-.7-4.4 0-.2-.1-.3-.3-.4-1-.2-1.9-.6-2.8-.9-.4-.2-.6-.2-.5.1zm14.8-8.9c.1 1.2.3 2.4.4 3.5 0 .2.1.2.3.2 1.2-.2 2.5-.4 3.7-.7.3-.1.3-.2.2-.4-.3-1.1-.7-2.2-1.1-3.2-.1-.2-.2-.3-.5-.2-1 .2-1.9.4-2.9.5-.1 0-.2.1-.1.3zm-6.1.4c0-.6 0-.6-.6-.7l-2.4-.3c-.3-.1-.3 0-.4.2-.3 1.1-.6 2.2-.8 3.4-.1.4 0 .5.4.5 1.1.1 2.3.3 3.4.4.3 0 .4 0 .4-.3-.1-1-.1-2.1 0-3.2zm11.8 3.2c.3 1.5.6 2.9.8 4.3 0 .2.2.1.3.1 1.1-.4 2.1-.9 3.2-1.4.2-.1.2-.2.2-.3-.3-1.2-.7-2.4-1.2-3.5-.1-.2-.2-.2-.4-.2-.8.3-1.7.6-2.5.8-.3 0-.5 0-.4.2zm-20.5 3.3v.3c-.1.4.1.6.5.8.8.3 1.6.6 2.4.8.5.1.5.1.5-.4-.1-1.3 0-2.7.1-4 0-.3 0-.4-.3-.4-.8-.2-1.6-.3-2.4-.6-.3-.1-.4 0-.4.2-.2 1.1-.4 2.2-.4 3.3zm-4.1-1.9c0 .2.1.2.1.3.9.7 1.9 1.4 3 1.9.2.1.3.1.3-.2 0-1.3.2-2.6.5-3.8 0-.1 0-.2-.1-.3-1-.4-1.9-.7-2.8-1.2-.1-.1-.2 0-.3.1-.4 1.1-.6 2.1-.7 3.2zm3.4-8.1c-.1 0-.2.1-.3.2-.8 1.1-1.5 2.3-2 3.6-.1.2-.1.3.1.4.8.4 1.7.8 2.6 1.1.2.1.3 0 .4-.2.4-1.2.8-2.4 1.4-3.6.1-.2.1-.3-.2-.4-.7-.3-1.3-.6-1.9-1 0 0-.1 0-.1-.1zm-3.5 9.3c0 1.2 0 2.2.1 3.3 0 .2.1.4.3.6.6.6 1.3 1.2 2 1.7.5.3.9.7 1.5.9.1-.2 0-.3 0-.4-.2-1-.4-2.1-.4-3.1 0-.7-.2-1.2-1-1.4-.1 0-.1-.1-.2-.1-.8-.4-1.5-1-2.3-1.5zm19.6 11.6v-1.1c0-.3-.1-.4-.4-.3-1.3.2-2.6.3-3.9.3-.3 0-.3.1-.3.3.2.8.3 1.6.5 2.3 0 .2.1.3.4.3 1.2 0 2.3-.1 3.5-.3.3 0 .3-.1.3-.4-.1-.4-.1-.7-.1-1.1zm-5.6 1.7c.8 0 .8 0 .7-.6-.1-.6-.3-1.3-.4-1.9 0-.4-.2-.5-.6-.5-1.3-.1-2.5-.3-3.7-.5-.4-.1-.4 0-.3.3.3.9.6 1.7.9 2.5.1.2.2.3.4.3 1 .2 2.1.4 3 .4zm5-20.5c1-.1 2-.3 3-.5.2 0 .1-.1.1-.2-.6-1.3-1.1-2.6-1.8-3.8-.1-.2-.2-.2-.3-.1-.5.1-1 .2-1.5.2-.2 0-.2.1-.2.3.2 1.3.4 2.7.6 4-.1 0 0 .1.1.1zM16.2 23c.2 0 .2-.1.2-.2.2-1.2.5-2.5.9-3.7 0-.2 0-.2-.2-.3-.6-.2-1.3-.3-1.9-.6-.2-.1-.3 0-.4.1-.6 1.2-1.1 2.4-1.4 3.6 0 .1-.1.2.1.3.9.4 1.8.6 2.7.8zm12.7 14.3v1.2c0 .2 0 .3.3.3 1.1-.2 2.2-.6 3.3-1 .1-.1.2-.1.2-.3.2-.8.3-1.7.4-2.5 0-.3-.1-.3-.3-.2-1.2.4-2.4.8-3.7 1-.2 0-.3.1-.3.3.1.4.1.8.1 1.2zm9.3-5.3H38c-1.2.8-2.4 1.6-3.8 2.1-.2.1-.2.2-.2.4-.1.8-.2 1.5-.3 2.3 0 .1-.1.3 0 .3.1.1.3 0 .4-.1 1.3-.6 2.5-1.3 3.7-2.2.1-.1.2-.1.2-.2.1-.8.2-1.7.2-2.6zM21 18.8c.3 0 .5.2.5-.2.1-1.4.3-2.7.6-4 0-.2 0-.3-.2-.3-.5 0-.9-.1-1.4-.1-.2 0-.2 0-.3.2-.7 1.2-1.3 2.5-1.7 3.8-.1.2 0 .3.2.4.7 0 1.5.1 2.3.2zm19.7 5c-.3-1.1-.7-2-1.2-3-.1-.2-.2-.2-.3-.1-.7.4-1.4.7-2.1 1-.2.1-.3.2-.2.4.5 1.1.9 2.2 1.2 3.3.1.2.1.3.4.2.7-.5 1.4-1 2-1.5.1-.1.2-.2.2-.3zm-4.9-2.3c0-.1 0-.1-.1-.2-.5-1.1-1.1-2.2-1.8-3.2-.1-.2-.2-.2-.4-.1-.5.2-1.1.4-1.6.5-.2.1-.2.2-.2.3.4 1.1.8 2.2 1.1 3.4 0 .2.1.3.4.2.8-.2 1.6-.5 2.4-.8.1 0 .2 0 .2-.1zM39 20c0-.1 0-.1 0 0-.7-1.2-1.4-2.2-2.3-3.3-.1-.1-.2-.1-.3 0-.5.3-1.1.6-1.6.8-.2.1-.2.1-.1.3.7 1.1 1.3 2.1 1.8 3.3.1.2.2.2.3.1.7-.3 1.4-.6 2.1-1 0-.1.1-.1.1-.2zM13.8 36.9c0-.2 0-.3-.1-.4-.3-.8-.6-1.7-.8-2.5-.1-.2-.2-.4-.4-.5-1.1-.6-2.2-1.3-3.1-2.2-.1-.1-.2-.2-.4-.2.2 1.1.5 2.1.9 3.1.1.1.2.3.3.4 1 .8 2.2 1.6 3.6 2.3zm3.4-23.4c0-.1-.1-.1-.2-.2-.4-.2-.9-.3-1.3-.5-.2-.1-.3 0-.4.1-1 .9-1.9 1.8-2.8 2.8-.2.2-.1.3.1.5.6.3 1.1.7 1.7.9.2.1.4.1.5-.1.7-1.2 1.4-2.3 2.3-3.3.1-.1.1-.1.1-.2zm-3.5 20.6v.2c.3 1 .7 2 1.1 3 .1.2.2.2.3.3.8.3 1.7.6 2.5.9.2.1.4.2.6.1-.4-1-.7-2-1-3 0-.1-.1-.1-.2-.2-1-.4-2.1-.8-3.3-1.3zm25.2-3.9c.1-.1.2-.1.2-.1.8-.7 1.5-1.5 2.1-2.3.1-.1.1-.2.1-.2 0-.9-.2-1.8-.4-2.7-.8.7-1.6 1.2-2.4 1.7-.1.1-.1.2-.1.3.3 1 .5 2.1.5 3.3zm-21.5-12c.2.1.2-.1.2-.2.4-1.3 1-2.5 1.6-3.6.1-.2.1-.3-.2-.4-1.1-.2-1.1-.2-1.7.6-.7.9-1.3 1.8-1.9 2.7-.1.1-.2.3 0 .4.8.1 1.4.3 2 .5zm16.8-1.3c.1 0 .1 0 .2-.1.4-.2.9-.4 1.3-.6.3-.1.3-.3.1-.5l-2.4-2.4c-.8-.7-.8-.7-1.8-.3h-.1c-.2.1-.2.2-.1.3.9 1.1 1.8 2.2 2.5 3.4.2.2.2.2.3.2zm-9.3-8.3c-.9 1.5-1.4 3.1-1.8 4.8-.1.2.1.3.3.3h2c.4 0 .4-.1.4-.4-.2-.9-.3-1.7-.5-2.6-.2-.8-.3-1.4-.4-2.1zm8.5 8.6c-.1-.1-.1-.2-.2-.3-.7-1-1.4-1.9-2.1-2.9-.5-.7-.5-.7-1.4-.4-.2.1-.2.2-.1.3.7 1.2 1.2 2.4 1.8 3.7.1.2.2.2.3.2.5-.2 1-.3 1.5-.5.1 0 .2 0 .2-.1zm-5.3 23.5v-.6c0-.3-.1-.4-.4-.3-1.1.2-2.2.3-3.3.3-.2 0-.3.1-.2.3.1.4.2.8.3 1.3 0 .3.2.4.4.3.7-.1 1.4-.1 2.1-.1 1.1-.3 1.1-.3 1.1-1.2zM41 18.8c-.1-.1-.1-.2-.1-.3-.5-.9-1.1-1.7-1.8-2.5-.6-.7-.6-.7-1.3-.2-.1.1-.2.1-.3.2-.2.1-.2.2-.1.4.8 1 1.6 2 2.2 3.1.1.1.1.2.3.1.3-.2.7-.5 1-.7 0 0 0-.1.1-.1zm-17.4 23c.3.1.3-.1.2-.3 0-.1-.1-.2-.1-.3-.1-.3-.1-.8-.3-1-.2-.3-.7-.1-1.1-.1h-.1l-2.4-.3c-.1 0-.3-.1-.3.1.2.5.4 1 .7 1.4 0 .1.1.1.2.1 1.1.2 2.1.3 3.2.4zm13.9-5.7c-.1 0-.1 0 0 0-1.3.8-2.6 1.5-4 2.1-.1 0-.2.1-.2.1-.2.6-.3 1.2-.5 1.8.2-.1.4-.2.5-.2 1.1-.5 2-1.2 3-1.8.8-.5 1.1-1.2 1.2-2zm-5 2.5c-1.2.4-2.3.7-3.4.9-.2 0-.2.1-.2.3v1.3c0 .3.1.3.3.3.9-.2 1.7-.5 2.5-.8.1 0 .2-.1.3-.2.2-.6.3-1.1.5-1.8zm-22-23.3c-.2 0-.3.2-.3.3-.8 1-1.4 2.2-1.9 3.3-.4.9-.4.6.4 1.2.3.2.3.1.5-.1.5-1.1 1.1-2.2 1.8-3.2.5-.7.5-.4-.1-1.1l-.4-.4zM34 11.6c-.2.1-.3.3-.5.4-.2.1-.2.2 0 .4.9.8 1.8 1.6 2.6 2.5.7.8.7.8 1.6.1.2-.2.2-.3 0-.5-1.1-1-2.2-1.9-3.4-2.7-.1-.1-.2-.1-.3-.2zM41.3 29c-.8.8-1.5 1.6-2.3 2.2v.2c0 .8-.1 1.7-.2 2.5.2 0 .3-.1.4-.2.5-.4.9-.9 1.4-1.4.4-.4.6-.9.7-1.5 0-.6.1-1.1 0-1.8zM14.8 12.4c0-.1-.1-.1-.1-.1-.1-.1-.3-.2-.4-.3-.2-.2-.4-.2-.7 0-.8.6-1.5 1.3-2.2 2-.7.8-.7.5 0 1.3.2.3.4.3.6 0 .8-.9 1.6-1.8 2.6-2.6.1-.2.1-.2.2-.3zm26.6 10.9c.4-.3.6-.7.9-1 .1-.1.1-.2 0-.4-.2-.7-.5-1.5-.9-2.2-.1-.2-.2-.2-.4-.1-.3.2-.5.4-.8.5-.2.1-.2.2-.1.4.4.7.7 1.4 1 2.2.1.2.1.4.3.6zM25.9 9.6c-.1.1 0 .1 0 .2.2 1 .4 2 .5 3 .1.7.1.7.8.6.2 0 .5-.1.7-.1.3 0 .3-.1.2-.4-.6-1-1.3-2.1-2-3.1 0 0-.1-.2-.2-.2zM15.4 38.5c0 .3.3.5.2.7-.2.3 0 .3.1.3.7.4 1.5.8 2.3 1.1.4.1.8.3 1.3.4-.2-.5-.4-1-.6-1.4 0-.1-.1-.1-.2-.2-1-.2-2-.6-3.1-.9zm8-28.7c-.4.2-.6.6-.9.9-.6.8-1.2 1.6-1.7 2.5-.1.2-.1.3.2.3.3 0 .7 0 1 .1.2 0 .3-.1.4-.3.1-.5.3-1.1.4-1.6.2-.6.4-1.3.6-1.9zm-3.6-.9c-.4 0-.7.1-1 .2-1.4.5-2.8 1.1-4 1.9-.1.1-.3.1-.2.2.1.3.8.5 1.1.4 1.1-.8 2.2-1.6 3.3-2.3.3 0 .5-.2.8-.4zm-12 15.2c.1-.1.1-.2.1-.3.1-.7.3-1.5.5-2.2s.2-.7-.5-1.2c-.2-.1-.3-.1-.3.1-.2.7-.3 1.4-.5 2.1-.1.8.2 1.2.7 1.5zM42 26.5c.9-.9 1.1-2.2.6-3.3l-.9.9c-.1.1-.1.2-.1.3.2.7.3 1.4.4 2.1zM29 9c.4.2.7.5 1 .7l2.4 1.8c.3.2.6.1.8-.2s-.2-.3-.3-.4c-1.1-.7-2.4-1.3-3.6-1.9-.1 0-.2-.1-.3 0zm-1.9.9c0 .1.1.2.1.3l1.5 2.4c.4.7.2.5 1 .4.2-.1.3-.1.1-.4-.8-.9-1.6-1.8-2.5-2.6 0-.1-.1-.1-.2-.1zm7.7 1c-.1 0-.2.1-.2.2-.1.2.1.2.2.3.9.6 1.7 1.2 2.5 1.9.3.3.7.6 1 .9.1.1.2.2.3.1.1-.1.1-.2 0-.3l-.2-.2c-1-1-2.1-1.9-3.3-2.7-.2-.2-.2-.2-.3-.2zM7.1 24.7c-.1.1-.1.2-.1.3 0 .9.1 1.8.2 2.7 0 .2.2.4.5.6-.1-.9-.1-1.7 0-2.5 0-.5-.2-.9-.6-1.1zm31.3 11.5c.7-.7 1.4-1.5 1.9-2.3-.5.3-.9.7-1.3 1.1-.6.3-.6.8-.6 1.2zm4.4-9.1c-.3.4-.7.7-.6 1.2V30c.3-.9.5-1.9.6-2.9zM14.6 38.7c-.2-1-1.1-1-1.7-1.4.5.6 1 1 1.7 1.4zM31.9 9.5c.6.4 1.2.7 1.9 1.1.1.1.2 0 .2-.1.1-.1 0-.2-.1-.2-.2-.1-.5-.3-.7-.4-.4-.1-.8-.3-1.3-.4zm8.5 7.1c.1-.1.1-.2 0-.3-.3-.5-.7-1-1.1-1.5-.1-.1-.1-.2-.3-.1-.1.1 0 .2 0 .3.5.5 1 1 1.4 1.6z" fill="#668b66"/><path d="M10.6 18.4h28.7v13.3H10.6z"/><path d="M18.9 28.8c-1.2 0-2-.3-2.7-1l.8-.8c.6.6 1.2.7 2 .7 1 0 1.6-.4 1.6-1.2 0-.3-.1-.6-.3-.8-.2-.2-.5-.3-.8-.3l-.9-.1c-.6-.1-1.1-.3-1.4-.6-.4-.3-.6-.8-.6-1.5 0-1.3 1-2.2 2.6-2.2 1 0 1.7.3 2.4.9l-.7.7c-.5-.5-1-.6-1.7-.6-.9 0-1.4.5-1.4 1.2 0 .3.1.5.3.7.2.2.4.3.8.3l.9.1c.7.1 1.1.3 1.4.6.4.4.6.9.6 1.6-.1 1.4-1.2 2.3-2.9 2.3zm6.4 0c-1.2 0-2-.3-2.7-1l.8-.8c.6.6 1.2.7 2 .7 1 0 1.6-.4 1.6-1.2 0-.3-.1-.6-.3-.8-.2-.2-.5-.3-.8-.3l-.9-.1c-.6-.1-1.1-.3-1.5-.6-.4-.3-.6-.8-.6-1.5 0-1.3 1-2.2 2.6-2.2 1 0 1.7.3 2.4.9l-.9.6c-.5-.5-1-.6-1.7-.6-.9 0-1.4.5-1.4 1.2 0 .3.1.5.3.7.2.2.4.3.8.3l.9.1c.7.1 1.1.3 1.4.6.4.4.6.9.6 1.6.1 1.5-1 2.4-2.6 2.4zm4.3-.1V21h1.2v6.7h3.7v1h-4.9z" fill="#fff"/></svg>