<svg data-name="Layer 1" xmlns="http://www.w3.org/2000/svg" viewBox="0 0 50 50"><g data-name="1bF6w4.tif" fill="#002050"><path d="M14.415 18.01a4.207 4.207 0 01.45.226q3.272 2.152 6.54 4.312c.37.245.391.322.268.676q-.965 2.777-1.928 5.555-1.03 2.96-2.067 5.918l-2.086 5.98c-.284.813-.574 1.624-.858 2.437a.94.94 0 00-.026.178c.043-.005.069 0 .078-.01q1.004-1.103 2.006-2.208c.058-.064.11-.135.17-.198l2.416-2.552c.805-.85 1.614-1.699 2.415-2.553.505-.537.997-1.085 1.498-1.625q1.725-1.86 3.453-3.715c.545-.588 1.088-1.178 1.635-1.764.635-.683 1.275-1.361 1.91-2.044.5-.54.996-1.085 1.497-1.625q1.748-1.882 3.498-3.762.774-.833 1.543-1.672c.196-.213.385-.433.603-.678.154.581.206 8.197.098 11.838-.168.112-.356.253-.558.368q-2.653 1.5-5.311 2.99c-1.226.686-2.461 1.357-3.686 2.046-1.639.92-3.27 1.857-4.909 2.777-1.225.688-2.46 1.358-3.688 2.041q-2.181 1.214-4.355 2.44a1.04 1.04 0 00-.214.232h-.392z"/><path d="M14.415 6.382c.702.333 1.405.663 2.104 1.001.193.094.371.22.562.32q2.816 1.484 5.634 2.965c1.282.677 2.56 1.364 3.84 2.043q2.237 1.188 4.476 2.372c1.376.73 2.754 1.457 4.128 2.194.436.233.858.491 1.35.774l-6.974 5.723c-2.004-.988-3.965-1.958-5.929-2.922q-2.858-1.405-5.72-2.802c-1.052-.512-2.11-1.01-3.166-1.512a2.239 2.239 0 00-.305-.096z"/></g></svg>