<svg xmlns="http://www.w3.org/2000/svg" viewBox="0 0 50 50"><path d="M6.8 30.7V19.3h1.7v9.8H14v1.6H6.8zm16.4-1.4c-.8 1-1.8 1.4-3.2 1.4h-4V19.3h4c1.4 0 2.4.4 3.2 1.4.8 1 .9 2.4.9 4.3 0 1.8-.1 3.2-.9 4.3zm-1.5-7.7c-.5-.6-1.1-.8-2-.8h-2.1v8.3h2.1c.8 0 1.5-.2 2-.8.6-.6.6-1.7.6-3.4 0-1.6 0-2.7-.6-3.3zM33 30.7l-.8-2.3h-4.5l-.8 2.3h-1.8l4.2-11.4h1.4l4.2 11.4H33zm-3-8.8L28.2 27h3.5L30 21.9zm10.8 4.3h-2.6v4.5h-1.7V19.3h4.3c2.2 0 3.6 1.5 3.6 3.5 0 1.9-1.4 3.4-3.6 3.4zm-.1-5.3h-2.5v3.8h2.5c1.2 0 2-.7 2-1.9 0-1.3-.8-1.9-2-1.9z"/></svg>