<svg version="1.1" id="Layer_1" xmlns="http://www.w3.org/2000/svg" x="0" y="0" viewBox="0 0 50 50" xml:space="preserve"><style>.st1{fill-rule:evenodd;clip-rule:evenodd;fill:#e82b55}</style><path fill-rule="evenodd" clip-rule="evenodd" d="M40.1 37.8h-30V12.1h30v25.7"/><path class="st1" d="M10.1 12.1h15.4v1c-.3.1-.7 0-.9 0h-4.8c-.1 0-.1.5-.1.6.1.1.3 0 .4.1.3.1.8.2 1 .5.3.3.3.8.3 1.2 0 .2.1.4.1.6v7.6c-.1.1-1.4 0-1.6 0h-4.6v-7.4c0-.5 0-1.1.2-1.5 0-.1.1-.3.1-.4.1-.2.3-.4.6-.5.2-.1.5-.2.7-.2 0 0 .2 0 .2-.1V13c-.1-.1-.9-.1-1.1-.1h-4.6s-.1 0-.1.1c-.1.1-.1.6 0 .6.1.1.3 0 .4.1.3.1.7.2.9.5.3.3.4.9.4 1.3 0 .2.1.4.1.6v16.6c0 .2 0 .5-.1.7 0 .4-.1 1-.2 1.2-.1.2-.3.3-.5.4-.1 0-.2.1-.3.1-.2.1-.4.1-.6.2-.1 0-.1 0-.1.1v.6c1.4.1 3 0 4.4 0H17v-.7c-.1-.1-.3-.1-.5-.1-.1 0-.1-.1-.2-.1-.3-.1-.6-.3-.8-.6-.1-.1-.1-.3-.1-.4-.2-.7-.2-1.8-.2-2.6V25c.1-.1.4-.1.6-.1h5.7v7.6c0 .3 0 .5-.1.7-.1.5 0 1.1-.4 1.5-.2.1-.3.2-.5.3-.3.1-.5.2-.8.2v.6h5.8v1.5H10.1V12.1"/><path class="st1" d="M25.5 13.9c.1 0 0 .2 0 .3v6.7c-.2 1-.5 2-.7 3-.2 1-.5 2-.7 2.9-.1.3-.1.5-.2.8 0 .1-.1.3-.1.4h.9c.1-.3.1-.6.1-.9.1-.6.1-1.2.4-1.8 0-.1.1-.3.2-.3v10.6c-.1 0-.3-.1-.4-.1-.3-.1-.7-.2-.9-.4-.3-.3-.4-.8-.4-1.2 0-.1 0-.3-.1-.5v-5.5h.1c-.1-.3-.1-.7-.1-1.1V16.6c0-.6 0-1.1.1-1.6.1-.2.1-.4.3-.6.2-.2.4-.3.7-.4.2-.1.3-.1.5-.1h.3"/><path d="M26 18.7h1.6c0 2 .2 3.9-.2 5.9-.3 0-.5.1-.8.1-.5.1-.9.1-1.2.5-.1.2-.3.6-.3.9v.2c-.1.3-.1.7-.2 1.1 0 .1-.1.5-.1.5-.1.1-.7 0-.9 0v-.1c.1-.4.2-.7.3-1.1.1-.7.3-1.3.5-1.9.3-2 .8-4 1.3-6.1m3.5 0h9.9v1.2c-.1.1-.1.2-.1.3-.1.1-.2.3-.3.5-.4.7-.8 1.4-1.1 2.1-.4.8-.9 1.6-1.3 2.4-.2.4-.3.7-.5 1.1-.1.3-.3.7-.5 1-.1.1-.1.3-.2.5-.3.7-.6 1.3-.7 2-.1.3-.2.6-.3 1-.1.3-.1.6-.1.9-.1.5-.1.9-.1 1.4v1.3c0 .1.1.3.1.4l-.1.1c-.1.1-1.2.3-1.5.3-.5 0-1.2-.1-1.8-.1-.3 0-.7 0-.9-.1-.1 0-.3-.3-.4-.4-.2-.3-.2-.7-.2-1.1 0-.1.1-.3.1-.4.1-.1.1-.3.2-.4l.6-.9c1-1.3 2-2.7 3-3.9.1-.1.1-.2.2-.3l.3-.3c.1-.2.3-.4.5-.6.5-.7 1-1.3 1.5-2h.1-4.7c-.2 0-1.7 0-1.8-.1-.1-.1-.1-1.3-.1-1.5 0-1.4.1-2.9.1-4.3-.1-.1.1-.1.1-.1m-1.3 17.7c.1 0 .2-.3.3-.3.1-.1.6 0 .8 0 .9 0 1.8-.1 2.7-.1.1 0 .3.1.3.1.2 0 .3-.2.5-.1.1-.1 1.6.3 1.7.3l.1.2c.1.1.1.2.1.3.1.3.1.5.2.8.1.1.1.2.1.3-.1-.1-.3 0-.5 0H28c-.1-.4 0-1.3.2-1.5" fill="#eaeae9" fill-rule="evenodd" clip-rule="evenodd"/><path class="st1" d="M25.5 13.2h5.9l.1.1v.5c-.1.1-.4.1-.5.1-.2.1-.5.2-.7.3-.5.3-.5.9-.6 1.4v17.2c0 .5-.1 1.3.2 1.7.2.3.7.3 1.1.3h1.4c1.2-.1 1.4-.1 1.4-.1.2 0 .3-.1.5-.1.4-.1.9-.3 1.2-.5.7-.5 1-1.2 1.3-1.9.1-.1.1-.3.2-.4l.3-.9c.1-.3.1-.5.2-.8.1-.1.4 0 .5 0 0 .4-.1.7-.2 1.1-.1.4-.1.9-.2 1.3-.1.7-.3 1.4-.4 2.1-.1.3-.1.7-.1 1 0 .1 0 .3-.1.5h-.1c-.2.1-.4 0-.6 0H25.7c-.1 0-.1-.4-.1-.6v-.1h.1c.1-.1.3-.1.4-.1.4-.1.7-.3 1-.6.2-.3.2-.7.3-1.1v-.3c.1-1.1 0-2.2 0-3.2V15.6c0-.1 0-.2-.1-.3V15c-.1-.9-.5-1.2-1.2-1.4h-.5c-.2.2-.1-.3-.1-.4"/></svg>