<svg version="1.0" xmlns="http://www.w3.org/2000/svg" width="333.333" height="333.333" viewBox="0 0 250 250"><path d="M77.9 98.5c-2 1.1-4.3 5.6-10.8 21.2-4.6 10.9-9 21.1-9.8 22.7l-1.5 2.9-11.8-.5c-18.3-.8-21-3.3-21-20.1 0-15.5 2.8-18 21.2-18.5l12.8-.4V98H42.7c-13.7 0-14.6.1-19.7 2.7-4.4 2.3-5.9 3.7-8 7.8-2.3 4.5-2.5 6.1-2.5 17 .1 10.4.4 12.6 2.2 16.1 5.1 9.7 11.2 11.7 34.1 11.2l15.4-.3 9-22.8c4.9-12.5 9.3-22.7 9.7-22.7.4 0 4.8 10.2 9.7 22.7l8.9 22.8 5.3.3c2.8.2 5.2-.1 5.2-.5s-1.9-5.3-4.1-10.8C90.5 99.8 89 97 83.2 97c-1.5.1-3.8.7-5.3 1.5zm50.8-.5c-13 3.3-17.4 11.2-16.5 30.1.3 7.1.9 10.5 2.7 14.1 4.6 9.6 10.8 11 46.1 10.6l25.5-.3.3-11.8.3-11.7h27.8l.3 11.7.3 11.8h10v-54l-5.2-.3-5.3-.3V120h-28V98h-11v45.8l-6.2.4c-3.5.2-6.4.3-6.6.2-.1 0 .9-2.5 2.3-5.5 2-4.4 2.5-6.9 2.5-13.4-.1-20.7-6.3-27.5-26-28.1-5.2-.2-11.2.1-13.3.6zm21.5 9c5 2.3 6.2 5.5 6.6 17 .4 11.6-1.1 16.3-5.9 18.7-2.9 1.5-17.7 1.7-21.3.3-5.8-2.2-9-14.2-6.6-25.3 1.5-7.2 4-10.3 9.3-11.6 5.2-1.2 14.2-.8 17.9.9z"/><path d="M81.7 130.7c-.3 1-2.3 6.4-4.5 12l-4 10.3h9.4c5.2 0 9.4-.4 9.4-.8 0-1.3-8.1-21.6-8.9-22.5-.5-.5-1.1 0-1.4 1zM235 146.5c0 1.5-.3 1.5-1.5.5-1.1-.9-1.9-1-2.6-.3-1.5 1.5-.8 4.4 1.4 5.7 3.6 2.3 7.6-3.6 4.2-6.4-1.2-1-1.5-1-1.5.5zm1.2 4.7c-1.3 1.3-5.2 0-5.2-1.8 0-.8.5-1.4 1.1-1.4.5 0 .8.4.4.9-.3.5-.1 1.2.5 1.6.5.3 1.5-.4 2.2-1.5 1.1-1.7 1.4-1.8 1.6-.4.2.9-.1 2.1-.6 2.6z"/></svg>