<svg width="58" height="58" viewBox="-3 -3 64 64" fill="none" xmlns="http://www.w3.org/2000/svg"><path d="M29 58c16.016 0 29-12.984 29-29S45.016 0 29 0 0 12.984 0 29s12.984 29 29 29z" fill="#5F67FA"/><path fill-rule="evenodd" clip-rule="evenodd" d="M30.663 40.998v-5.83h4.688c-.995 3.06-2.733 5.319-4.688 5.83zM29.01 23.824h-4.772c.951-3.153 2.688-5.374 4.772-5.84v5.84zm0 17.174c-1.957-.511-3.693-2.77-4.69-5.83h4.69v5.83zm-9.9-5.83h3.447c.64 2.238 1.654 4.12 2.906 5.465a11.823 11.823 0 01-6.352-5.466zm-.74-9.69h3.766a22.493 22.493 0 00.028 8.027H18.37a11.759 11.759 0 010-8.027zm5.447 0H29v8.027h-5.137a19.68 19.68 0 01-.42-4.014c0-1.416.137-2.77.374-4.013zm1.162-6.92c.091-.035.192-.072.283-.108-1.197 1.315-2.148 3.17-2.752 5.384h-3.4a11.715 11.715 0 015.87-5.275zm5.685-.575c2.084.467 3.82 2.688 4.77 5.85h-4.77v-5.85zm9.615 17.665h-.633c-1.164 1.953-2.87 3.497-5.052 4.537 1.07-1.298 2.513-4.537 2.513-4.537s-2.587-1.769-2.883-2.143h-3.56v-8.027h3.56c.291-.37 2.883-2.11 2.883-2.11s-1.297-3.201-2.312-4.472c1.971.983 3.63 2.54 4.804 4.473h1.931C39.23 18.893 34.598 16 29.492 16c-1.772 0-3.508.347-5.154 1.033a13.422 13.422 0 00-7.303 7.303 13.396 13.396 0 000 10.328A13.456 13.456 0 0029.511 43c1.773 0 3.51-.346 5.155-1.032 3.1-1.283 5.458-3.538 6.865-6.32h-1.253z" fill="#fff"/><path fill-rule="evenodd" clip-rule="evenodd" d="M43.77 29.496l-5.725-3.678v2.448h-2.864v2.486h2.864v2.423l5.725-3.679z" fill="#fff"/></svg>