<svg xmlns="http://www.w3.org/2000/svg" viewBox="0 0 50 50"><style>.st2{fill:#eaeae9}</style><g id="Layer_1"><path d="M35.2 3.3s-.1-.1 0 0c-.1-.1 0 0 0 0z" fill="#d7d8d9"/><circle cx="25" cy="25" r="24" fill="#1c2e5b"/><path class="st2" d="M13.3 16.6s-.2 4.1 6.8 11c7 6.8 7.8 11 7.4 11h5.1s.5-7.4-7.4-13c0 0-5.4-4.5-6.3-8.4 0 0-2.7.1-4.5-1.4-.1.1-1.1-.4-1.1.8z"/><path class="st2" d="M24.1 27.4c1.4 1 2.5 2.1 3.5 3.1.7-.7 1.4-1.5 2.3-2.3 7-6.8 6.8-11.7 6.8-11.7 0-1.2-1-.5-1-.5-1.9 1.5-4.5 1.5-4.5 1.5-.9 3.8-6.3 8.7-6.3 8.7-.4.3-.7.5-1 .8.1.3.2.4.2.4zm0 6.8c-.9-1.2-2.1-2.9-3.7-4.5-3.2 4.7-3 8.9-3 8.9h5.1c-.3 0-.1-2 1.6-4.4zm-1.7-17h5s.7.3.5 1.1c-.2 1.2-2.9 3.9-2.9 3.9s-2-2.1-2.9-3.8c0 .1-.3-1.2.3-1.2z"/><circle class="st2" cx="31.6" cy="12.7" r="2.2"/><circle class="st2" cx="18.7" cy="12.7" r="2.2"/><circle class="st2" cx="25.2" cy="11" r="2.2"/></g></svg>