<svg xmlns="http://www.w3.org/2000/svg" viewBox="0 0 50 50"><path d="M35.2 3.3s-.1-.1 0 0c-.1-.1 0 0 0 0z" fill="#d7d8d9"/><path d="M28.7 26.6c-1 0-1.8.6-2.3 1.5H11.9c-2.4 0-4.4-2.1-4.4-4.5s2-4.5 4.4-4.5H14c0-.5.2-1 .4-1.5.1-.1.1-.4.2-.5 1-1.8 2.9-3.1 5.1-3.1 2 0 3.7 1 4.8 2.4.6-.2 1.2-.5 2-.6-1.3-2.3-3.8-3.8-6.7-3.8-3.3 0-6.1 2.1-7.3 5H12c-3.5 0-6.5 2.9-6.5 6.6s2.9 6.5 6.5 6.5h14.5c.4.9 1.2 1.5 2.3 1.5 1.3 0 2.4-1.1 2.4-2.6s-1.1-2.4-2.5-2.4zm8-5c-1.5-2.9-4.5-5-7.9-5-4.3 0-7.8 3.1-8.7 7.1-2.1.2-3.9 1.3-5 2.9h10.6c.7-1 1.8-1.5 3.1-1.5 2.2 0 3.9 1.8 3.9 4s-1.8 4-3.9 4c-1.2 0-2.3-.6-3.1-1.5H13.9c.5 3.4 3.4 6.1 6.8 6.1h15.9c4.4 0 7.9-3.5 7.9-8.1s-3.5-7.8-7.8-8z" fill="#008cdb"/></svg>