<svg id="Layer_1" data-name="Layer 1" xmlns="http://www.w3.org/2000/svg" viewBox="0 0 50 50"><defs><style>.cls-4{fill:#fbf8cd}.cls-5{fill:#c9cb2c}</style></defs><circle cx="25" cy="25" r="16" fill="#6dc7f0"/><path fill="#f5ea14" d="M21.4 20.07l-1.6.26-1.47.6-1.2.8-1.2 1.4-.66.74-.6.26-.2-.46.33-.4.07-.6h.2l.2.2-.07-.6-.27-.2.07-.2-.6.33-.53.6-.07.53.2.4.2.8.4.2.47-.06.4-.2-.27 1.4.27 1.53-.27.73-1 1.07.13.67.47.73.93.67.47.06h.53l-.33 1.34 1.2.53 1.53.2.54-.33v-.94l.6-.93v-.8l1.4.13L23 30.4l-1.33.8.26.93.8 1.27.8.33.6-.26.27-.54 1.33-1 .27.2 2.07.14.46-.34v-.6l-.13-.26-.07-1.6-.73-1.4.13-.67.4.27 1.2 1.06.6.07.6-.27.67-.46.27-1.07 1.93.13 1.13-.46.87-.87.67-1.2.2-1.47-.2-1.66-.34-1.54-.33-.46-.53-.14-.87.94-.8.26-.67-1.13-.73-.67-.33-.2-1.54-1.26-1.2-.67-1.26-.13-1.4.26-1.2.47-.87.67-.67.86-.73.2-1.2 1.14z"/><path fill="none" stroke="#1f1a17" stroke-miterlimit="10" stroke-width=".06" d="M21.4 20.07l-1.6.26-1.47.6-1.2.8-1.2 1.4-.66.74-.6.26-.2-.46.33-.4.07-.6h.2l.2.2-.07-.6-.27-.2.07-.2-.6.33-.53.6-.07.53.2.4.2.8.4.2.47-.06.4-.2-.27 1.4.27 1.53-.27.73-1 1.07.13.67.47.73.93.67.47.06h.53l-.33 1.34 1.2.53 1.53.2.54-.33v-.94l.6-.93v-.8l1.4.13L23 30.4l-1.33.8.26.93.8 1.27.8.33.6-.26.27-.54 1.33-1 .27.2 2.07.14.46-.34v-.6l-.13-.26-.07-1.6-.73-1.4.13-.67.4.27 1.2 1.06.6.07.6-.27.67-.46.27-1.07 1.93.13 1.13-.46.87-.87.67-1.2.2-1.47-.2-1.66-.34-1.54-.33-.46-.53-.14-.87.94-.8.26-.67-1.13-.73-.67-.33-.2-1.54-1.26-1.2-.67-1.26-.13-1.4.26-1.2.47-.87.67-.67.86-.73.2-1.2 1.14z"/><path class="cls-4" d="M16.8 23.67c-1.33 1.6-1.07 3.53-.67 5.4-.2-.53-.4-1-.6-1.53l-.2-1.4c0-.47.07-.93.07-1.4l.6-1.4c.27-.4.6-.87.87-1.27l1.33-1.13 1.47-.6 1.73-.2-1.6 1.8a4.9 4.9 0 00-3 1.73"/><path class="cls-4" d="M23.2 18.8a10.2 10.2 0 00-2.07 2.73 25.8 25.8 0 01-1.4 2.27 3.66 3.66 0 00-.33 1.13c-.2-.27-.47-.53-.67-.8.13-.33.2-.67.33-.93.33-.67.73-1.27 1.07-1.93L22.4 19a6.92 6.92 0 00.8-.2m4.67-2.27c-.73.27-2 .4-2.13 1.27a2.5 2.5 0 00.4 1.6c-.93-.93-1.13-.8-2.93-.53a10.17 10.17 0 00.73-1.07c.47-.27.87-.53 1.33-.8l1.73-.4a4.1 4.1 0 01.87-.07"/><path class="cls-5" d="M30 28.33c.27.13.27.27.2.4a2.37 2.37 0 00.6-.27c.13-.2.27-.33.4-.53s.2-.47.27-.73c-.13-.07-.27-.2-.4-.27l-1.6.2c-.07.13-.07.2-.13.33a1.13 1.13 0 00.07.47.51.51 0 01.13.27c.07.07.13.07.27.13a.12.12 0 01.2 0m-.14-2.8c-.8.2-.8.27-1.07 1.07a3.26 3.26 0 011.07-1.07m5.33-5.93c-.13.07-.27.07-.4.2a2.31 2.31 0 01-.67.73l-.47.2c-.13.07-.2 0-.33.07a.24.24 0 01.2.07H34a2.7 2.7 0 01.6-.33c.13-.13.2-.27.33-.33a1.26 1.26 0 01.27-.6m-12.87 1.72a15.47 15.47 0 01-1.07 2.4 6.56 6.56 0 001.33-2c.13-.27.13-.6.53-.53 0 .27.07.6.07.87a3 3 0 012.13-2.67c-.4.07-.73.07-1.13.13a6.24 6.24 0 00-1.07.27c-.2.27-.33.53-.53.8a2.39 2.39 0 01-.27.73m2.68 0c.27 1.4.73 2.67.87 4.07a2.65 2.65 0 01-.33 2.13 2.81 2.81 0 00-1.27.2c-1.93.6-3 1.53-4.33-.33.4.2.8.4 1.27.6l.87-.2c.53-.33 1.07-.6 1.53-.93a7.75 7.75 0 001.2-.27c.13-.53.27-1.07.4-1.67-.07-.73-.2-1.47-.27-2.2a5 5 0 00-.07-1c.07-.07.07-.27.13-.4m3.27 8.47c-.13 1.13.4 1.73.13 2-.07.07-.13.27-.27.27-.33.13-.8 0-.8.07H26.2a3.25 3.25 0 00-.47-.2c.2-.27.47-.53.67-.8.2-.47.47-1 .67-1.47s.27-1 .4-1.47h.2a9.59 9.59 0 01.6 1.6"/><path class="cls-5" d="M26.4 26.6c.07.53.27.6.47 1.13a10.52 10.52 0 01-.73 2.47 1.52 1.52 0 01-.47.67c-.4.4-.8.73-1.2 1.07s-.53.13-.93.07c-.13.27-.2.47-.53.6s-.87-.27-1.27-.53c.27.4.53.8.8 1.27l.53.53c.13 0 .33.07.47.07l.6-.4c.13-.2.2-.4.33-.6s.47-.33.67-.53a10 10 0 01.87-.73 7 7 0 01.53-.73c.13-.27.33-.6.47-.87.2-.6.4-1.2.6-1.87 0-.27.07-.47.07-.73-.27-.13-.53-.2-.8-.33a.92.92 0 00-.47-.53m-6.14 3.5a6.33 6.33 0 002.53-.4 9 9 0 01.73-.93 2.83 2.83 0 00-.4 1.27c-.07.13-.2.27-.27.4-.67 0-1.27.07-1.93.07-.2 0-.4-.07-.6-.07l-.07-.07v-.27m-.13-.6c0-.2-.07-.4-.07-.6a6.63 6.63 0 01-.53 2.27 3.66 3.66 0 01-1.13.87.74.74 0 010 .53c-.07.6-1.2.33-1.67.27l2.27.6.53-.2.2-1c.13-.27.33-.6.47-.87s.07-.33.07-.53a8.21 8.21 0 00-.13-1.33m-1.27-5.01a1.75 1.75 0 00.13 1l.8 1.4c0-.33.07-.67.07-.93-.33-.53-.67-1-1-1.47M15.4 27.8c-.07.13-.13.33-.2.47A5.84 5.84 0 0016 30a1.34 1.34 0 01-.27.53 5 5 0 00-1-.07c.4.27.73.6 1.13.87.2-.07.4-.07.53-.13l.53-.53c-.27-.4-.53-.8-.8-1.27a17 17 0 01-.73-1.6m19.81-8.47a16.43 16.43 0 01.53 3.07c-.07 1.33-.27 3-1.53 3.73s-2.93.47-4.47.07c.6.27 1.2.53 1.8.73.6 0 1.13.07 1.73.07.4-.13.8-.2 1.13-.33a9 9 0 01.93-.73c.2-.47.47-.93.67-1.47s.2-1.13.27-1.67l-.2-1.6-.4-1.6a.85.85 0 01-.47-.27m-20.32 3.14c-.6.4-.87.6-.8 1.33.07.2.13.47.2.67s.2.13.27.2.2.07.33.13.4-.07.6-.13c.13-.33.2-.6.33-.93l-.8.4h-.2c-.07-.13-.13-.2-.2-.33s.2-.27.27-.4.07-.47.13-.73c.07 0 .13.07.2.07l.2.2v-.4c-.07-.07-.07-.13-.13-.27l-.13-.13a.34.34 0 00-.27.33m13.86-5.88a12.52 12.52 0 011.67 1.6c.2.27.33.33 0 .73a1.76 1.76 0 01.8-.07c.53.07 1.07.87 1.13 1.4 0 .07-.13.2-.6.27h-.27c.07.13.13.13.2.2a.63.63 0 00.13.47 3.25 3.25 0 01.8.07 1 1 0 01.07.47c.13 0 .2-.07.33-.07 0-.27-.07-.47-.07-.73s.2-.33.27-.47c-.13-.27-.27-.6-.4-.87a7.61 7.61 0 01-.73-.73H32a9.87 9.87 0 00-.87-.53c-.47-.4-.93-.73-1.4-1.13l-1-.6m.94 4.19c0 .07-.07.13-.13.2a1.13 1.13 0 01.4.67l-.8.4c-.2.2-.47.4-.67.6-.27-.13-.33-.27-.47-.6a1.13 1.13 0 01-.47.07.24.24 0 00.2-.07 2.9 2.9 0 00.4-.47 5.09 5.09 0 01.73-.53 1.24 1.24 0 01.47-.13 1.13 1.13 0 01.33-.13"/><path class="cls-5" d="M30.4 21.53a4.24 4.24 0 00-2 1.73c-.07-1.07 1-1.53 2-1.73m-2.2-2.06a2.41 2.41 0 00-1 2.07 1.62 1.62 0 01.47-1.87c.13-.07.2-.13.33-.13s.13-.07.2-.07"/><path class="cls-4" d="M28.47 22.33a.3.3 0 11.53-.27v.07l-.4.4c-.07-.07-.13-.13-.13-.2"/><path d="M12.87 23.8a3.19 3.19 0 011.07-2.33c-1 .67-1.2 1-1.07 2.33m14.2-2.87a2 2 0 011.13-1.47c-1.07.34-1.27.81-1.13 1.47zm6.13-.06a1.57 1.57 0 00.8-.07 2.62 2.62 0 001.2-1.2 1.85 1.85 0 01-1.13 1.4 1.33 1.33 0 01-.87-.13zM25 19.53a7.28 7.28 0 01-1.13.33 2.81 2.81 0 00-.67 1.33c-.07-.6-.13-.73.13-1.2-.07.07-.13.07-.27.2A7.59 7.59 0 0022 22.27a7.14 7.14 0 01.93-2.33.68.68 0 01.67-.27 9.07 9.07 0 001.4-.14zm3.33 2.6a.6.6 0 01-.07-.33 2.7 2.7 0 01-.6.33c.27-.27.67-.8.93-1a6.55 6.55 0 011.07-.33 1.07 1.07 0 01-.47.27.6.6 0 01.4.4c.07.07.07.13.07.27a2.93 2.93 0 01.67-.13 4.28 4.28 0 00-2 1.27 1.67 1.67 0 01.27-.47c-.13-.01-.2-.14-.27-.28zm4.47-1.66c.07.07.07.13.13.2l.07-.07c0-.07-.07-.07-.07-.13z"/><path d="M35.73 19.6c-.2-.27-.87-.67-1.2-.33s-.4.6-.67.8a3.11 3.11 0 01-.67.33 3.19 3.19 0 00-.67-1.13 2.22 2.22 0 00-.73-.6 9.54 9.54 0 01-1.6-1.27c-1.6-1.4-3-1.33-5.07-.47a4.41 4.41 0 00-2.07 1.73 1.3 1.3 0 00-1 .4l-.8.8a7.74 7.74 0 00-4.33 1.8 5.07 5.07 0 00-1.2 1.53 3 3 0 01-.87.73c-.27.13-.27.13-.33-.13.33-.2.33-.6.33-1 .2 0 .27.27.4.4.07-.33.07-.87-.27-1.07a3.25 3.25 0 00.2-.47c-.47.07-2.27 1.27-1.33 2.2a6.29 6.29 0 00.2.6.85.85 0 001.13.33 6 6 0 00-.07 1.93 1.85 1.85 0 00.07.6c-.07.27-.2.53-.27.8l-.73.73c-.27.27-.33.27-.27.67a2.36 2.36 0 00.67 1.27c.4.4 1.27 1 1.87.73a2 2 0 01-.2.67c-.47.87.53 1.07 1.27 1.27.53.13 2 .6 2.2-.2a3.8 3.8 0 00.07-.87 4.24 4.24 0 01.4-.67.85.85 0 00.13-.8v-.27a10.7 10.7 0 002.07 0 5.86 5.86 0 01-.67.4c-.67.33-.07 1.33.2 1.73.6.93 1.13 1.53 2.13 1 .33-.13.4-.33.6-.67.13-.07.73-.6 1.07-.87a1.57 1.57 0 00.8.27h1.13c.6 0 .93-.07 1-.73a.78.78 0 00-.13-.67v-1.03a4.39 4.39 0 00-.27-1c-.13-.33-.27-.6-.4-.93a.85.85 0 00.07-.4l.6.6a1.74 1.74 0 001.33.67 1.94 1.94 0 001.53-1.13l.2-.6a4.65 4.65 0 002.87-.33 4.08 4.08 0 001.95-3.35 9 9 0 00-.67-4zm-20.6 3.13c-.07-.07-.13-.13-.2-.13v-.27a.4.4 0 01.2.4zm-.8 1.6a6.29 6.29 0 01-.2-.6c-.6-.6.27-1.4.8-1.73a1 1 0 00-.13.4c-.13.53.07.93-.4 1.33.2.47.2.6.73.4a1 1 0 00.4-.27c-.07.2-.13.33-.2.53v.07c-.33.14-.8.27-1-.13zm.6 6.2a2.45 2.45 0 01-.53-1c-.07-.27 0-.27.2-.4l.67-.67a1 1 0 01.13-.46 9.8 9.8 0 001.27 2.67 1 1 0 01-.13.4c-.41.46-1.34-.2-1.61-.54zm13-1.33a2.05 2.05 0 01.2.87v1.13a.56.56 0 01.13.47c0 .53-.2.53-.6.53h-1.13c-.27-.07-.47-.07-.53-.13A5.79 5.79 0 0027.33 30a10.58 10.58 0 00.47-1.33 2.06 2.06 0 00.13.53zm8.13-5.6a3.92 3.92 0 01-1.73 3c-1.33.73-2.87.27-4.13-.13a2 2 0 01-.73-.4 2.2 2.2 0 010 .93c-.13.47-.33 1.27.27 1.4.27.07.33.07.73-.13a.92.92 0 01-.6 0c-.2 0-.27-.13-.33-.27.07.07.13.07.33.13a.79.79 0 001-.47c.07-.2.07-.27.13-.53a2.89 2.89 0 00.33.07l-.2.6a1.3 1.3 0 01-1.27.87 1.89 1.89 0 01-1.13-.6c-.2-.2-.47-.4-.67-.6a6.34 6.34 0 01-1.67-.8 2.69 2.69 0 001.2.93 13.5 13.5 0 01-.6 2.2 10.66 10.66 0 01-1.2 1.93c-.2.07-1.27 1-1.47 1.13a1.52 1.52 0 01-.53.6c-.67.4-1.13-.33-1.53-.93-.2-.27-.67-1.07-.2-1.27a7.94 7.94 0 001-.6c.07.13.13.2.2.33a.6.6 0 00-.07-.33v-.6a1.85 1.85 0 01.07-.6c-.07.2-.2.4-.27.6s-.07.13-.07.2a7.18 7.18 0 01-2.67.07c-.07-.33-.13-.67-.2-.93v1.47a1 1 0 01-.2.73c-.13.27-.2.33-.47.8a2.73 2.73 0 01-.07.73c-.13.47-1.4.13-1.73 0s-1.27-.27-1.07-.8a5.56 5.56 0 00.4-1.67 9 9 0 01-1.6-3.87 4 4 0 01.2-2.27A5.89 5.89 0 0117.13 22a6.55 6.55 0 013.6-1.53c-.4.4-.73.87-1.13 1.33a6.82 6.82 0 00-.93 1.47c-.33.73-.33 1 .13 1.6a4.72 4.72 0 01.8 1.33 3.61 3.61 0 00-.27 1 2.51 2.51 0 001.33 1 1.66 1.66 0 001.27-.13 6.65 6.65 0 012.87-1.13 5.42 5.42 0 00.2-3.4c-.13-.8-.2-1.53-.27-2.4a4.9 4.9 0 00-.07 2.4 4.21 4.21 0 01-.2 3 7.17 7.17 0 00-2.67 1.13 1.21 1.21 0 01-1.07.07c-.33-.07-.6-.33-1-.8a2 2 0 01.28-1.07A17 17 0 0121.07 24c-.47.6-.93 1.07-1.33 1.67a4 4 0 00-.74-1.14.92.92 0 01-.13-1.2 5 5 0 01.93-1.47c.73-.8 1.47-1.73 2.27-2.53.47-.47.6-.4 1.2-.53a13.65 13.65 0 001.6-.33 12.32 12.32 0 01-1.53.07 3.47 3.47 0 011.6-1.33c2-.87 3.33-1 4.87.33l1.2 1a1.7 1.7 0 00-.47.13 1.15 1.15 0 01.67.07c.07.07.13.07.2.13a2.61 2.61 0 01.67.53 4.25 4.25 0 01.53.93.5.5 0 00-.27-.07c-.07 0-.13-.07-.2-.07a.5.5 0 00-.33.07 1.59 1.59 0 01-.6.2c.07 0 .27.07.33 0h.07a.24.24 0 00-.07.2.6.6 0 00.07.33.07.07 0 00.07.07c-.07 0-.13.07-.27.07a2.86 2.86 0 011.07 0 2.89 2.89 0 00.07.33h-.15a.76.76 0 00-.67-.07c-.8.2-.6.67-1 1.33.4-.47.33-.93 1-1.13a.72.72 0 01.33-.07.78.78 0 00-.4.4c-.2.47-.07.87-.27 1.33a8.9 8.9 0 00.47-1.2.83.83 0 01.53-.4h.13c.47.47.47.73.47.93a6.31 6.31 0 01-.2 1.27 3.54 3.54 0 00.4-1.27 4.92 4.92 0 000-1.4c-.13-.6.53-.53.87-.8a8.71 8.71 0 00.73-.8c.27-.27.67.13.73.33a10 10 0 01.55 3.69zm-23.46-.67a3.06 3.06 0 01.47-1.07.9.9 0 00-.47 1.07zm10.2-5a3.31 3.31 0 011.87-1.8c-1.14.34-1.47.54-1.87 1.8z"/><path d="M22.93 17.07a2 2 0 01.87-.8c-.6.13-.73.2-.87.8zm6.4 8.8l.47-.2c-.13 0-.33.07-.47.07-.33.07-.4.13-.47.47 0 .13-.07.33-.07.53l.2-.6a1.17 1.17 0 01.34-.27z"/></svg>