<svg xmlns="http://www.w3.org/2000/svg" viewBox="0 0 50 50"><path d="M31.8 27.1c-1.5 0-2.8.7-3.8 1.7l-2.4-1.7c.2-.7.4-1.4.4-2.2 0-.8-.1-1.5-.4-2.2l2.3-1.6c.9 1 2.3 1.7 3.7 1.7 2.8 0 5-2.2 5-5s-2.2-5-5-5-5 2.2-5 5c0 .5.1 1 .2 1.4l-2.3 1.6c-1-1.2-2.4-2.1-4-2.3v-2.8c2.3-.5 4-2.5 4-4.9 0-2.8-2.2-5-5-5s-5 2.2-5 5c0 2.4 1.7 4.4 3.9 4.9v2.9c-3 .5-5.3 3.2-5.3 6.4s2.3 5.9 5.4 6.4v3c-2.2.5-3.9 2.5-3.9 4.9 0 2.8 2.2 5 5 5s5-2.2 5-5c0-2.4-1.7-4.4-3.9-4.9v-3c1.6-.3 3-1.1 3.9-2.3l2.4 1.7c-.1.4-.2.9-.2 1.4 0 2.8 2.2 5 5 5s5-2.2 5-5-2.2-5.1-5-5.1zm0-11.7c1.3 0 2.4 1.1 2.4 2.4 0 1.3-1.1 2.4-2.4 2.4s-2.4-1.1-2.4-2.4c0-1.3 1.1-2.4 2.4-2.4zm-14.6-4.6c0-1.3 1.1-2.4 2.4-2.4S22 9.5 22 10.8s-1.1 2.4-2.4 2.4-2.4-1.1-2.4-2.4zm4.9 28.4c0 1.3-1.1 2.4-2.4 2.4s-2.4-1.1-2.4-2.4 1.1-2.4 2.4-2.4 2.4 1.1 2.4 2.4zm-2.5-10.9c-1.9 0-3.4-1.5-3.4-3.4s1.5-3.4 3.4-3.4S23 23 23 24.9s-1.5 3.4-3.4 3.4zm12.2 6.2c-1.3 0-2.4-1.1-2.4-2.4s1.1-2.4 2.4-2.4 2.4 1.1 2.4 2.4-1 2.4-2.4 2.4z"/></svg>