<svg xmlns="http://www.w3.org/2000/svg" viewBox="0 0 50 50"><style>.st2{fill:#d72e27}.st3{fill:#a41f22}</style><g id="Layer_1"><path d="M35.2 3.3s-.1-.1 0 0c-.1-.1 0 0 0 0z" fill="#d7d8d9"/><path d="M40.8 28.8c.1-.4-.2-.6-.4-.8-.3-.2-.6-.2-.8-.4.3-.2.6-.4.8-.6.2-.2.4-.3.4-.6v-3c.1-.4-.1-.6-.4-.7-.3-.2-.7-.3-1-.5.3-.3.7-.4 1-.6.2-.2.5-.3.5-.7V18c.1-.4-.1-.6-.4-.8-.4-.2-.9-.4-1.3-.5-3.7-1.5-7.5-2.9-11.2-4.4-.7-.3-1.5-.6-2.3-.6-.9-.1-1.7.2-2.4.5-4.2 1.6-8.4 3.2-12.6 4.9-.7.1-1.3.3-1.7.7-.2.2-.4.3-.4.6v2.9c0 .3.1.5.3.6.3.3.8.5 1.2.7 0 .2-.1.2-.2.2-.3.1-.6.2-.9.4-.2.2-.5.3-.4.7v2.9c0 .2.1.4.2.5.3.3.7.4 1 .7-.2.2-.6.3-.8.5-.2.2-.5.3-.4.7v2.5c-.1.7.3 1.1.9 1.4.1.1.2.1.4.2 4.4 2 8.9 3.7 13.3 5.7.8.3 1.6.4 2.4.1.6-.2 1.2-.5 1.8-.8 3.4-1.6 6.9-3 10.3-4.5 1-.4 1.9-.8 2.8-1.4.2-.1.4-.3.4-.6 0-1 0-2-.1-3z" fill="#fff"/><path class="st2" d="M8.6 18.4c-.1-.3.1-.5.4-.6.5-.3 1-.5 1.6-.7 4.2-1.6 8.4-3.3 12.6-4.9.8-.3 1.6-.5 2.4-.5.8.1 1.5.4 2.3.6 3.7 1.5 7.5 2.9 11.2 4.4.4.2.9.3 1.3.5.3.2.5.4.4.8-.4.4-.9.7-1.5 1l-5.4 2.4c-2.6 1.1-5.2 2.2-7.7 3.4-1 .5-2.1.6-3.1.1-.3-.1-.7-.3-1-.5-1.7-.7-3.5-1.5-5.2-2.2-2.3-1-4.7-2-7-3-.5-.1-1-.4-1.3-.8zm23.7 1.2c1.5-.6 2.9-1.1 4.4-1.7-.8-.4-1.7-.7-2.5-1.1-.6-.2-1.2-.5-1.9-.7h-.2c-1 .4-1.9.8-2.9 1.2-.6.2-1.2.5-1.8.7.1 0 .1.1.1.1 1.3.5 2.5 1 3.8 1.5.4.2.7.2 1 0zm-14.1.1c.9 0 1.8-.1 2.7-.4.3-.1.6-.3.9-.5.5-.4.5-.9 0-1.4-.3-.2-.6-.4-.9-.5-1.7-.5-3.4-.5-5.1-.1-.4.1-.7.3-1 .5-.6.5-.6 1 0 1.5.3.2.6.3.9.4.6.4 1.5.5 2.5.5zm2 1.1c.1.1.1.1 0 0 1.7.8 3.4 1.4 5 2.1.2.1.3 0 .3-.1.5-.8 1.1-1.6 1.6-2.4.1-.2.3-.4.5-.7-2.5.4-4.9.8-7.4 1.1zm1.3-5.3c.9.2 1.7.2 2.6.3.3 0 .5.1.7.4.2.4.5.8.8 1.3.2-.5.4-.9.5-1.3.1-.2.2-.3.4-.3.5 0 1-.1 1.6-.2.3 0 .6-.1.8-.1-.6-.3-1.1-.5-1.7-.7-.3-.1-.3-.2-.2-.5.2-.3.3-.7.4-1-.7.2-1.3.4-1.9.6-.2.1-.4.1-.6 0-.6-.2-1.1-.4-1.7-.7-.1 0-.2-.1-.3 0 .2.4.4.8.7 1.2-.7.4-1.4.7-2.1 1z"/><path class="st3" d="M8.6 18.4c.3.5.8.7 1.3.9 2.3 1 4.7 2 7 3 1.7.7 3.5 1.5 5.2 2.2.3.1.7.3 1 .5 1.1.4 2.1.4 3.1-.1 2.5-1.2 5.1-2.3 7.7-3.4l5.4-2.4c.5-.2 1.1-.5 1.5-1V21c0 .4-.3.5-.5.7-.3.2-.7.3-1 .6-1.5.7-3 1.4-4.6 2-2.8 1.2-5.6 2.4-8.3 3.7-1 .5-2.1.7-3.2.2-1.5-.6-3-1.3-4.5-1.9-2.1-.9-4.3-1.8-6.4-2.7-.8-.3-1.5-.6-2.3-1-.4-.2-.8-.4-1.2-.7-.2-.2-.3-.4-.3-.6.1-1 .1-2 .1-2.9z"/><path class="st3" d="M40.8 23.5v3c0 .3-.2.5-.4.6-.3.2-.6.4-.8.6-1.6.8-3.3 1.5-5 2.2-2.7 1.2-5.4 2.3-8 3.6-1.1.5-2.3.7-3.4.2-1-.4-2-.8-2.9-1.3-2.1-.9-4.3-1.8-6.4-2.7-1.3-.6-2.7-1.1-4-1.7-.3-.3-.7-.4-1-.7-.1-.2-.2-.3-.2-.5v-2.9c.3.4.6.6 1 .8 2.2 1.1 4.5 1.9 6.8 2.9 2.2.9 4.4 1.8 6.5 2.7 1.1.5 2.2.5 3.3 0l3.9-1.8 4.8-2.1c1.7-.7 3.3-1.4 4.9-2.2.3-.1.7-.3.9-.7z"/><path class="st3" d="M40.8 28.8v3c0 .3-.2.5-.4.6-.9.6-1.8 1-2.8 1.4-3.4 1.5-6.9 2.9-10.3 4.5-.6.3-1.2.6-1.8.8-.8.2-1.6.2-2.4-.1-4.4-2-8.9-3.7-13.3-5.7-.1-.1-.2-.1-.4-.2-.6-.3-1-.7-.9-1.4.1-.8 0-1.7 0-2.5.2.4.6.6 1 .8 2.3 1.1 4.8 2 7.1 3 2 .9 4.1 1.7 6.1 2.6 1 .5 2.1.6 3.1.1 1.2-.5 2.4-1.1 3.6-1.6 1.8-.8 3.5-1.5 5.3-2.3 1.6-.7 3.3-1.4 4.9-2.2.6-.2 1-.4 1.2-.8z"/><path class="st2" d="M40.8 23.5c-.2.4-.6.6-1 .8-1.6.8-3.3 1.5-4.9 2.2l-4.8 2.1-3.9 1.8c-1.1.5-2.2.4-3.3 0-2.1-1-4.3-1.8-6.5-2.7-2.3-1-4.5-1.8-6.8-2.9-.4-.2-.8-.4-1-.8-.1-.3.2-.5.4-.7.3-.2.6-.3.9-.4.1 0 .2 0 .2-.2.7.4 1.5.7 2.3 1 2.1.9 4.3 1.8 6.4 2.7 1.5.6 3 1.3 4.5 1.9 1.1.5 2.2.3 3.2-.2 2.7-1.3 5.6-2.5 8.3-3.7 1.5-.7 3.1-1.3 4.6-2 .3.2.7.3 1 .5.3 0 .5.2.4.6z"/><path class="st2" d="M40.8 28.8c-.3.4-.7.6-1.1.8-1.6.8-3.2 1.5-4.9 2.2-1.8.8-3.5 1.5-5.3 2.3-1.2.5-2.4 1.1-3.6 1.6-1 .5-2.1.4-3.1-.1-2-.9-4.1-1.7-6.1-2.6-2.4-1-4.8-1.9-7.1-3-.4-.2-.7-.4-1-.8-.1-.4.2-.5.4-.7.2-.2.6-.2.8-.5 1.3.6 2.6 1.1 4 1.7 2.1.9 4.3 1.8 6.4 2.7 1 .4 2 .8 2.9 1.3 1.2.5 2.3.3 3.4-.2 2.6-1.3 5.3-2.4 8-3.6 1.7-.7 3.3-1.4 5-2.2.2.2.6.2.8.4.4.2.6.3.5.7z"/><path d="M18.2 19.7c-.9 0-1.8-.1-2.7-.4-.3-.1-.6-.2-.9-.4-.6-.5-.6-1 0-1.5.3-.2.7-.4 1-.5 1.7-.5 3.4-.5 5.1.1.3.1.7.3.9.5.5.4.5.9 0 1.4-.3.2-.6.4-.9.5-.7.2-1.6.3-2.5.3zm2 1.1c2.5-.4 4.9-.8 7.4-1.1-.2.3-.3.5-.5.7-.5.8-1.1 1.6-1.6 2.4-.1.1-.1.2-.3.1-1.6-.6-3.3-1.3-5-2.1.1.1.1.1 0 0zm1.3-5.3c.7-.3 1.5-.5 2.2-.8-.2-.4-.5-.8-.7-1.2.1-.1.2 0 .3 0 .6.2 1.1.4 1.7.7.2.1.4.1.6 0 .6-.2 1.2-.4 1.9-.6-.2.4-.3.7-.4 1-.1.3-.1.4.2.5.6.2 1.1.4 1.7.7-.3 0-.6.1-.8.1-.5.1-1 .1-1.6.2-.2 0-.3.1-.4.3-.2.4-.3.8-.5 1.3-.3-.5-.6-.9-.8-1.3-.2-.3-.4-.4-.7-.4-1-.3-1.9-.4-2.7-.5z" fill="#fffaf7"/><path d="M32.3 19.6c-.3.2-.6.2-1 0-1.3-.5-2.5-1-3.8-1.5 0 0-.1 0-.1-.1.6-.3 1.2-.5 1.8-.7 1-.4 1.9-.8 2.9-1.2h.2v3.5z" fill="#ac2324"/><path d="M32.3 19.6v-3.4c.7.2 1.3.5 1.9.7.8.3 1.6.6 2.5 1.1-1.5.5-2.9 1-4.4 1.6z" fill="#7a1515"/></g></svg>