<svg version="1.1" id="Layer_1" xmlns="http://www.w3.org/2000/svg" x="0" y="0" viewBox="0 0 50 50" xml:space="preserve"><style/><circle cx="25" cy="25" r="17" id="Layer_1_1_"/><path d="M21 22.7v-3.3c0-.6.4-1 1-1 1.1 0 2.2-.1 3.3.1 2.8.4 4.5 3.5 3.3 6.1-.3.6-.6 1-1.1 1.4-.1.1-.2.1-.3 0-.7-.5-.8-1.3-.9-2 0-.1.1-.2.2-.3 1.2-1.2.6-3.3-1-3.7-.4-.1-.4-.1-.4.3v1.2c0 .2 0 .3.2.4.4.2.5.5.4 1-.1.3-.4.6-.8.5-.3-.1-.4 0-.6.2-.2.2-.3.3-.5.4-.1.1-.2.1-.3 0-.1-.1 0-.2.1-.3.2-.2.4-.4.6-.5.1-.1.2-.2.1-.4-.2-.4 0-.7.3-.9.1-.1.2-.2.2-.3v-1.5c0-.2-.1-.2-.2-.2-.8 0-1.8.8-1.7 1.8.1.4-.1.6-.2.9-.1.2-.2.4.1.5.1 0 .1.1.1.2v.8c0 .4.2.5.5.6.7 0 .6 0 .7.7 0 .6-.4 1.1-.7 1.6-.1.1-.2.1-.3.1h-.9c-.8 0-1.1-.4-1.1-1.2-.1-1.1-.1-2.1-.1-3.2zM17 27c-2.2 0-3.9-1.4-4.4-3.5-.5-2 .5-4.2 2.4-5 1.7-.8 3.4-.7 4.9.4.4.3.5.8.3 1.2-.2.4-.7.6-1.1.4-.2-.1-.4-.2-.5-.3-1.1-.6-2.2-.6-3 0-.9.7-1.2 1.9-.9 3 .5 1.8 2.4 2.5 3.9 1.5.1-.1.2-.2.3-.2.5-.3 1-.3 1.3.1.3.4.2.9-.2 1.3-.9.8-1.8 1.1-3 1.1zm17.3-9c1 0 1.9.2 2.7.8.5.3.6.9.3 1.4-.3.4-.9.6-1.4.2-.8-.5-1.6-.8-2.5-.5-1.3.4-2 1.9-1.6 3.3.4 1.7 2.3 2.5 3.9 1.6.2-.1.3-.2.5-.3.4-.3.9-.2 1.2.2.3.4.3.9-.1 1.2-.8.8-1.8 1.1-2.9 1.1-2.2.1-4.2-1.4-4.6-3.6-.6-3.1 1.7-5.4 4.5-5.4z" fill="#387bbe"/><path d="M26.4 29.5c-.2.4-.3.8-.4 1.3l-.3.9c0 .1-.1.2-.2.2s-.2-.1-.2-.3l-.9-2.4c0-.1-.1-.3 0-.3.2-.1.2.1.2.2.2.6.4 1.3.7 1.9 0 .1.1.2.1.4.1-.1.1-.2.2-.3.2-.6.4-1.2.6-1.9 0-.1.1-.3.2-.3.2 0 .2.2.2.3.2.6.4 1.3.7 1.9 0 .1.1.2.2.3.2-.7.5-1.4.7-2.1 0-.1.1-.2.1-.3 0-.1.1-.1.2-.1s.1.1.1.2 0 .1-.1.2l-.9 2.4c0 .1-.1.3-.2.3-.2 0-.2-.2-.2-.3l-.6-1.8c0-.2 0-.3-.2-.4zm-11.8-1.7c.4 0 .8.1 1.1.3.1.1.2.2.1.3-.1.1-.2 0-.3 0-.5-.3-1-.4-1.5-.2-.3.1-.5.4-.5.7 0 .3.2.6.5.7.5.2 1 .3 1.4.5.7.3.8 1.2.2 1.6-.3.2-.7.4-1 .4-.5 0-1-.2-1.4-.5-.1-.1-.2-.2-.1-.3.1-.1.2 0 .3 0 .5.4 1 .6 1.7.4.2-.1.4-.2.5-.4.3-.4.1-.9-.3-1-.4-.1-.8-.2-1.2-.4-.7-.2-1-.6-1-1.1.1-.6.5-.9 1.2-1h.3zm5.8 2.7v-1.1c0-.2 0-.3-.2-.2-.1 0-.2 0-.2-.1s.1-.1.2-.1c.3 0 .2-.2.2-.3 0-.7.4-1 1-1 .1 0 .3 0 .3.2 0 .1-.2.1-.3.1-.2 0-.5 0-.6.3-.1.2-.1.5-.1.7.1.2.3.1.5.1h.2c.1 0 .3-.1.3.1s-.2.1-.3.1c-.7 0-.7 0-.7.6v1.7c0 .1 0 .3-.1.3-.2 0-.1-.2-.1-.3-.1-.4-.1-.7-.1-1.1zm2.1-.2v-.9c0-.2 0-.3-.2-.3-.1 0-.2 0-.2-.1s.1-.1.2-.1c.2 0 .2-.1.2-.3v-.5c0-.1 0-.2.1-.2s.1.1.1.2v.2c0 .6 0 .6.6.6.2 0 .4-.1.4.1s-.3.1-.4.1c-.7 0-.6-.1-.6.6V31c0 .5.3.7.8.6.1 0 .2-.1.2.1 0 .1-.1.2-.2.2-.6.2-1.1-.2-1.1-.8.1-.2.1-.5.1-.8zm10.2-.7c.2-.2.3-.3.5-.4.2-.2.4-.2.6-.2.1 0 .2 0 .2.1s-.1.1-.1.2c-.9.3-1.1.6-1.2 1.6v1c0 .1 0 .2-.1.2s-.2-.1-.2-.2v-2.6c0-.1 0-.2.2-.2.1 0 .1.1.1.2-.1 0-.1.1 0 .3zm3.1-.7c-.9-.2-1.6.3-1.7 1.3-.1.7.2 1.3.8 1.7.6.3 1.3.2 1.7-.2.1-.1.2-.1.1-.3-.1-.2-.2 0-.3.1-.1 0-.2.1-.2.2-.7.4-1.5.1-1.7-.6-.1-.2-.1-.4.2-.4h1.9c.1 0 .2-.1.2-.2.1-.8-.3-1.5-1-1.6zm.5 1.4h-1.6c-.2 0-.2-.1-.2-.2.1-.5.5-.9 1.1-.9.5 0 1 .4 1 .9 0 .1-.1.2-.3.2zm-4.8 1.3V30c0-.4-.2-.8-.6-1-.5-.2-1-.1-1.5.1-.1 0-.2.1-.1.2s.2.1.2 0c.4-.2.7-.2 1.1-.1.3.1.5.3.6.6 0 .2.1.4-.3.3-.5-.1-1-.1-1.5.1-.5.3-.6.9-.3 1.3s1 .5 1.4.3c.2-.1.4-.2.6-.4.1.2 0 .4.2.4.3.1.2-.1.2-.2zm-1.4.1c-.2 0-.3 0-.5-.1s-.4-.3-.4-.6.1-.5.4-.6c.5-.2 1-.1 1.6 0 .1 0 .1.1.1.2 0 .7-.5 1.1-1.2 1.1zm-12-2.8c-.8 0-1.5.7-1.6 1.6 0 .8.7 1.6 1.5 1.6.9 0 1.6-.7 1.6-1.6 0-1-.6-1.6-1.5-1.6zm0 2.8c-.7 0-1.2-.6-1.2-1.3 0-.7.5-1.3 1.2-1.3s1.2.6 1.2 1.3c.1.8-.5 1.3-1.2 1.3z" fill="#898989"/></svg>