<svg data-name="Layer 1" xmlns="http://www.w3.org/2000/svg" viewBox="0 0 50 50"><path d="M42.072 27.525c.578-2.61 1.145-5.143 1.699-7.68a1.684 1.684 0 012.857-1.089.737.737 0 01.333.887q-1.528 5.516-3.043 11.036a1.158 1.158 0 01-1.07.925 7.841 7.841 0 01-1.034.043 1.334 1.334 0 01-1.504-1.137c-.605-1.857-1.195-3.719-1.792-5.578a1.752 1.752 0 00-.363-.783c-.266.784-.513 1.5-.75 2.22-.456 1.375-.896 2.755-1.363 4.126-.338.99-.735 1.2-2.056 1.155-1.01-.034-1.356-.295-1.624-1.252-.992-3.54-1.974-7.084-2.978-10.621a.821.821 0 01.425-1.084c1.333-.789 2.459-.343 2.81 1.175.548 2.375 1.069 4.757 1.603 7.135.04.178.094.353.196.73.387-1.204.719-2.23 1.045-3.256.327-1.03.643-2.063.972-3.092.267-.833.765-1.139 1.825-1.14 1.058 0 1.527.287 1.799 1.152.558 1.778 1.098 3.561 1.653 5.34a1.595 1.595 0 00.36.788zm-36.08-7.581a5.304 5.304 0 015.385-1.461 4.731 4.731 0 013.456 4.845c.036 2.304.017 4.61.004 6.915-.006 1.022-.44 1.402-1.526 1.405-1.053.002-1.502-.399-1.51-1.429-.019-2.098-.005-4.195-.01-6.293a3.116 3.116 0 00-.662-2.06 3.017 3.017 0 00-3.971-.203 2.386 2.386 0 00-1.138 2.14c.063 2.073.026 4.149.017 6.223a1.524 1.524 0 01-2.27 1.551 1.049 1.049 0 01-.687-.807 4.077 4.077 0 01-.06-.755c-.003-3.504.022-7.008-.02-10.512-.008-.713.3-.939.896-1.026.95-.14 1.56.271 2.096 1.467zm16.243 11.708a6.018 6.018 0 01-5.356-3.162 6.971 6.971 0 01.03-7.115c.708-1.258 1.799-1.479 2.728-.653a.86.86 0 01.137 1.354 4.507 4.507 0 00-.493 4.882 3.68 3.68 0 004.197 2.03 3.856 3.856 0 002.985-3.616 4.973 4.973 0 00-.841-3.143c-.299-.453-.647-.851-.097-1.382a1.633 1.633 0 011.935-.44 2.831 2.831 0 011.041 1.17 6.879 6.879 0 01-2.49 9.265 7.518 7.518 0 01-3.776.81z" fill="#d02229"/><path d="M23.987 22.469c0 .921.02 1.843-.005 2.764-.025.937-.487 1.388-1.351 1.382-.845-.007-1.294-.489-1.298-1.43q-.011-2.73 0-5.46c.005-.998.4-1.451 1.245-1.468.97-.02 1.378.383 1.404 1.447.023.921.005 1.843.005 2.765z" fill="#d02229"/></svg>