<svg width="58" height="58" viewBox="-3 -3 64 64" fill="none" xmlns="http://www.w3.org/2000/svg"><path d="M29 58c16.016 0 29-12.984 29-29S45.016 0 29 0 0 12.984 0 29s12.984 29 29 29z" fill="#5F67FA"/><path d="M40.075 35.09c0 1.96-5.406 3.418-11.064 3.418-5.657 0-11.085-1.481-11.085-3.5v4.305c0 2.042 5.232 3.605 11.005 3.605 6.049 0 11.132-1.715 11.132-3.896v-3.967l.011.035z" fill="#fff"/><path d="M28.931 35.907c6.05 0 11.132-1.715 11.132-3.885v-4.189c0 1.96-5.405 3.419-11.063 3.419s-11.086-1.482-11.086-3.5v4.48c.012 2.123 5.244 3.675 11.017 3.675z" fill="#fff"/><path d="M28.931 28.813c6.164 0 11.132-1.68 11.132-3.955v-4.025c0 1.96-5.405 3.419-11.063 3.419s-11.086-1.482-11.086-3.5v4.398c.012 2.053 5.244 3.663 11.017 3.663z" fill="#fff"/><path d="M29.058 21.58c5.995 0 10.855-1.462 10.855-3.267 0-1.804-4.86-3.266-10.855-3.266-5.996 0-10.857 1.462-10.857 3.266 0 1.805 4.86 3.267 10.857 3.267z" fill="#fff" fill-opacity=".6"/></svg>