<svg xmlns="http://www.w3.org/2000/svg" viewBox="0 0 50 50"><circle cx="25" cy="25" r="24" fill="#eaeae9"/><path d="M10.9 31l-1.8-2.9L7.3 31H5.2l2.9-4.4-2.8-4.2h2.1l1.7 2.8 1.7-2.8h2.1L10 26.6l3 4.4h-2.1zm8.9 0h-4.9V19h4.7c2.2 0 3.6 1.3 3.6 3.3 0 1.3-.8 2.2-1.6 2.6.9.4 1.8 1.3 1.8 2.8 0 2.1-1.5 3.3-3.6 3.3zm-.4-10.4h-2.7v3.5h2.7c1.2 0 2-.6 2-1.7 0-1.2-.8-1.8-2-1.8zm.2 5.1h-2.9v3.7h2.9c1.3 0 2-.8 2-1.8s-.7-1.9-2-1.9zM32.8 31l-2.5-5.1H28V31h-1.8V19h4.7c2.3 0 3.7 1.5 3.7 3.5 0 1.7-1 2.8-2.4 3.2L35 31h-2.2zm-2.2-10.4h-2.7v3.8h2.7c1.2 0 2-.7 2-1.9.1-1.2-.7-1.9-2-1.9zM37.2 31V19H39v10.4h5.8V31h-7.6z"/></svg>