<svg xmlns="http://www.w3.org/2000/svg" viewBox="0 0 50 50"><path d="M35.2 3.3s-.1-.1 0 0c-.1-.1 0 0 0 0z" fill="#d7d8d9"/><path d="M16.9 31.8l-1.1-3.1h-6l-1.1 3.1H6.2l5.7-15.4h1.9l5.7 15.4h-2.6zm-4-12l-2.4 6.9h4.7l-2.3-6.9zm12.8 12.1c-2.3 0-4-.5-5.5-2l1.5-1.5c1.1 1.1 2.4 1.5 4 1.5 2 0 3.2-.9 3.2-2.4 0-.7-.2-1.2-.6-1.6-.4-.3-.9-.5-1.7-.7l-1.8-.3c-1.3-.2-2.2-.6-2.9-1.2-.8-.7-1.1-1.7-1.1-3 0-2.7 2-4.5 5.2-4.5 2.1 0 3.5.5 4.8 1.8l-1.5 1.5c-1-.9-2.1-1.2-3.4-1.2-1.8 0-2.8 1-2.8 2.4 0 .6.2 1.1.6 1.4.4.3.8.6 1.7.7l1.8.3c1.4.2 2.2.5 2.9 1.1.8.8 1.3 1.8 1.3 3.2-.1 2.8-2.4 4.5-5.7 4.5zm8.1-.1v-2l5.9-7.2c.6-.7.8-1.3.8-2.1 0-1.4-.8-2.3-2.3-2.3-1.2 0-2.3.7-2.3 2.4h-2.2c0-2.6 1.9-4.4 4.5-4.4s4.5 1.7 4.5 4.3c0 1.4-.5 2.2-1.5 3.3l-4.8 5.9h6.3v2h-8.9z"/></svg>