<svg xmlns="http://www.w3.org/2000/svg" viewBox="0 0 50 50"><linearGradient id="a" gradientUnits="userSpaceOnUse" x1="24.705" y1="31.915" x2="14.93" y2="31.915"><stop offset="0" stop-color="#c0dff5"/><stop offset="1" stop-color="#64b2e2"/></linearGradient><path opacity=".8" fill="url(#a)" stroke="#79c2eb" stroke-width=".081" stroke-miterlimit="10" d="M14.9 22.9l9.8 5.8V41l-9.8-6.6z"/><linearGradient id="b" gradientUnits="userSpaceOnUse" x1="31.097" y1="39.824" x2="28.308" y2="24.007"><stop offset="0" stop-color="#c0dff5"/><stop offset="1" stop-color="#64b2e2"/></linearGradient><path opacity=".8" fill="url(#b)" stroke="#79c2eb" stroke-width=".081" stroke-miterlimit="10" d="M34.7 34.5V22.9l-10 6V41z"/><linearGradient id="c" gradientUnits="userSpaceOnUse" x1="7.947" y1="22.473" x2="41.509" y2="22.473"><stop offset="0" stop-color="#c0dff5"/><stop offset="1" stop-color="#64b2e2"/></linearGradient><path opacity=".9" fill="url(#c)" stroke="#79c2eb" stroke-width=".081" stroke-miterlimit="10" d="M24.8 16.5l6.8-5.7 9.9 6.3-6.5 5.4 6.5 5.6-10.1 6-6.6-5.1-6.7 5.1-10.2-6 7.1-5.3-7.1-5.4 10.2-6.6z"/><linearGradient id="d" gradientUnits="userSpaceOnUse" x1="26.47" y1="27.24" x2="19.313" y2="19.007"><stop offset="0" stop-color="#ebf7fd"/><stop offset="1" stop-color="#c6e9f9"/></linearGradient><path opacity=".7" fill="url(#d)" d="M15.1 22.7l9.7-5.9-.1 12z"/><linearGradient id="e" gradientUnits="userSpaceOnUse" x1="24.728" y1="22.778" x2="34.429" y2="22.778"><stop offset="0" stop-color="#ebf7fd"/><stop offset="1" stop-color="#c6e9f9"/></linearGradient><path opacity=".7" fill="url(#e)" d="M24.8 16.8l9.6 5.5-9.7 6.5z"/></svg>