<svg data-name="Layer 1" xmlns="http://www.w3.org/2000/svg" width="50" height="50" viewBox="0 0 50 50"><path d="M17.2 29.2a4.4 4.4 0 01-3.5-1.3l1.2-1.1a3.5 3.5 0 002.3.7c1.1 0 1.7-.4 1.7-1.1a1.1 1.1 0 00-.3-.8 1.1 1.1 0 00-.9-.3l-1.1-.2a3 3 0 01-1.8-.8 2.1 2.1 0 01-.7-1.8c0-1.7 1.2-2.9 3.3-2.9a4.2 4.2 0 013 1.1l-1.2 1.2a2.4 2.4 0 00-1.9-.7c-1 0-1.4.6-1.4 1.2a1.4 1.4 0 00.2.7 1.2 1.2 0 00.9.3l1.1.2a2.8 2.8 0 011.8.8 2.4 2.4 0 01.7 1.9c0 1.9-1.5 2.9-3.4 2.9zm10.5-.1l-.5-1.7h-3.4l-.5 1.7h-2l3.5-9.4h1.4l3.4 9.4zm-2.2-6.6l-1.2 3.4h2.4zm8.9 3.1h-1.8v3.5h-1.8v-9.4h3.6a2.8 2.8 0 013.1 2.9 2.9 2.9 0 01-3.1 3zm-.1-4.3h-1.7v2.6h1.7a1.2 1.2 0 001.4-1.3 1.3 1.3 0 00-1.4-1.3z" fill="#00a0df"/></svg>