<svg xmlns="http://www.w3.org/2000/svg" viewBox="0 0 50 50"><style>.st2{fill:#eaeae9}</style><g id="Layer_1"><path d="M35.2 3.3s-.1-.1 0 0c-.1-.1 0 0 0 0z" fill="#d7d8d9"/><circle cx="25" cy="25" r="24" fill="#2f7cb9"/><path class="st2" d="M26.3 19.8c-2.5 0-4.7 1.4-5.8 3.5-1.1-2.1-3.3-3.5-5.8-3.5-1.5 0-2.8.5-3.9 1.3v-5.5c0-.7-.6-1.3-1.3-1.3s-1.3.6-1.3 1.3v10.9c.1 3.6 3 6.5 6.6 6.5 2.5 0 4.7-1.4 5.8-3.5 1.1 2.1 3.3 3.5 5.8 3.5 3.6 0 6.6-2.9 6.6-6.6-.2-3.7-3.1-6.6-6.7-6.6zM14.7 30.3c-2.2 0-3.9-1.8-3.9-3.9 0-2.2 1.8-3.9 3.9-3.9 2.2 0 3.9 1.8 3.9 3.9 0 2.1-1.8 3.9-3.9 3.9zm11.6 0c-2.2 0-3.9-1.8-3.9-3.9 0-2.2 1.8-3.9 3.9-3.9 2.2 0 3.9 1.8 3.9 3.9 0 2.1-1.8 3.9-3.9 3.9z"/><path class="st2" d="M41.6 30.9l-3.4-4.5 3.4-4.5c.4-.6.3-1.4-.3-1.8-.6-.4-1.4-.3-1.8.2l-2.9 3.9-2.9-3.9c-.4-.6-1.2-.7-1.8-.2-.6.4-.7 1.2-.3 1.8l3.4 4.5-3.4 4.5c-.4.6-.3 1.4.3 1.8.6.4 1.4.3 1.8-.2l2.9-3.9 2.9 3.9c.4.6 1.2.7 1.8.2.6-.4.8-1.3.3-1.8z"/></g></svg>