<svg xmlns="http://www.w3.org/2000/svg" viewBox="0 0 50 50"><path d="M11.4 26.2H8.8v4.4H7.1V19.4h4.2c2.2 0 3.6 1.4 3.6 3.4s-1.4 3.4-3.5 3.4zm-.1-5.2H8.8v3.7h2.4c1.2 0 2-.7 2-1.9s-.8-1.8-1.9-1.8zm12.1 8.5c-.7.7-1.7 1.1-2.9 1.1s-2.2-.4-2.9-1.1c-1.1-1.1-1.1-2.2-1.1-4.5s0-3.4 1.1-4.5c.7-.7 1.7-1.1 2.9-1.1s2.2.4 2.9 1.1c1.1 1.1 1.1 2.2 1.1 4.5s0 3.4-1.1 4.5zm-1.2-8c-.4-.4-1-.7-1.7-.7s-1.2.3-1.7.7c-.5.6-.7 1.3-.7 3.5s.1 2.9.7 3.5c.4.4 1 .7 1.7.7s1.2-.3 1.7-.7c.6-.6.7-1.2.7-3.5 0-2.2-.1-2.9-.7-3.5zm9.1 4.7h-2.5v4.4H27V19.4h4.2c2.2 0 3.6 1.4 3.6 3.4s-1.4 3.4-3.5 3.4zm-.1-5.2h-2.4v3.7h2.4c1.2 0 2-.7 2-1.9-.1-1.2-.9-1.8-2-1.8zm8.3 9.7c-1.8 0-3.3-1-3.4-3.1h1.6c.1 1.2.9 1.7 1.8 1.7 1 0 1.8-.7 1.8-1.8s-.6-1.8-1.9-1.8h-.3v-1.4h.3c1.2 0 1.7-.7 1.7-1.7 0-1.1-.7-1.7-1.6-1.7-1 0-1.6.6-1.7 1.6h-1.6c.1-1.9 1.5-3 3.3-3 1.9 0 3.2 1.3 3.2 3.1 0 1.2-.5 2-1.4 2.4 1 .4 1.6 1.3 1.6 2.6 0 2-1.6 3.1-3.4 3.1z"/></svg>