<svg width="58" height="58" viewBox="0 0 58 58" fill="none" xmlns="http://www.w3.org/2000/svg"><path d="M29 58c16.016 0 29-12.984 29-29S45.016 0 29 0 0 12.984 0 29s12.984 29 29 29z" fill="#5F67FA"/><path fill-rule="evenodd" clip-rule="evenodd" d="M37.154 37.923V18.231h-14.77V17h16.001v.044a4.324 4.324 0 013.692 4.264v.615h-3.692v16c0 .012-.006 3.692-3.693 3.692h-16.41c-1.813 0-3.282-1.377-3.282-3.077 0-1.699 1.47-3.076 3.282-3.076h.41v-14.77h1.231v14.77h14.77c-1.813 0-3.283 1.377-3.283 3.076 0 .693.244 1.332.656 1.847h2.626c.01 0 2.462-.005 2.462-2.462zm-14.77-19.692s-2.461 0-2.461 2.461h-1.23s0-3.692 3.692-3.692v1.23zm5.998 8.192a.65.65 0 010 .846l-3.857 4.325a.498.498 0 01-.376.176.507.507 0 01-.377-.176.65.65 0 010-.846l3.482-3.901-3.482-3.903a.65.65 0 010-.846.493.493 0 01.753 0l3.857 4.325zm.649 5.346h3.938c.272 0 .492-.275.492-.615 0-.34-.22-.616-.492-.616h-3.938c-.272 0-.492.276-.492.616 0 .34.22.615.492.615z" fill="#fff"/></svg>