<svg data-name="Layer 1" xmlns="http://www.w3.org/2000/svg" viewBox="0 0 50 50"><path fill="none" d="M1.001 0h49v49h-49z"/><path d="M8.622 37.692a24.605 24.605 0 002.97 3.77h26.132v-3.77zm0-26.384a24.605 24.605 0 012.97-3.77h26.132v3.77z" fill="#087299"/><path fill="#00a3e0" d="M27.281 18.846h-3.282l-4.957 7.08-4.958-7.08h-3.281L2.885 30.154h4.601l4.958-7.08 4.957 7.08h3.282l4.957-7.08 4.957 7.08h4.601l-7.917-11.308z"/><path fill="#087299" d="M37.521 40.045l2.31 3.301h4.602l-4.099-5.857-2.813 2.556z"/><path d="M42.38 11.308a24.606 24.606 0 00-2.97-3.77h-5.75a20.984 20.984 0 012.73 2.303q.706.706 1.334 1.467a20.736 20.736 0 010 26.384q-.628.76-1.334 1.467a20.984 20.984 0 01-2.73 2.302h5.75a24.506 24.506 0 002.97-30.153z" fill="#087299"/></svg>