<svg width="58" height="58" viewBox="-3 -3 64 64" fill="none" xmlns="http://www.w3.org/2000/svg"><path d="M29 58c16.016 0 29-12.984 29-29S45.016 0 29 0 0 12.984 0 29s12.984 29 29 29z" fill="#5F67FA"/><path d="M40.052 19.605l-4.664-4.648c-.543-.541-1.541-.957-2.312-.957H19.844A2.843 2.843 0 0017 16.834v24.332A2.843 2.843 0 0019.844 44h18.312A2.843 2.843 0 0041 41.166V21.91c.012-.768-.405-1.763-.948-2.304zm-1.82.478h-2.111c-.67 0-1.226-.541-1.226-1.221v-2.104l3.337 3.325zm1.15 21.096c0 .667-.543 1.221-1.226 1.221H19.844c-.67 0-1.226-.541-1.226-1.221V16.834c0-.668.543-1.222 1.226-1.222h12.208c.67 0 1.226.542 1.226 1.222v2.027a2.843 2.843 0 002.843 2.834h2.035c.67 0 1.226.542 1.226 1.222v18.262z" fill="#fff"/><path d="M26.864 36c-.803-.204-1.408-.54-1.816-1.009-.404-.464-.606-1.08-.606-1.846V31.93c0-.99-.48-1.486-1.442-1.486v-.886c.962 0 1.442-.493 1.442-1.48v-1.271c.01-.746.211-1.347.606-1.803.399-.461 1.004-.795 1.816-1.003l.258.703c-.947.273-1.421.984-1.421 2.134v1.234c0 .925-.379 1.57-1.136 1.932.757.367 1.136 1.017 1.136 1.95v1.26c.013 1.12.487 1.815 1.421 2.084l-.258.703zm4.006-.703c.921-.265 1.398-.94 1.43-2.023v-1.345c0-.942.41-1.584 1.23-1.926-.82-.334-1.23-.976-1.23-1.926v-1.24c0-1.15-.475-1.86-1.422-2.134l.258-.703c.803.204 1.406.536 1.81.996.403.457.607 1.062.612 1.816v1.284c0 .974.48 1.46 1.442 1.46v.887c-.962 0-1.442.495-1.442 1.486v1.235c0 .766-.206 1.379-.62 1.84-.407.46-1.008.792-1.802.996l-.265-.703z" fill="#fff"/></svg>