<svg xmlns="http://www.w3.org/2000/svg" viewBox="0 0 50 50"><circle cx="25" cy="25" r="24" fill="#4675b9"/><path d="M35.4 13H14.5c-1.4 0-2.5 1.1-2.5 2.5V34c0 1.4 1.1 2.5 2.5 2.5h17l6.4-6.3V15.5c0-1.4-1.1-2.5-2.5-2.5zm-19 4.1c0-.6.5-1.1 1.1-1.1.6 0 1.1.5 1.1 1.1 0 .6-.5 1.1-1.1 1.1-.6 0-1.1-.5-1.1-1.1zm9.1 13.3c-.2.5-.5.8-.9 1.1-.4.3-.8.6-1.3.7-.5.2-1.1.3-1.6.3-.7 0-1.3-.1-1.8-.3-.5-.2-1-.5-1.3-.8-.3-.4-.6-.8-.8-1.3-.2-.5-.3-1.1-.3-1.7h1.9c0 .7.2 1.3.5 1.8.4.5 1 .7 1.7.7.6 0 1.2-.2 1.6-.6.4-.4.7-.9.7-1.6 0-.5-.1-.8-.3-1.1-.2-.3-.4-.5-.7-.6-.3-.1-.6-.2-1-.3h-1.1v-1.5c.3 0 .6 0 1-.1l.9-.3c.3-.1.5-.3.6-.6.2-.3.2-.6.2-.9 0-.5-.2-.9-.5-1.2-.3-.3-.8-.5-1.3-.5-.3 0-.6.1-.9.2-.3.1-.5.3-.6.6-.2.2-.3.5-.4.8-.1.3-.1.6-.1.9h-1.9c0-.6.1-1.1.3-1.6.2-.5.5-.9.8-1.3.3-.4.7-.6 1.2-.9.5-.2 1-.3 1.6-.3.5 0 .9.1 1.4.2s.9.3 1.2.6c.4.3.6.6.9 1 .2.4.3.9.3 1.4 0 .6-.1 1.1-.4 1.6s-.7.8-1.3 1c.7.1 1.2.5 1.6 1 .4.5.6 1.2.6 2-.2.6-.3 1.1-.5 1.6zm6.5 1.9h-2.1v-8.4H27v-1.5c.4 0 .8 0 1.2-.1.4-.1.7-.2 1.1-.3.3-.2.6-.4.8-.6.2-.3.4-.6.4-.9H32v11.8zm.5-14.1c-.6 0-1.1-.5-1.1-1.1 0-.6.5-1.1 1.1-1.1.6 0 1.1.5 1.1 1.1 0 .6-.5 1.1-1.1 1.1z" fill="#fff"/></svg>