<svg width="58" height="58" viewBox="-3 -3 64 64" fill="none" xmlns="http://www.w3.org/2000/svg"><path d="M29 58c16.016 0 29-12.984 29-29S45.016 0 29 0 0 12.984 0 29s12.984 29 29 29z" fill="#5F67FA"/><path d="M31.822 19.566a.788.788 0 01-.784-.788v-2.136a.788.788 0 00-.784-.787H18.26a.788.788 0 00-.784.787v18.374c0 .439.359.787.784.787h21.695c.436 0 .784-.36.784-.787V20.353a.788.788 0 00-.784-.788h-8.132zM29 35.803v3.486m14 1.26H15" stroke="#fff" stroke-width="1.5" stroke-miterlimit="10"/><path d="M29 43a2.21 2.21 0 002.206-2.215A2.21 2.21 0 0029 38.57a2.21 2.21 0 00-2.206 2.215A2.21 2.21 0 0029 43zm-5.228-15.113h-2.11v2.229H21v-5.047h3.114v.548h-2.451v1.726h2.109v.544zm4.678-2.27h-1.616v4.499h-.66v-4.5h-1.611v-.547h3.886v.548zm1.408 2.523v1.976h-.663v-5.047h1.854c.55 0 .98.141 1.29.423.314.282.47.655.47 1.12 0 .49-.153.867-.459 1.133-.304.263-.74.395-1.308.395h-1.184zm0-.544h1.19c.355 0 .627-.083.815-.25.19-.168.284-.41.284-.727 0-.3-.095-.541-.284-.721-.188-.18-.447-.274-.776-.281h-1.23v1.979zm5.278.27c-.569-.164-.983-.365-1.243-.603a1.165 1.165 0 01-.386-.887c0-.398.157-.726.473-.984.317-.261.729-.392 1.235-.392.345 0 .653.067.922.201a1.5 1.5 0 01.628.555c.15.235.225.493.225.772h-.667c0-.305-.096-.544-.29-.717-.193-.176-.466-.263-.818-.263-.327 0-.582.072-.766.218-.182.143-.273.343-.273.6 0 .205.087.38.26.523.174.14.47.27.886.388.42.118.746.248.98.392.238.14.413.306.525.495.116.19.173.413.173.67 0 .408-.159.736-.476.983-.318.245-.743.368-1.274.368-.345 0-.667-.066-.967-.198a1.657 1.657 0 01-.694-.547 1.343 1.343 0 01-.241-.787h.666c0 .305.112.547.335.724.225.176.526.264.9.264.35 0 .619-.072.805-.215a.7.7 0 00.28-.586c0-.247-.087-.438-.26-.572-.172-.136-.485-.27-.938-.402z" fill="#fff"/></svg>