<svg xmlns="http://www.w3.org/2000/svg" viewBox="0 0 50 50"><path d="M16.7 31.1c1.3-.1 4.1.2 5.3.5.2 0 .3-.1.4-.2l1.7-7.1c.2-.8-.4-1.5-1.2-1.5h-3.8c-.6 0-1 .4-1.2.9l-1.5 7c0 .2.1.4.3.4zm7.2.8c1.4.1 4.1.8 5.3 1.1.2 0 .3-.1.4-.2L32.4 21c.2-.8-.4-1.5-1.2-1.5h-3.8c-.6 0-1 .4-1.2.9l-2.7 11.1c0 .3.2.4.4.4zm7.2 1.5c.6.2 4.1 1.5 5.1 2.1.2 0 .3-.1.4-.2l4.7-20c.2-.8-.4-1.5-1.2-1.5h-3.8c-.6 0-1 .4-1.2.9L30.8 33c0 .2.1.4.3.4zM8.9 30.9c1.3-.1 4.3-.1 5.5.2.2 0 .3-.1.4-.2l.7-2.8c.2-.8-.4-1.5-1.2-1.5h-3.8c-.6 0-1 .4-1.2.9l-.7 3c0 .2.1.4.3.4z" fill="#7271b2"/></svg>