<svg width="58" height="58" viewBox="-3 -3 64 64" fill="none" xmlns="http://www.w3.org/2000/svg"><path d="M29 58c16.016 0 29-12.984 29-29S45.016 0 29 0 0 12.984 0 29s12.984 29 29 29z" fill="#5F67FA"/><path fill-rule="evenodd" clip-rule="evenodd" d="M15 19v18.204a52.365 52.365 0 0014.087 1.921c4.882 0 9.606-.67 14.088-1.92V19H15zm26.163 16.652a50.48 50.48 0 01-12.075 1.46 50.48 50.48 0 01-12.076-1.46v-12.58l12.075 8.454 12.076-8.454v12.58zm-.568-14.64H17.58l11.508 8.058 11.507-8.058z" fill="#fff"/></svg>