<svg xmlns="http://www.w3.org/2000/svg" viewBox="0 0 50 50"><g data-name="Layer 3"><circle cx="25" cy="25" r="25" fill="#394a5e"/><path d="M42.788 28.221a2.899 2.899 0 01-1.718.954 4.022 4.022 0 01-4.842-3.072 4.284 4.284 0 118.429-1.17c.019 1.305.007 2.61.008 3.914 0 .292-.096.395-.386.402-.362.008-.724.01-1.087.002-.3-.006-.4-.118-.404-.415-.002-.205 0-.41 0-.615zm-2.393-5.577a2.378 2.378 0 00-2.402 2.355 2.38 2.38 0 102.402-2.355zM9.919 29.26l-3.986-.001a.534.534 0 01-.56-.743 2.429 2.429 0 01.437-.737c.946-1.13 1.91-2.245 2.866-3.365.403-.471.808-.94 1.206-1.417a1.436 1.436 0 00.146-.284 1.335 1.335 0 00-.328-.086c-1.207-.003-2.415.003-3.623.006a2.296 2.296 0 01-.265-.008.372.372 0 01-.378-.412 43.18 43.18 0 010-1.038c.003-.297.145-.438.45-.44.467-.004.934-.001 1.401-.001l5.484.001a.709.709 0 01.33.039.45.45 0 01.22.268 2.92 2.92 0 01.002.723.695.695 0 01-.179.329q-2.075 2.452-4.158 4.898a.38.38 0 00-.062.074c-.035.074-.064.152-.095.228a.786.786 0 00.234.083c.459.005.918-.002 1.377-.004.894-.004 1.788 0 2.681-.018a.33.33 0 01.382.292 5.958 5.958 0 00.342.925 2.886 2.886 0 00.35.456c.03.041.07.103.057.141-.011.037-.08.063-.129.08a.38.38 0 01-.12.003H9.92zm16.556-.01a4.257 4.257 0 114.27-4.217 4.248 4.248 0 01-4.27 4.217zm2.403-4.237a2.395 2.395 0 10-4.79-.022 2.395 2.395 0 004.79.022zm-9.265 3.237a2.523 2.523 0 01-2.202.966 7.083 7.083 0 01-1.583-.077 2.013 2.013 0 01-1.635-1.808 8.005 8.005 0 01-.119-1.39c-.014-1.579-.005-3.157-.005-4.735 0-.398.072-.47.46-.47.346 0 .692-.003 1.039 0 .287.003.388.106.388.396.001 1.458-.008 2.915.007 4.372a4.243 4.243 0 00.135 1.046 1.004 1.004 0 001.041.804 3.701 3.701 0 001.024-.109 1.855 1.855 0 001.324-1.573 6.98 6.98 0 00.12-1.27c.017-1.054.005-2.109.006-3.164 0-.433.073-.502.508-.503h.966c.323.003.417.102.417.448v7.609c0 .377-.09.465-.473.467-.338.001-.677.004-1.015-.001-.294-.005-.391-.1-.401-.392-.007-.205-.002-.41-.002-.616zm13.795-6.503a2.393 2.393 0 011.877-.963 5.774 5.774 0 01.77-.043.26.26 0 01.29.325c-.058.447-.12.893-.176 1.34a.295.295 0 01-.295.29 2.353 2.353 0 00-2.364 2.054 5.906 5.906 0 00-.142 1.243c-.02.942-.006 1.885-.007 2.827 0 .342-.088.435-.421.438-.354.004-.709.005-1.063 0-.29-.005-.39-.11-.39-.4v-7.732c0-.277.105-.386.374-.39q.568-.006 1.136.001c.262.003.36.105.366.368.005.201.007.402.01.603 0 .005.01.01.035.04z" data-name="tF0AsK.tif" fill="#fff"/></g></svg>