<svg xmlns="http://www.w3.org/2000/svg" width="192" height="192" viewBox="0 0 192 192"><path opacity=".4" fill="none" d="M0 0h192v192H0z"/><linearGradient id="a" gradientUnits="userSpaceOnUse" x1="96" y1="25" x2="12.922" y2="108.078"><stop offset="0" stop-color="#1a6ddd"/><stop offset=".139" stop-color="#2976e6"/><stop offset=".339" stop-color="#377fee"/><stop offset=".584" stop-color="#4084f3"/><stop offset="1" stop-color="#4285f4"/></linearGradient><path fill="url(#a)" d="M84 13L12.92 84.31c-6.56 6.56-6.56 17.21 0 23.77s17.21 6.56 23.77 0L108 37 84 13z"/><path fill="#34A853" d="M108.01 37c-6.64 6.64-17.39 6.66-24.03.02s-6.62-17.39.02-24.04c6.64-6.64 17.39-6.66 24.04-.02s6.62 17.4-.03 24.04z"/><path fill="#FBBC04" d="M179.09 84.04c-6.55-6.56-17.16-6.56-23.71-.02l-.01-.01L84 155l23.89 24.11 71.22-71.33-.01-.01c6.54-6.55 6.53-17.18-.01-23.73z"/><circle fill="#34A853" cx="96" cy="167" r="17"/><path fill="#FBBC04" d="M144.02 47.99c-6.64-6.65-17.39-6.65-24.03 0-.14.14-.26.29-.39.44L84 84l24 24 35.59-35.55c.14-.13.29-.25.43-.39 6.64-6.65 6.64-17.43 0-24.07z"/><linearGradient id="b" gradientUnits="userSpaceOnUse" x1="95.93" y1="96.059" x2="47.948" y2="144.041"><stop offset="0" stop-color="#1a6ddd"/><stop offset=".133" stop-color="#2775e5"/><stop offset=".356" stop-color="#367eed"/><stop offset=".616" stop-color="#3f83f2"/><stop offset="1" stop-color="#4285f4"/></linearGradient><path fill="url(#b)" d="M83.95 84.07l-36.19 36.15c-6.62 6.6-6.36 17.26.25 23.87 6.61 6.6 17.08 6.65 23.69.05l36.22-36.06-23.97-24.01z"/><path fill="#34A853" d="M108 108c-6.65 6.65-17.37 6.79-24.02.14-6.65-6.65-6.63-17.49.02-24.14 6.65-6.65 17.4-6.58 24.05.07s6.6 17.29-.05 23.93z"/></svg>