<svg xmlns="http://www.w3.org/2000/svg" viewBox="0 0 50 50"><path d="M4.7 28.9v-7.7h4.9v1H5.9v2.2h3.2v1H5.9v2.3h3.8v1h-5zm11.4-1c-.5.7-1.2 1-2.2 1h-2.7v-7.7H14c1 0 1.6.3 2.2 1 .6.7.6 1.6.6 2.9s-.1 2.1-.7 2.8zm-.9-5.2c-.3-.4-.8-.5-1.3-.5h-1.4v5.6h1.4c.6 0 1-.2 1.3-.5.4-.4.4-1.1.4-2.3s-.1-1.9-.4-2.3zm3.3 6.2v-7.7h1.2v7.7h-1.2zm4.3-6.7v2.3H26v1h-3.2v3.3h-1.2v-7.7h4.9v1h-3.7zm8.9 6.7l-.5-1.5h-3l-.5 1.5h-1.2l2.8-7.7h.9l2.8 7.7h-1.3zm-2-6l-1.2 3.4h2.4l-1.2-3.4zm6.7 6c-.8 0-1.5-.3-2-.8-.7-.8-.8-1.5-.8-3.1s0-2.4.8-3.1c.5-.5 1.1-.8 2-.8 1.4 0 2.5.8 2.7 2.4H38c-.2-.8-.7-1.3-1.6-1.3-.5 0-.9.2-1.1.5-.4.4-.5.9-.5 2.4s.1 2 .5 2.4c.3.3.7.5 1.1.5.9 0 1.4-.5 1.6-1.3h1.2c-.3 1.4-1.3 2.2-2.8 2.2zm6.7-6.7v6.7H42v-6.7h-2.1v-1h5.4v1h-2.2z"/></svg>