<svg xmlns="http://www.w3.org/2000/svg" viewBox="0 0 50 50"><circle cx="25" cy="25" r="24" fill="#d52027"/><path d="M7.3 23h2.8v9H7.3zm4.3 0h2.7v.8s.5-1 2.7-1c2.8 0 3.3 1.8 3.3 4.2v5h-2.8v-4.4c0-1 0-2.4-1.4-2.4s-1.7 1.1-1.7 2.3V32h-2.8v-9zm10.1-1.6c0-2 .5-3.6 3.5-3.6.6 0 1.1 0 1.6.2l-.1 2.3c-.3-.1-.6-.2-.9-.2-.9 0-1.3.3-1.3 1.5V23h2v2.2h-2V32h-2.8V21.4zm10.1 1.4c2.8 0 5 1.8 5 4.7 0 2.9-2.2 4.7-5 4.7s-5-1.8-5-4.7c.1-2.9 2.3-4.7 5-4.7m0 7c1.4 0 2.2-.9 2.2-2.3 0-1.3-.8-2.3-2.2-2.3-1.4 0-2.2.9-2.2 2.3 0 1.3.9 2.3 2.2 2.3m6.1-6.8h2.8v.8s.7-1.1 3.5-1v2.4c-.4-.1-.8-.2-1.2-.2-2.1 0-2.4 1.5-2.4 3.3V32h-2.8v-9zM7.3 20.1l2.8-1.9v3.3H7.3z" fill="#fff"/></svg>