<svg version="1.1" id="Layer_1" xmlns="http://www.w3.org/2000/svg" x="0" y="0" viewBox="0 0 50 50" xml:space="preserve"><style>.st0{fill-rule:evenodd;clip-rule:evenodd}</style><path class="st0" d="M12.6 10.4h-.5l-.2.1-.1.1h-.1l-.1.1h-.1v.1l-.1.1v.1l-.1.2V24l.1.1V24h.1l.1.1h.1l.2.1h.1l.2.1h7.9l.1-.1v-2.4l-.1-.1h-5.8l-.1-.1H14v-.1l-.1-.1v-8l.1-.1v-.1l.1-.1V13h.1l.1-.1h.1l.1-.1h7.7l.1.1h.1l.2.2v6.3l.1.1h2.1l.1-.1.1-.1v-8.5l-.2-.2h-.1l-.1-.1-.2-.1H12.6zM23 21.8l-.2.1V24l.1.1h2.2v-2.2h-.3c-.7-.1-1.8-.1-1.8-.1zm5.9-6.2h-.4l-.2.1h-.1l-.1.1H28l-.1.2h-.1v.1l-.1.1v.1l-.1.2-.1.2v2.9l.1.1h1.9l.1-.1.1-.1v-1.2l.1-.1.1-.1h3.9l.1.1v3.3l.1.1v.1l-.1.1h-1.6l-.1.1-.1.1v2.1l.1.1h2.9l.2-.1h.1l.1-.1h.1l.3-.3.1-.2.1-.2V16l-.3-.3h-.1l-.2-.1h-6.6zm-14.7 11h-.4l-.2.1h-.1l-.1.1h-.1v.2h-.1v.1l-.1.1v.1l-.1.1-.1.2v11.1l.1.1v.1h.1l.1.1h.1l.1.1h.1l.2.1H24l.3-.1.2-.1h.1l.2-.2v-.1l.1-.1.1-.1v-.3l.1-.2v-6.4h-2.2l-.1.1-.1.1-.1.1v4.4l-.1.1-.2.2-.1.1h-6.4l-.1-.1h-.1v-.1l-.1-.1V30l.1-.3v-.1l.1-.1v-.1h.1l.1-.1h.1l.1-.1h4.7l.1-.1v-2.4l-.1-.1-.1-.1h-.1c-2.3.1-6.4.1-6.4.1zm18.3 0s-.1 0 0 0l-.2.1-.1.1-.1.1V29l.1.1h2.7l.2.1h.2v5.2l-.1.1-.1.1H35l-.1.1h-4.8v-3.4l-.1-.1-.1-.1h-2.1l-.1.1-.1.1-.1.1v5.1l.1.1v.1h.1l.1.1h.1l.1.1h.1l.2.1h8.8l.1-.1h.1l.2-.2v-.1l.1-.1v-.1l.1-.2v-9.1l-.3-.3h-.2l-.2-.1-.2-.1h-4.3zM27.8 22s-.1 0 0 0h-.2v2.2l.1.1h2.2v-2.2h-.3c-.8-.2-1.8-.1-1.8-.1z"/><path class="st0" d="M22.9 26.6s-.1 0 0 0l-.2.1v2.2l.1.1H25v-2.2h-.3c-.8-.2-1.8-.2-1.8-.2zm4.9 0s-.1 0 0 0l-.2.1v2.2l.1.1h2.2v-2.2h-.3c-.8-.2-1.8-.2-1.8-.2z"/></svg>