<svg data-name="Layer 1" xmlns="http://www.w3.org/2000/svg" width="50" height="50" viewBox="0 0 50 50"><path d="M19.2 22.8a2.9 2.9 0 01-2.4-.9l.8-.8a2.2 2.2 0 001.6.5c.7 0 1.1-.2 1.1-.8s-.1-.3-.2-.5-.2-.2-.6-.2h-.7a3.2 3.2 0 01-1.3-.5 1.8 1.8 0 01-.4-1.3 2 2 0 012.2-2 3 3 0 012.1.8l-.8.8a1.8 1.8 0 00-1.3-.5c-.7 0-1 .4-1 .8s0 .4.2.5l.6.2.7.2a1.4 1.4 0 011.2.5 1.4 1.4 0 01.5 1.3 2 2 0 01-2.3 1.9zm7.2-.1l-.4-1.1h-2.3l-.4 1.1H22l2.3-6.4h1l2.4 6.4zm-1.5-4.5l-.8 2.3h1.5zm6 2.1h-1.2v2.4h-1.2v-6.4h2.4a2 2 0 110 4zm0-2.9h-1.2v1.8h1.2a.9.9 0 100-1.8zM8.6 32.8a3 3 0 01-2.4-.9l.8-.8a2.4 2.4 0 001.6.5c.7 0 1.1-.2 1.1-.8a.6.6 0 00-.2-.5.6.6 0 00-.5-.2h-.8a3.2 3.2 0 01-1.3-.5 1.8 1.8 0 01-.4-1.3 2 2 0 012.2-2 3 3 0 012.1.8l-.8.8a1.8 1.8 0 00-1.3-.5c-.7 0-1 .4-1 .8s0 .4.2.5a.8.8 0 00.6.2l.7.2a1.7 1.7 0 011.8 1.7c0 1.3-1.1 2-2.4 2zm3.9.6h-1.1l2.5-7.8H15zm6.5-1.6v.9h-1.1v-.9h-2.6v-1.1l2.2-4.4h1.3l-2.2 4.4h1.3v-1.2H19v1.2h.6v1.1zm5.1.9V30h-2.2v2.7h-1.3v-6.4h1.3v2.6h2.2v-2.6h1.2v6.4zm6.4 0l-.4-1.1h-2.3l-.4 1.1h-1.3l2.3-6.4h1l2.4 6.4zM29 28.2l-.8 2.3h1.5zm7.3 4.5l-2.5-3.9v3.9h-1.2v-6.4h1.1l2.5 3.9v-3.9h1.3v6.4zm6.3 0l-.4-1.1h-2.3l-.3 1.1h-1.4l2.4-6.4h1l2.3 6.4zm-1.5-4.5l-.8 2.3h1.6z" fill="#14a2dc"/></svg>