<svg version="1.0" xmlns="http://www.w3.org/2000/svg" width="1813.333" height="906.667" viewBox="0 0 1360 680"><path d="M152.6 152.6c-1.4 1.4-1.6 13.1-1.6 113.5 0 100.8.2 112 1.6 112.6 1.1.4 10.6-8.5 32.7-30.4 32.4-32.2 39.5-38 49.7-41 10.9-3.2 26 .1 63.1 13.8 22.6 8.4 24.9 8.9 24.9 6.3 0-1.2-10.5-12.4-26-27.9l-26-26-12.8.1c-21.8.3-43.5 5.3-60.4 14.1-4 2.1-7.6 3.9-8 4.1-.5.2-.8-29.1-.8-65.1 0-61-.1-65.5-1.7-66.9-1.5-1.3-29.1-8.8-32.2-8.8-.5 0-1.7.7-2.5 1.6zm294.9 2.2c-7.7 2.1-14.6 4.1-15.2 4.5-1.8 1.2-1.9 366.7-.1 368.5.8.8 6.1 1.2 17.4 1.2 13.4 0 16.5-.3 17.8-1.6 1.4-1.4 1.6-19.8 1.6-187.4s-.2-186-1.6-187.4c-2.1-2.2-3.8-2-19.9 2.2zm739.8 0c-7.8 2.1-14.7 4.2-15.2 4.7-.7.7-1.2 18.8-1.3 52.5l-.3 51.5-39.5.6c-43.7.7-51.2 1.5-68 7.2-30.7 10.5-50.4 32.8-58.9 66.7-4.6 18.3-5.4 28.7-4.9 65 .4 28.5.7 33.8 2.7 43.3 5 24.3 12.9 40.5 26.5 54.5 14.4 14.8 35 23.9 61.6 27.2 12.5 1.5 116.2 1.4 117.8-.2 1.7-1.7 1.7-373.9 0-375.6-1.8-1.8-4.9-1.4-20.5 2.6zm-16.8 241.7v96H1131c-44.9 0-48.7-.5-63-7.6-17.3-8.7-26.8-25.9-29.9-54.3-1.4-12.3-1.4-56.5 0-68.1 4.7-39.6 20.8-57.4 55.8-61.5 3.6-.4 22.4-.7 41.6-.6l35 .1v96zM596 264.6c-52.7 4.6-74.9 22.8-83.7 68.7-1.6 8-1.8 15.2-1.8 54.2 0 39.5.2 46.2 1.8 55 5.4 29 16.9 50.7 34.2 64.8 8.1 6.5 23.9 14.2 35.6 17.1 15.1 3.9 26.1 4.6 67.8 4.6 34.1 0 39.2-.2 40.5-1.6.9-.8 1.6-2.1 1.6-2.7 0-2.9-7.4-28.4-8.7-29.9-1.3-1.5-5.6-1.7-41.6-2.1-44.6-.4-48.2-.8-61.2-7.1-3.8-1.8-8.9-5-11.2-7-12.2-10.7-19.9-32.2-20.6-58.1l-.2-9 83.8-.5c73-.4 83.9-.7 84.8-2 1.7-2.5.5-63.6-1.5-74.8-3.7-21.1-10.4-35.8-21.2-46.6-10.9-11-26.6-18-47.3-21.2-9.3-1.4-42-2.6-51.1-1.8zm44.4 37.8c26.6 5.9 38 23.3 38.8 59.6l.3 12.5h-131l.2-13c.5-38.8 13.8-56 46.8-60.4 9.6-1.3 36.5-.5 44.9 1.3zM759.8 265c-1.7 1-1.8 8.4-1.8 131.3 0 100 .3 130.6 1.2 131.5 1.5 1.5 32.5 1.7 34.8.2 1.3-.8 1.6-15 2-114.2l.5-113.3 40.5.1c44.6 0 49.2.5 61.6 6.3 11.5 5.4 18.3 14.9 22 31.1 1.6 6.8 1.8 16.4 2.1 98 .3 62.1.7 90.8 1.5 91.7 1.6 2 34.1 1.8 35.7-.1.9-1.1 1.1-24.6.8-94.3-.3-81.6-.5-93.9-2-101.9-7.6-41-24.9-58-66.7-65.1-7.9-1.3-19.9-1.7-70-2-41.6-.2-61 0-62.2.7z"/><path d="M287.7 274.7c-.4.3-.7 1.3-.7 2.2 0 .8 12.3 13.9 27.4 29.1 16 16.1 28.9 29.9 31 33.3 6.7 10.5 8.8 17.7 9.4 31.2.6 17.5-2.7 33.9-13.9 68.2-5.9 18-6.5 21.8-3.4 21.1 1.7-.3 49.9-46.4 51-48.8 1.4-3 2.2-21.7 1.4-33.1-3.1-41.1-25-74.8-60.6-92.8-13.5-6.8-38.9-13.2-41.6-10.4zm-111.9 95.4L151 395.3v9.6c0 20.9 3.2 44 7.9 57.5 4.3 12.3 15.7 28.7 27.1 38.9 15.4 13.9 36.6 23.5 58.8 26.7 8.6 1.3 11.2 1 11.2-1.3 0-.8-7.5-8.5-16.7-17-28.2-26.1-45.1-46.8-50.8-62-5.7-15.5-1.9-43.5 12-86.5 2.5-7.8 4.3-14.7 4-15.2-.3-.6-1.4-1-2.3-1-.9-.1-12.8 11.3-26.4 25.1z"/><path d="M362.5 449.1c-51.7 51.9-55.2 53.5-92.4 42.2-6.3-1.9-19.5-6.4-29.3-10-12.6-4.7-18.2-6.3-18.9-5.6-.7.7-.8 1.7-.3 2.5.5.7 12.5 12.5 26.7 26.2l25.8 24.9 12.2-.7c25.1-1.5 46-6.9 61.1-15.7 9.6-5.7 22.9-19.2 28.3-28.9 5.2-9.2 9.6-22.5 11.7-34.9 2-11.7 2.1-24.1.3-24.1-.6 0-12 10.8-25.2 24.1z"/></svg>