<svg version="1.1" id="Layer_1" xmlns="http://www.w3.org/2000/svg" xmlns:xlink="http://www.w3.org/1999/xlink" x="0" y="0" viewBox="0 0 612 792" xml:space="preserve"><style/><g id="Page-1_2_"><image width="2264" height="2263" xlink:href="C0D87591F9615777.png" transform="matrix(.24 0 0 .24 42.006 90.661)" overflow="visible" opacity=".25"/><g id="Examples_14_" transform="translate(-400 -630)"><g id="Group_14_" transform="translate(400 630)"><g id="Rectangle-4_14_"><path id="path-1_17_" d="M161.6 102.7h304.2c56 0 101.4 45.4 101.4 101.4v304.2c0 56-45.4 101.4-101.4 101.4H161.6c-56 0-101.4-45.4-101.4-101.4V204.1c0-56 45.4-101.4 101.4-101.4z" fill="#fff"/></g></g></g></g><linearGradient id="SVGID_1_" gradientUnits="userSpaceOnUse" x1="187.229" y1="404.719" x2="359.229" y2="404.719"><stop offset="0" stop-color="#05acd3"/><stop offset=".175" stop-color="#1aa0cd"/><stop offset=".543" stop-color="#337fbb"/><stop offset="1" stop-color="#4056a6"/></linearGradient><path d="M273.2 335.3v69.5h-69.5c-9.1 0-16.5 7.4-16.5 16.5v52.9c0 9.1 7.4 16.5 16.5 16.5h155.5v-172h-69.5c-9.1 0-16.5 7.4-16.5 16.6z" fill="url(#SVGID_1_)"/><path d="M445.2 250.4v222.7c0 9.7-7.9 17.6-17.6 17.6h-68.4V250.4c0-9.7 7.9-17.6 17.6-17.6h50.7c9.8-.1 17.7 7.8 17.7 17.6z" fill="#000b8c"/></svg>