<svg xmlns="http://www.w3.org/2000/svg" viewBox="0 0 50 50"><path d="M30.7 22.5V19c1.2-.3 2.1-1.4 2.1-2.7 0-1.6-1.3-2.9-2.9-2.9-1.6 0-2.9 1.3-2.9 2.9 0 1.2.8 2.2 1.8 2.7v3.6c-1 .1-1.9.4-2.7.9L16.4 16c.1-.4.2-.8.2-1.2 0-1.7-1.4-3.1-3.1-3.1-1.7 0-3.1 1.4-3.1 3.1 0 1.7 1.4 3.1 3.1 3.1.7 0 1.3-.2 1.8-.5l9.4 7.1c-1.5 1.4-2.4 3.3-2.4 5.5 0 2.7 1.4 5.1 3.6 6.4L23.5 40h-.3C22 40 21 41 21 42.3c0 1.3 1 2.3 2.3 2.3 1.3 0 2.3-1 2.3-2.3 0-.5-.2-1-.5-1.4l2.4-3.8c.7.2 1.5.4 2.3.4 4.1 0 7.5-3.4 7.5-7.5 0-3.9-2.9-7.1-6.6-7.5m-.8 11.9c-2.4 0-4.4-2-4.4-4.4 0-2.4 2-4.4 4.4-4.4 2.4 0 4.4 2 4.4 4.4 0 2.4-2 4.4-4.4 4.4z" fill="#ed6e23"/><path d="M12.2 14c-.3.5-.7.8-.9.7-.2-.1-.1-.6.2-1.1.3-.5.7-.8.9-.7.2 0 .1.6-.2 1.1m17.8.1c.6.1 1.1.3 1 .5-.1.2-.6.4-1.3.3-.6-.1-1.1-.3-1-.5.1-.2.7-.3 1.3-.3m-7.9 26.8c.5-.4.9-.6 1-.4.1.2-.1.7-.6 1.2-.5.4-.9.6-1 .4-.1-.3.2-.8.6-1.2" fill="#ffdba4"/></svg>