<svg data-name="Layer 1" xmlns="http://www.w3.org/2000/svg" width="50" height="50" viewBox="0 0 50 50"><path d="M13.3 27.8a2.4 2.4 0 01-1.7-.7c-.6-.6-.7-1.3-.7-2.6a3.5 3.5 0 01.7-2.6 2.4 2.4 0 011.7-.6 2.4 2.4 0 012.4 2h-1.3a1.1 1.1 0 00-1.1-.9 1.1 1.1 0 00-.8.3c-.2.3-.3.6-.3 1.8s.1 1.6.3 1.8a1.2 1.2 0 00.8.4 1.1 1.1 0 001.1-.9h1.3a2.4 2.4 0 01-2.4 2zm6.6-.6a2.1 2.1 0 01-1.5.6 1.8 1.8 0 01-1.4-.6 2.4 2.4 0 01-.5-1.8 2.3 2.3 0 01.5-1.8 1.8 1.8 0 011.4-.6 2.1 2.1 0 011.5.6 2.3 2.3 0 01.5 1.8 2.4 2.4 0 01-.5 1.8zm-.9-3a1.1 1.1 0 00-.6-.2l-.5.2a1.6 1.6 0 00-.3 1.2c0 .5 0 .9.3 1.1s.3.2.5.2.4 0 .6-.2a1.6 1.6 0 00.3-1.1 2.1 2.1 0 00-.3-1.2zm5.3 3.5v-2.8a.8.8 0 10-1.6 0v2.8h-1.2V23h1.2v.5a1.7 1.7 0 012.3-.1 2 2 0 01.4 1.3v3zm4.3.1c-1 0-2.1-.5-2.1-2.4s1.1-2.4 2.1-2.4a2 2 0 011.5.6l-.8.8a1 1 0 00-.7-.4.9.9 0 00-.7.3 1.8 1.8 0 00-.3 1.1 1.3 1.3 0 00.3 1 1 1 0 001.4 0l.8.7a1.8 1.8 0 01-1.5.7zm5.1-.1v-.4a1.7 1.7 0 01-1.2.5 2.1 2.1 0 01-1.1-.4A2.1 2.1 0 0131 26v-3h1.1v2.9a.8.8 0 101.6 0V23h1.2v4.7zm5-3.4a.7.7 0 00-.6-.3.8.8 0 00-.8.9v2.8h-1.1V23h1.1v.5a1.5 1.5 0 011.2-.5 1.4 1.4 0 011.1.4z" fill="#14a2dc"/></svg>