<svg width="58" height="58" viewBox="-3 -3 64 64" fill="none" xmlns="http://www.w3.org/2000/svg"><path d="M29 58c16.016 0 29-12.984 29-29S45.016 0 29 0 0 12.984 0 29s12.984 29 29 29z" fill="#5F67FA"/><g clip-path="url(#clip0)"><path d="M31.822 19.566a.788.788 0 01-.784-.788v-2.136a.788.788 0 00-.784-.787H18.26a.788.788 0 00-.784.787v18.374c0 .439.359.787.784.787h21.695c.436 0 .784-.36.784-.787V20.353a.788.788 0 00-.784-.788h-8.132zM29 35.803v3.486m14 1.26H15" stroke="#fff" stroke-width="1.5" stroke-miterlimit="10"/><path d="M29 43a2.21 2.21 0 002.206-2.215A2.21 2.21 0 0029 38.57a2.21 2.21 0 00-2.206 2.215A2.21 2.21 0 0029 43zm-3.183-15.137h-2.143v2.265H23V25h3.164v.556h-2.49v1.754h2.143v.553zm4.753-2.307h-1.642v4.572h-.67v-4.572H26.62V25h3.95v.556zM32 28.12v2.008h-.673V25h1.884c.559 0 .996.143 1.312.43.318.286.477.665.477 1.137 0 .498-.156.882-.467 1.152-.308.267-.751.401-1.329.401h-1.203zm0-.553h1.211c.36 0 .636-.084.828-.253.192-.172.288-.418.288-.74 0-.305-.096-.55-.288-.732-.192-.183-.455-.278-.79-.286h-1.248v2.011z" fill="#fff"/></g><defs><clipPath id="clip0"><path fill="#fff" transform="translate(15 15)" d="M0 0h28v28H0z"/></clipPath></defs></svg>