<svg width="58" height="58" viewBox="0 0 58 58" fill="none" xmlns="http://www.w3.org/2000/svg"><path d="M29 58c16.016 0 29-12.984 29-29S45.016 0 29 0 0 12.984 0 29s12.984 29 29 29z" fill="#5F67FA"/><path d="M15.133 31.133v-11.2c0-2.645 2.155-4.8 4.8-4.8h13.334m9.6 11.734v11.2c0 2.645-2.155 4.8-4.8 4.8H24.733m12.968-16.683H31.75m0-5.952v5.952m0 0l8.917-8.917M20.848 31.133H26.8m0 5.952v-5.952m0 0l-8.917 8.918" stroke="#fff" stroke-width="2" stroke-miterlimit="10" stroke-linecap="round" stroke-linejoin="round"/></svg>