<svg version="1.1" id="Layer_1" xmlns="http://www.w3.org/2000/svg" x="0" y="0" viewBox="0 0 50 50" xml:space="preserve"><style>.st0{fill:#3a4c74}.st1{fill:#eeeef2}.st2{fill:#99a9c1}</style><path class="st0" d="M38 30c.5 0 .8-.4.8-1 0-2.9-1.3-8-8.1-8s-8.1 5.2-8.1 8c0 .5.3 1 .8 1"/><circle class="st0" cx="30.6" cy="16.5" r="6.5"/><circle class="st1" cx="30.6" cy="16.5" r="5.1"/><path class="st2" d="M24.9 28.6c-.5 0-.7-.2-.7-.7.1-2.4 1.5-4.2 3.7-5.1.1-.1.3-.1.4 0 1.5.6 3.1.6 4.7 0 .2-.1.4 0 .6.1 1.3.6 2.4 1.4 3.1 2.7.4.8.5 1.6.5 2.5 0 .3-.4.5-.8.5H24.9z"/><path class="st0" d="M26.6 35.7c.5 0 .8-.4.8-1 0-2.9-1.3-8-8.1-8s-8.1 5.2-8.1 8c0 .5.3 1 .8 1"/><circle class="st0" cx="19.2" cy="22.1" r="6.5"/><circle class="st1" cx="19.2" cy="22.1" r="5.1"/><path class="st2" d="M13.5 34.3c-.5 0-.7-.2-.7-.7.1-2.4 1.5-4.2 3.7-5.1.1-.1.3-.1.4 0 1.5.6 3.1.6 4.7 0 .2-.1.4 0 .6.1 1.3.6 2.4 1.4 3.1 2.7.4.8.5 1.6.5 2.5 0 .3-.4.5-.8.5H13.5z"/></svg>