<svg xmlns="http://www.w3.org/2000/svg" viewBox="0 0 50 50"><path d="M32.4 17.9h-1.3v6.2h-7.4v1.2h8.6v-.1h.1zm-8.7-9.3h-8.6V16h1.2V9.8h7.4zm7.4 6.9h1.2v1.2h-1.2zm-16 1.7h1.2v1.2h-1.2zm3.7 2.5h-7.4v7.4H20v-7.4h-1.2zm0 6.2h-6.2v-5h6.2v5zm16-19.1h-7.4v7.4H36V6.8h-1.2zm0 6.2h-6.2V8h6.2v5z" fill="#58595a"/><path d="M19.4 39.1l-1.6-3.2h-1.5v3.2h-1.2v-7.7h3c1.5 0 2.4.9 2.4 2.3 0 1.1-.7 1.8-1.5 2l1.8 3.4h-1.4zm-1.3-6.6h-1.7v2.4h1.7c.8 0 1.3-.4 1.3-1.2 0-.8-.5-1.2-1.3-1.2zm9.8 6.6V34l-1.8 3.8h-.9L23.4 34v5.1h-1.2v-7.7h1.2l2.2 4.8 2.2-4.8H29v7.7h-1.1zm3.1 0v-7.7h1.2v7.7H31z"/></svg>