<svg xmlns="http://www.w3.org/2000/svg" viewBox="0 0 381 381"><style>.st2385{fill:#006fb5}</style><g id="Layer_1"><path class="st2385" d="M168.9 324.4c-13.2-3.4-21.5-14.6-21-28.5.4-12.4 10.1-23.3 22.8-25.5 8.1-1.4 15.6.4 22 5.7 2.8 2.3 3.2 5.5 1.3 7.9-1.9 2.3-5 2.5-7.8.3-9.9-8.1-24.1-2.8-27.3 8.6-2 7.1.7 14.5 6.7 18.7 6.1 4.2 13.8 4.1 19.8-.2.5-.3.9-.8 1.4-1.1 2.4-1.5 5.4-1.1 7 .9 1.7 2.1 1.5 5.3-.6 7.2-3.6 3.3-7.8 5.3-12.6 6.2-.2 0-3.1.6-5.9.5-2.8 0-5.5-.6-5.8-.7zm184-45.7c-2.5 3.7-3.8 4.1-8.1 2.7-11.7-3.9-23 4.3-23 16.6v20.9c0 2.6-.7 4.8-3.4 5.8-1.2.3-2.4.3-3.6 0-2.6-.9-3.5-2.8-3.4-5.4v-43.2c0-3.5 1.5-5.6 4.4-5.9 3.1-.4 5.1 1.2 6 4.6.1.2.1.5.3.9 3.7-2.5 7.6-4.5 12-5.2 4.4-.7 8.8-.6 13.1.6 2.4.7 4.4 2 5.7 4.1v3.5zm-137-223c0 7-.1 14 0 21 0 1.6-.4 2.1-2.1 2.1-7.1-.1-14.1-.1-21.2 0-1.7 0-2.1-.5-2.1-2.1.1-6.1 0-12.2 0-18.2 0-.9-.1-1.8-.2-2.7 8.6-.1 17.1-.1 25.6-.1zm-46 82.1h80.7c5.2 0 10.1-1.1 14.8-3.1 1.1-.5 1.7-.8 1-2.3-6.5-13.2-4.9-26 2.4-38.3 3.3-5.5 3.6-5.5 8.6-1.6 7.7 5.9 13.7 12.9 15.5 22.8.3 1.7 1.3 1.3 2.4 1.2 7.2-.7 14.3-.7 21.3 1.5 3.2 1 5.7 3 8.5 4.7 1.1.7.7 1.4.4 2.3-6.2 15.3-18 22.3-34.2 22.2-2.4 0-3.4.7-4.3 2.8-17.2 38.8-47 62.2-88.2 71.2-15.5 3.4-31.3 4.5-47.2 3-22.2-2.1-41.3-10.4-54.5-29.2-11.5-16.4-15.5-34.9-13.6-54.8.2-1.9.8-2.5 2.8-2.5 27.7.1 55.7.1 83.6.1zm37 186.9c-.4.2-1.2.3-1.8.3-.5 0-1 0-1.8-.2-2.5-.9-3.4-2.7-3.4-5.2v-67.5c0-3.4 2-5.5 5.1-5.5 3.2 0 5.3 2.1 5.3 5.6v37.6c5.6-3.6 10.8-7 16-10.4 4-2.6 7.9-5.2 11.9-7.7 3.5-2.3 6.6-2 8.3.6 1.9 2.8 1 5.8-2.6 8.1-5.7 3.7-11.4 7.5-17.2 11.1-1.4.9-1.6 1.5-.4 2.7 6.5 7.2 12.8 14.5 19.3 21.6 2.9 3.2 1.9 7.9-1.7 8.9-.4.1-1.2.2-1.9.2-.6 0-1.1-.1-1.8-.2-1.5-.4-2.2-1.7-3.2-2.7-6.5-7.3-13.1-14.6-19.6-22-1.1-1.2-1.7-1.3-3.2-.5-3.2 1.6-4.5 3.8-4.1 7.5.4 4 .1 8.2.1 12.2.1 2.5-.7 4.6-3.3 5.5z"/><path class="st2385" d="M203.1 110.4c3.7 0 7.3.1 11 0 1.4 0 1.8.5 1.8 1.9-.1 6.5-.1 13 0 19.5 0 1.5-.5 1.8-1.9 1.8-7.2-.1-14.3-.1-21.5 0-1.5 0-2-.4-2-2 .1-6.4.1-12.8 0-19.2 0-1.6.6-1.9 2.1-1.9 3.5 0 7-.1 10.5-.1zm-88.7 23.1c-3.6 0-7.2-.1-10.7 0-1.5 0-2.1-.3-2-1.9.1-6.4.1-12.8 0-19.2 0-1.6.5-2 2-1.9 7.2.1 14.3.1 21.5 0 1.4 0 1.9.4 1.8 1.8-.1 6.5-.1 13 0 19.5 0 1.4-.4 1.9-1.8 1.8-3.7-.2-7.3-.1-10.8-.1zm59.2-23.1c3.6 0 7.2.1 10.7 0 1.5 0 2.1.3 2 1.9-.1 6.4-.1 12.8 0 19.2 0 1.6-.6 1.9-2 1.9-7.1-.1-14.2-.1-21.2 0-1.5 0-2.2-.3-2.2-2.1.1-6.3.1-12.7 0-19 0-1.8.6-2.1 2.2-2.1 3.5.3 7 .2 10.5.2zm-29.7 0c3.5 0 7 .1 10.5 0 1.5 0 2.2.3 2.2 2-.1 6.3-.1 12.6 0 19 0 1.6-.4 2.1-2.1 2.1-7.1-.1-14.1-.1-21.2 0-1.4 0-1.9-.3-1.9-1.8.1-6.5.1-13 0-19.5 0-1.4.4-1.9 1.8-1.9 3.5.2 7.1.1 10.7.1zm89 0c3.5 0 7 .1 10.5 0 1.5 0 2.2.3 2.2 2-.1 6.3-.1 12.6 0 19 0 1.6-.4 2.1-2.1 2.1-7.1-.1-14.1-.1-21.2 0-1.4 0-1.9-.3-1.9-1.8.1-6.5.1-13 0-19.5 0-1.4.4-1.9 1.8-1.9 3.5.2 7.1.1 10.7.1zm-59.3-4.3h-10.7c-1.3 0-2-.2-2-1.7.1-6.6.1-13.2 0-19.7 0-1.2.4-1.6 1.6-1.6h22.2c1.2 0 1.6.4 1.6 1.6 0 6.6-.1 13.2 0 19.7 0 1.6-.7 1.7-2 1.7h-10.7zm29.7 0h-10.7c-1.3 0-1.9-.3-1.9-1.8.1-6.6 0-13.1 0-19.7 0-1.2.4-1.6 1.6-1.6h22.2c1.3 0 1.5.5 1.5 1.6 0 6.6-.1 13.1 0 19.7 0 1.6-.7 1.7-1.9 1.7-3.7.1-7.3.1-10.8.1zm-59.3 0c-3.6 0-7.2-.1-10.7 0-1.4 0-1.9-.3-1.9-1.8.1-6.6.1-13.1 0-19.7 0-1.2.3-1.6 1.5-1.6 7.3 0 14.6.1 22 0 1.4 0 1.6.5 1.6 1.7 0 6.5-.1 13 0 19.5 0 1.4-.4 1.9-1.8 1.9-3.6-.1-7.2 0-10.7 0zM83.4 252.2c0-3.6-2-5.6-5.3-5.6s-5.1 2-5.1 5.6v21.2c0 .7.3 1.5-.3 2.1-19.6-13.7-43.5 0-44.3 20.6-.3.9-.1 1.9-.2 2.8-.1 4.8.8 9.4 3.6 13.4 4.7 6.8 10.6 11.7 19.1 12.8 4.5.5 8.4-.2 9.8-.5 13.2-2.5 22.4-12.9 22.6-26.3.2-15.3.1-30.7.1-46.1zm-27.7 62.5c-9.3 0-17-7.6-17-17-.1-9.4 7.6-17.2 17.1-17.2 9.4 0 17.2 7.7 17.2 17.1 0 9.4-7.8 17.1-17.3 17.1zM307 296c-.7-18.7-20.4-31.1-38.1-23.9-10.8 4.4-17.7 15.7-16.9 27.5.8 11.5 9.2 21.7 20.2 24.6 4.6 1.2 10.2 1 12.9.4 4.6-.9 8.7-2.9 12.1-6 1.9-1.7 2.2-4.5 1-6.6-1.1-1.9-3.5-2.8-5.9-2.2-1.1.3-1.9 1-2.8 1.7-8.6 6.3-20.8 3.3-25.6-6.2-1.1-2.3-1-2.4 1.5-2.4h35c5-.1 6.7-2 6.6-6.9zm-11.4-3.6h-6.4c-7.9 0-15.8-.1-23.7 0-2.1 0-2.5-.5-1.5-2.4 3.4-6.4 8.8-9.7 16-9.5 7.2.2 12.3 3.9 15.4 10.4.1.2.2.5.2.7v.8zm-153.2-1.3c-3.5-14.9-18.8-24.1-33.8-20.2-12 3.1-20.4 14.1-20.5 26.6-.1 12.6 8.4 23.6 20.6 26.8.3.1 3 .7 5.8.7 3.9.1 6.4-.4 6.6-.4 15.4-3.2 24.9-18 21.3-33.5zm-26.9 23.6c-9.4 0-17.2-7.9-17.1-17.3.1-9.3 7.8-16.9 17.1-17 9.4 0 17.2 7.8 17.2 17.2.1 9.4-7.7 17.1-17.2 17.1z"/></g></svg>