<svg xmlns="http://www.w3.org/2000/svg" viewBox="0 0 50 50"><path d="M13.7 29.6v-6.4l-2.2 4.7h-1.1l-2.3-4.7v6.4H6.7V20h1.5l2.8 6 2.7-6h1.5v9.6h-1.5zm6.4.1c-1.4 0-2.5-.3-3.4-1.3l1-1c.7.7 1.5.9 2.5.9 1.3 0 2-.5 2-1.5 0-.4-.1-.8-.4-1-.2-.2-.6-.3-1-.4l-1.1-.2c-.8-.1-1.4-.4-1.8-.8-.5-.4-.7-1-.7-1.8 0-1.7 1.2-2.8 3.2-2.8 1.3 0 2.2.3 3 1.1L22.3 22c-.6-.6-1.3-.7-2.1-.7-1.1 0-1.7.6-1.7 1.5 0 .3.1.7.3.9.2.2.5.3 1 .4l1.1.2c.9.1 1.4.3 1.8.7.5.5.8 1.1.8 2 .1 1.6-1.3 2.7-3.4 2.7zm12.4-.1v-6.4l-2.2 4.7h-1.1L27 23.2v6.4h-1.5V20H27l2.8 6 2.7-6H34v9.6h-1.5zm9.9-1.3l.9.9-.8.8-1-.9c-.5.4-1.2.6-2 .6-1 0-1.9-.3-2.5-1-.9-.9-1-1.9-1-3.9s0-3 1-3.9c.6-.6 1.4-1 2.5-1 1 0 1.9.3 2.5 1 .9.9 1 1.9 1 3.9 0 1.8 0 2.7-.6 3.5zM41 21.8c-.4-.4-.8-.6-1.4-.6s-1.1.2-1.4.6c-.5.5-.6 1.1-.6 3s.1 2.5.6 3c.4.4.8.6 1.4.6.4 0 .7-.1 1-.3l-1-1 .8-.8.9.9c.3-.5.3-1.1.3-2.4-.1-1.9-.1-2.4-.6-3z"/></svg>