<svg xmlns="http://www.w3.org/2000/svg" viewBox="0 0 26 26"><path fill="#00A3E0" d="M20.55 17.586l1.642 1.15A9.988 9.988 0 0114 23c-4.838 0-8.872-3.436-9.8-8H2v-4h2.2c.928-4.564 4.962-8 9.8-8a9.988 9.988 0 018.192 4.264l-1.643 1.15A7.994 7.994 0 0014 5c-4.41 0-8 3.589-8 8s3.589 8 8 8c2.706 0 5.1-1.352 6.55-3.414z"/><path fill="#087299" d="M24.001 12.014l-6.142-.012A3.99 3.99 0 0010 13a3.991 3.991 0 007.862.988l6.135.012.004-1.986zM14 15c-1.103 0-2-.897-2-2s.897-2 2-2 2 .897 2 2-.897 2-2 2z"/></svg>