<svg data-name="Layer 1" xmlns="http://www.w3.org/2000/svg" width="50" height="50" viewBox="0 0 50 50"><path d="M11.1 22.9a3.2 3.2 0 01-2.3-.9l.8-.8a2.2 2.2 0 001.6.5c.7 0 1.1-.3 1.1-.8a.8.8 0 00-.2-.5.8.8 0 00-.6-.2h-.7a2.3 2.3 0 01-1.3-.6 1.6 1.6 0 01-.4-1.2 2 2 0 012.2-2 3 3 0 012.1.8l-.8.8a1.9 1.9 0 00-1.4-.5.8.8 0 00-.9.8.7.7 0 00.1.5l.6.2.8.2a1.5 1.5 0 011.2.5 1.4 1.4 0 01.5 1.3c0 1.2-1 1.9-2.4 1.9zm6.2-.1v-.4a1.7 1.7 0 01-1.2.5 1.6 1.6 0 01-1.1-.5 1.8 1.8 0 01-.4-1.3v-3h1.1v2.8c0 .7.4.9.8.9s.8-.2.8-.9v-2.8h1.2v4.7zm4.3.1c-.9 0-2.1-.6-2.1-2.5s1.2-2.3 2.1-2.3a2.1 2.1 0 011.6.6l-.8.8a1 1 0 00-.8-.4.6.6 0 00-.6.3 1.5 1.5 0 00-.3 1 1.6 1.6 0 00.3 1.1.6.6 0 00.6.3 1 1 0 00.8-.4l.8.8a2.2 2.2 0 01-1.6.7zm4.2 0c-.9 0-2.1-.6-2.1-2.5s1.2-2.3 2.1-2.3a2.3 2.3 0 011.6.6l-.8.8a1 1 0 00-.8-.4.9.9 0 00-.7.3 2.5 2.5 0 00-.2 1 2.7 2.7 0 00.2 1.1.9.9 0 00.7.3 1 1 0 00.8-.4l.8.8a2.4 2.4 0 01-1.6.7zm3.3-2.1a1 1 0 001 1.1 1.2 1.2 0 001-.5l.8.7a2.3 2.3 0 01-1.8.8c-1.1 0-2.2-.6-2.2-2.5s.8-2.3 2-2.3a2 2 0 012.1 2.2v.5zm1.6-1.3a.8.8 0 00-.8-.5.7.7 0 00-.7.5.9.9 0 00-.1.5h1.7a.9.9 0 00-.1-.5zm3.9 3.4a2.6 2.6 0 01-2-.7l.8-.8a1.6 1.6 0 001.2.5c.4 0 .9-.2.9-.5s-.2-.4-.5-.5h-.8c-.8-.1-1.4-.5-1.4-1.4s.9-1.4 1.9-1.4a2.3 2.3 0 011.7.5l-.7.7a1.6 1.6 0 00-1.1-.3c-.4 0-.6.2-.6.5s.1.3.5.4h.7a1.4 1.4 0 011.4 1.4c0 1.1-.9 1.6-2 1.6zm4.5 0a2.5 2.5 0 01-2-.7l.7-.8a1.8 1.8 0 001.3.5c.4 0 .8-.2.8-.5s-.1-.4-.5-.5h-.7c-.9-.1-1.4-.5-1.4-1.4s.9-1.4 1.8-1.4a2.4 2.4 0 011.8.5l-.7.7a2 2 0 00-1.1-.3c-.5 0-.7.2-.7.5s.2.3.5.4h.8a1.4 1.4 0 011.4 1.4c0 1.1-.9 1.6-2 1.6zm-27.4 4.6v1.6h2.5v1.1h-2.5v2.6h-1.3v-6.4h4.2v1.1zm6.1 5.3v-.4a1.7 1.7 0 01-1.2.4 1.6 1.6 0 01-1.2-.4 1.5 1.5 0 01-.4-1c0-.8.5-1.4 1.6-1.4h1.1v-.2c0-.5-.2-.8-.8-.8a.9.9 0 00-.9.5l-.8-.8a2 2 0 011.7-.6c1.3 0 2 .5 2 1.6v3.1zm-.1-2h-.9c-.4 0-.7.2-.7.6s.3.5.8.5a1 1 0 00.7-.2 1.1 1.1 0 00.1-.6zm4.3 2.1c-.9 0-2.1-.6-2.1-2.5s1.2-2.3 2.1-2.3a2.1 2.1 0 011.6.6l-.8.8a1 1 0 00-.8-.4.6.6 0 00-.6.3 1.5 1.5 0 00-.3 1 1.6 1.6 0 00.3 1.1.6.6 0 00.6.3 1 1 0 00.8-.4l.8.8a2.2 2.2 0 01-1.6.7zm4-.1a1.3 1.3 0 01-1.4-1.3v-2.4h-.5v-.9h.5v-1.3h1.2v1.3h.8v.9h-.8v2.3c0 .3.1.4.4.4h.4v1zm4.8-.5a1.8 1.8 0 01-1.4.6 2.1 2.1 0 01-1.5-.6 2.7 2.7 0 01-.5-1.9 2.6 2.6 0 01.5-1.8 2.1 2.1 0 011.5-.5 1.8 1.8 0 011.4.5 2.2 2.2 0 01.6 1.8 2.3 2.3 0 01-.6 1.9zm-.9-3l-.5-.2-.6.2c-.2.2-.2.7-.2 1.1s0 1 .2 1.2l.6.2.5-.2c.3-.2.3-.7.3-1.2s0-.9-.3-1.1zm5.1.1a.6.6 0 00-.6-.3.8.8 0 00-.7.9v2.8h-1.2v-4.7h1.1v.5a1.7 1.7 0 011.2-.5 1.4 1.4 0 011.1.4zm3 3.5a2.6 2.6 0 01-2-.7l.8-.8a1.8 1.8 0 001.3.5c.4 0 .8-.2.8-.5s-.1-.4-.5-.5h-.8a1.3 1.3 0 01-1.3-1.4c0-.9.8-1.4 1.8-1.4a2.7 2.7 0 011.8.5l-.7.7a2 2 0 00-1.1-.3c-.5 0-.7.2-.7.5s.1.3.5.4h.7c1 .1 1.4.6 1.4 1.4s-.9 1.6-2 1.6z" fill="#14a2dc"/></svg>