<svg width="58" height="58" viewBox="-3 -3 64 64" fill="none" xmlns="http://www.w3.org/2000/svg"><path d="M29 58c16.016 0 29-12.984 29-29S45.016 0 29 0 0 12.984 0 29s12.984 29 29 29z" fill="#5F67FA"/><path d="M31.822 19.566a.788.788 0 01-.784-.788v-2.136a.788.788 0 00-.784-.787H18.26a.788.788 0 00-.784.787v18.374c0 .439.359.787.784.787h21.695c.436 0 .784-.36.784-.787V20.353a.788.788 0 00-.784-.788h-8.132zM29 35.803v3.486m14 1.26H15" stroke="#fff" stroke-width="1.5" stroke-miterlimit="10"/><path d="M29 43a2.21 2.21 0 002.206-2.215A2.21 2.21 0 0029 38.57a2.21 2.21 0 00-2.206 2.215A2.21 2.21 0 0029 43zm-6.246-15.189c-.558-.16-.964-.358-1.22-.591a1.143 1.143 0 01-.378-.87c0-.39.154-.712.464-.966.311-.256.715-.384 1.212-.384.338 0 .64.066.903.197.267.132.472.313.617.544.146.231.22.484.22.758h-.654c0-.3-.095-.534-.284-.704-.19-.172-.457-.258-.802-.258-.32 0-.572.071-.752.214-.178.14-.267.337-.267.588 0 .202.084.373.253.514.172.138.462.265.87.38.411.116.732.244.962.384.233.139.404.3.515.486.113.186.169.405.169.656 0 .401-.156.723-.467.966-.312.24-.728.36-1.25.36-.338 0-.654-.065-.947-.194a1.62 1.62 0 01-.681-.537 1.317 1.317 0 01-.237-.771h.653c0 .299.11.536.329.71.221.172.515.258.883.258.344 0 .606-.07.79-.21a.686.686 0 00.273-.575c0-.242-.084-.43-.253-.56-.17-.134-.477-.266-.921-.395zm5.383.02h-2.069v2.186h-.65v-4.949h3.054v.537h-2.404v1.693h2.069v.534zm4.587-2.226H31.14v4.412h-.647v-4.412h-1.581v-.537h3.812v.537zm1.381 2.475v1.937h-.65v-4.949h1.818c.54 0 .962.138 1.267.415.306.276.46.642.46 1.098 0 .48-.15.85-.45 1.111-.298.258-.726.388-1.283.388h-1.162zm0-.534h1.168c.348 0 .614-.082.8-.245.184-.165.277-.403.277-.714 0-.294-.093-.53-.278-.707-.185-.176-.439-.268-.761-.275h-1.206v1.94z" fill="#fff"/></svg>