<svg xmlns="http://www.w3.org/2000/svg" viewBox="0 0 50 50"><style>.st658{fill:#ed3227}.st1931{fill:#121111}</style><g id="Layer_1"><path class="st658" d="M5.5 23.5c-.8 0-1.5-.4-1.9-1.1-.2-.3-.3-.6-.3-1 0-.5.2-1 .6-1.4.5-.5 1.1-.7 1.7-.7h4.1c.7 0 1.4.2 1.9.6.9.8.9 2.2 0 3-.5.4-1.1.6-1.7.6H5.5zm4.2-.6c.3 0 .5 0 .8-.1.8-.3 1.1-1.3.7-2-.3-.5-.8-.7-1.4-.7h-4c-.3 0-.6.1-.9.2-.7.4-.9 1.2-.6 1.9.3.5.7.8 1.3.8h4.1zm35.7-1.8c-.2.2-.3.4-.5.6-.1.1-.1.1-.2.1h-4.4c-.3 0-.3 0-.2.3.3.6.7.8 1.3.8h4.4v.1c-.1.2-.3.3-.4.5 0 .1-.1 0-.2 0h-3.9c-.8 0-1.4-.3-1.9-1-.5-.8-.4-1.7.2-2.4.4-.4.9-.7 1.5-.7 1.1-.1 2.2 0 3.3-.1h1.5v.1c-.2.5-.6.6-1.1.6h-3.1c-.5 0-.9.1-1.3.5-.1.1-.2.3-.3.4-.1.1 0 .2.1.2h5.2zm-30.8.1h2.8c.2 0 .3 0 .5-.1s.3-.3.3-.5-.2-.4-.4-.5c-.1 0-.2-.1-.4-.1H14c-.2 0-.2.1-.2.2v3.2c0 .1 0 .2-.2.2h-.7c-.1 0-.1 0-.1-.1v-4c0-.1 0-.1.2-.1h4.3c.4 0 .9.1 1.2.3.7.5.7 1.4-.1 1.9-.4.3-.9.3-1.4.3h-.2c.1.1.2.1.2.1.3.3.7.5 1 .8.3.3.7.5 1 .8h-1.1c-.1 0-.2 0-.2-.1-1-.8-2-1.5-3.1-2.3zm16.5 1.7h2.3s0 .1-.1.1c0 0-.1 0-.1.1-.2.4-.6.5-1 .5h-3.4c-.9 0-1.6-.5-2-1.3-.3-.8-.2-1.7.6-2.3.5-.4 1-.5 1.6-.6h4.5v.1c-.1.1-.2.2-.2.3-.2.2-.4.2-.7.2h-3.5c-.5 0-1 .1-1.3.5-.5.6-.4 1.6.3 2 .3.2.6.4 1.1.3.6.1 1.3.1 1.9.1zm-11.6.6c.4-.4.7-.8 1-1.2.7-.9 1.5-1.8 2.2-2.7.3-.4.9-.4 1.2 0 .8 1 1.6 2 2.4 2.9.3.3.5.6.8 1h-1c-.1 0-.1-.1-.1-.1-.6-.7-1.2-1.4-1.7-2.1-.3-.3-.5-.6-.8-1-.1-.1-.1-.1-.2 0-.3.4-.6.8-1 1.2l-.1.1c0 .1.1 0 .1 0h1.9v.2c-.2.4-.6.5-1 .5h-1.3c-.1 0-.2 0-.3.1-.3.3-.5.7-.8 1 0 .1-.1.1-.2.1h-1.1z"/><path class="st1931" d="M21.5 29.1V26c0-.1 0-.2.2-.2.4 0 .4 0 .4.4v4.2c0 .1 0 .2-.2.2-.4 0-.4 0-.6-.4-.4-1-.7-1.9-1.1-2.9 0 0 0-.1-.1-.1v3.3c0 .1 0 .1-.1.1-.4 0-.4 0-.4-.4V26c0-.1 0-.2.2-.2.4 0 .4 0 .6.4.3.9.7 1.9 1 2.8 0 .1 0 .1.1.1-.1 0-.1 0 0 0zm-11.8-1c.5.2.7.7.7 1.2 0 .1 0 .2-.1.4-.1.6-.6.9-1.1.9H8c-.1 0-.1 0-.1-.1V26c0-.1 0-.1.1-.1h1.4c.6.1.8.5.9 1 0 .4 0 .8-.2 1-.2 0-.3.1-.4.2zm-1.2 1v.7c0 .1 0 .1.1.1h.6c.3 0 .5-.2.6-.6v-.4c0-.3-.2-.6-.5-.6-.3-.1-.5 0-.8 0-.1 0-.1.1-.1.1.1.3.1.5.1.7zm.1-2.8c-.1 0-.1 0-.1.1v1.3s0 .1.1.1h.7c.3 0 .5-.4.5-.8s-.2-.6-.5-.7h-.7z"/><path class="st658" d="M36.4 23.5h-2c-.1 0-.2 0-.2-.1v-3.9c0-.1 0-.2.2-.2h.6c.1 0 .1 0 .1.2v3.2c0 .1.1.2.2.2H39v.1c-.1.2-.3.3-.4.5-.1.1-.1.1-.2.1-.7-.1-1.4-.1-2-.1z"/><path class="st1931" d="M37.2 27.6v-1.7c0-.1 0-.1.1-.1.4 0 .4 0 .4.4v3.3c.1.3.3.5.6.5s.6-.2.6-.6v-3.5c0-.1 0-.2.2-.2.4 0 .4 0 .4.4v3c0 .2 0 .4-.1.6-.2.7-.6.9-1.3.8-.6-.1-.9-.4-1-1V29c.1-.4.1-.9.1-1.4zm-26.4 0v-1.7c0-.1 0-.2.1-.2.4 0 .4 0 .4.4v3.4c.1.3.3.5.6.5s.6-.2.6-.6v-3.5c0-.1 0-.2.2-.2.4 0 .4 0 .4.4v3c0 .2 0 .4-.1.6-.2.7-.6.9-1.3.8-.6-.1-.9-.4-1-1V29c.1-.4.1-.9.1-1.4zm5-.5s-.1 0 0 0c-.2 0-.3 0-.3-.2 0-.3-.1-.5-.4-.6-.4-.2-.8.2-.8.7 0 .2.1.4.3.6.1.1.3.2.4.3.4.2.8.5 1 .9.2.5.1 1.5-.6 1.8-.8.3-1.7 0-1.8-1.1 0-.4 0-.4.4-.4.1 0 .1 0 .2.1v.4c.1.3.4.5.7.5.3 0 .6-.3.6-.6.1-.3-.1-.6-.3-.8-.2-.1-.3-.2-.5-.3-.2-.1-.5-.2-.6-.4-.6-.6-.4-1.7.3-2 .5-.3 1.1 0 1.4.5.1.2.2.4.2.6 0 .1 0 .2-.2.2.1-.2 0-.2 0-.2zm12.1 2.2c0 .3-.1.7-.3.9-.3.4-.8.5-1.3.3-.5-.1-.7-.5-.8-.9v-.5c0-.1 0-.1.1-.1.4 0 .4 0 .4.4s.3.7.7.6c.4 0 .6-.3.7-.7 0-.3-.1-.6-.3-.8-.2-.1-.3-.2-.5-.3-.2-.1-.5-.2-.6-.4-.6-.6-.4-1.7.3-2 .5-.3 1.1-.1 1.4.5.1.2.2.4.2.7 0 .1 0 .1-.1.1h-.4c-.1 0 0-.2-.1-.3-.1-.2-.2-.4-.5-.5-.2 0-.4 0-.5.2-.3.3-.2.8.1 1 .2.1.3.2.5.3.3.1.6.3.8.6.1.2.2.5.2.9zm2.9 0c0 .3-.1.6-.3.9-.3.4-.8.5-1.3.3-.5-.1-.7-.5-.8-.9 0-.2 0-.4-.1-.5 0-.1 0-.1.1-.1h.4c.1.1 0 .2.1.4 0 .4.3.6.7.6.4 0 .6-.3.7-.6 0-.3-.1-.6-.3-.8-.2-.1-.3-.2-.5-.3-.2-.1-.5-.2-.6-.4-.6-.6-.4-1.7.4-2 .5-.2 1.1 0 1.4.5.1.2.2.5.2.7 0 .1 0 .1-.1.1h-.4c-.1 0 0-.2-.1-.3-.1-.4-.4-.6-.7-.5-.2 0-.4.2-.4.4-.1.3 0 .5.2.8.2.1.3.2.5.3.3.1.6.3.8.6 0 .1.1.4.1.8zm3.7-.3c.3 0 .3 0 .3.3 0 .5.4.8.8.7.5-.1.7-.8.4-1.2-.2-.2-.4-.4-.7-.5-.2-.1-.4-.2-.5-.3-.8-.6-.5-1.8.2-2.2.5-.2 1.1 0 1.4.5.1.2.2.4.2.7 0 .1 0 .2-.1.2h-.4c-.1-.2-.1-.3-.1-.4-.1-.3-.2-.4-.5-.5-.2 0-.4.1-.5.3-.2.3-.1.7.2 1 .1.1.3.2.4.3.2.1.3.2.5.3.6.5.7 1.1.5 1.8-.2.5-.7.8-1.2.7-.5 0-.9-.4-1.1-.9v-.5c0-.1 0-.2.2-.2-.1-.1 0-.1 0-.1zm11.6-.8V26c0-.1 0-.2.2-.2h1.9c.1 0 .2 0 .2.2 0 .4 0 .4-.4.4h-1.2c-.1 0-.1 0-.1.1v1.2c0 .1 0 .1.1.1H48c.1 0 .2 0 .2.1 0 .4 0 .4-.4.4h-1c-.1 0-.1 0-.1.1v1.4c0 .1 0 .1.1.1h1.5c.1 0 .1 0 .1.1 0 .4 0 .4-.4.4h-1.8c-.1 0-.1 0-.1-.1v-2.1zm-23.5 0V26c0-.1 0-.2.2-.2h1.9c.1 0 .2 0 .2.2 0 .4 0 .4-.4.4h-1.2c-.1 0-.1 0-.1.1v1.2c0 .1 0 .1.1.1h1.3c.1 0 .1 0 .1.1 0 .4 0 .4-.4.4h-1c-.1 0-.1 0-.1.1v1.4c0 .1 0 .1.1.1h1.5c.1 0 .2 0 .2.1 0 .4 0 .4-.4.4h-1.8c-.1 0-.1 0-.1-.2-.1-.6-.1-1.3-.1-2zm-20.5 0V26c0-.1 0-.2.1-.2h1.9c.1 0 .1 0 .1.1 0 .4 0 .4-.4.4h-1c-.1 0-.1 0-.1.1v1.2c0 .1 0 .1.1.1h1.3c.1 0 .1 0 .1.1 0 .4 0 .4-.4.4h-1c-.1 0-.1 0-.1.1v1.4c0 .1 0 .1.1.1h1.5c.1 0 .2 0 .2.2 0 .4 0 .4-.4.4H2.3c-.2 0-.2 0-.2-.2v-2zm41.9.2v-1.8c0-.3 0-.3-.3-.3h-.5c-.1 0-.1 0-.1-.1 0-.4 0-.4.4-.4h1.8c.1 0 .2 0 .2.2 0 .4 0 .4-.4.4h-.3c-.2 0-.2 0-.2.2v3.8c0 .2 0 .2-.2.2-.3 0-.3 0-.3-.3-.1-.7-.1-1.3-.1-1.9zm-26.4-.3v-2.2c0-.1 0-.2.2-.2.4 0 .4 0 .4.4v4.2c0 .1 0 .2-.2.2-.4 0-.4 0-.4-.4v-2zM41.1 26c0-.1 0-.2.2-.2.4 0 .4 0 .4.4v4.2c0 .1 0 .2-.2.2-.4 0-.4 0-.4-.4V26zM6.2 28.3H5.1c-.1 0-.2 0-.2-.2 0-.3-.1-.3.3-.3h2.1c.1 0 .2 0 .2.2 0 .3 0 .3-.3.3h-1z"/><path d="M47.1 19.6c.1-.1-.1-.1 0-.1h.1s.1.1 0 .1-.1.1 0 .2v.1h-.1l-.1-.1c-.1-.1-.1-.1-.1 0 0 0 0 .1-.1.1 0 0-.1 0-.1-.1v-.2s0-.1.1-.1c0 0 .1 0 .1.1h.2c-.1 0-.1 0 0 0z" fill="#f05c46"/><path d="M47.1 19.6c-.1 0-.1 0 0 0-.1 0-.1 0 0 0z" fill="#cfcfcf"/><path d="M3.3 24.3H46v.3H3.3z" fill="#c1c1c1"/><circle cx="47" cy="19.7" r=".4" fill="none" stroke="#ed3227" stroke-width=".135" stroke-miterlimit="10"/></g></svg>