<svg width="167" height="179" viewBox="0 0 167 179" xmlns="http://www.w3.org/2000/svg"><g fill="none" fill-rule="evenodd"><path d="M145.014 93.633l-46.178 34.524c-9.667 7.227-25.094 6.942-34.474-.626L21.73 93.136l45.793-35.709c9.498-7.406 24.74-7.208 34.041.447l43.449 35.76zm11.629 9.572l.564.463c9.301 7.656 9.021 19.706-.624 26.917L98.81 173.778c-9.64 7.208-25.062 6.927-34.434-.635L9.96 129.24c-9.338-7.534-9.27-19.614.133-27.028l50.82 41.001c11.333 9.144 29.54 9.477 41.214.75l54.516-40.758z" fill="#446BEB"/><path d="M101.579 8.88l55.62 45.776c9.315 7.666 9.023 19.726-.638 26.948L98.837 124.76c-9.668 7.228-25.097 6.942-34.478-.626L9.966 80.25C.591 72.687.69 60.536 10.197 53.123l57.311-44.69c9.513-7.417 24.762-7.213 34.07.448zm-3.491 4.186c-7.327-6.03-19.716-6.194-27.2-.358l-57.312 44.69c-6.745 5.259-6.812 13.267-.16 18.633l54.393 43.884c7.432 5.995 20.08 6.226 27.737.502l57.724-43.155c6.84-5.114 7.028-12.997.437-18.421l-55.62-45.775z" stroke="#446BEB" stroke-width="5.842" fill="#2E5BEC" fill-rule="nonzero"/></g></svg>